SplineFontDB: 3.0
FontName: Mikhak-Medium
FullName: Mikhak Medium
FamilyName: Mikhak Medium
Weight: Medium
Copyright: Copyright (c) 2019, Amin Abedi (www.fontamin.com|aminabedi68@gmail.com),\nwith Reserved Font Name Mikhak.\n\nThis Font Software is licensed under the SIL Open Font License, Version 1.1.\nThis license is available with a FAQ at: http://scripts.sil.org/OFL
Version: 2.2
ItalicAngle: 0
UnderlinePosition: -450
UnderlineWidth: 100
Ascent: 1638
Descent: 410
InvalidEm: 0
sfntRevision: 0x00023cac
UFOAscent: 1638
UFODescent: -410
LayerCount: 2
Layer: 0 0 "Back" 1
Layer: 1 0 "public.default" 0
StyleMap: 0x0000
FSType: 0
OS2Version: 0
OS2_WeightWidthSlopeOnly: 0
OS2_UseTypoMetrics: 0
CreationTime: 1569500574
ModificationTime: 1569509460
PfmFamily: 16
TTFWeight: 500
TTFWidth: 5
LineGap: 0
VLineGap: 0
OS2TypoAscent: 2200
OS2TypoAOffset: 0
OS2TypoDescent: -1200
OS2TypoDOffset: 0
OS2TypoLinegap: 0
OS2WinAscent: 2200
OS2WinAOffset: 0
OS2WinDescent: 1200
OS2WinDOffset: 0
HheadAscent: 2200
HheadAOffset: 0
HheadDescent: -1200
HheadDOffset: 0
OS2SubXSize: 1277
OS2SubYSize: 1185
OS2SubXOff: 0
OS2SubYOff: 256
OS2SupXSize: 1277
OS2SupYSize: 1185
OS2SupXOff: 0
OS2SupYOff: 870
OS2StrikeYSize: 91
OS2StrikeYPos: 766
OS2CapHeight: 1400
OS2XHeight: 1012
OS2Vendor: 'AA68'
Lookup: 4 1 0 "'ccmp' Glyph Composition/Decomposition in Arabic lookup 0" { "'ccmp' Glyph Composition/Decomposition in Arabic lookup 0 subtable 0"  } ['ccmp' ('arab' <'FAR ' 'dflt' > ) ]
Lookup: 1 9 0 "Single Substitution 1" { "Single Substitution 1 subtable"  } []
Lookup: 2 9 0 "Multiple Substitution 2" { "Multiple Substitution 2 subtable"  } []
Lookup: 2 9 0 "Multiple Substitution 3" { "Multiple Substitution 3 subtable"  } []
Lookup: 1 9 0 "'fina' Terminal Forms in Arabic lookup 4" { "'fina' Terminal Forms in Arabic lookup 4 subtable"  } ['fina' ('arab' <'FAR ' 'dflt' > ) ]

StartChar: A
Encoding: 65 65 0
Width: 1416
GlyphClass: 2
Flags: HW
LayerCount: 2
Fore
SplineSet
124 -48 m 256
 80 -28 60 24 80 68 c 258
 658 1352 l 258
 678 1398 736 1416 780 1392 c 256
 798 1382 814 1365 820 1348 c 258
 1338 32 l 258
 1355 -12 1332 -65 1288 -82 c 256
 1244 -99 1191 -76 1174 -32 c 258
 732 1091 l 257
 240 -4 l 258
 220 -48 168 -68 124 -48 c 256
1175 369 m 256
 1171 322 1128 286 1080 290 c 258
 330 358 l 258
 283 362 247 405 251 453 c 256
 255 501 299 536 346 532 c 258
 1096 464 l 258
 1144 460 1179 416 1175 369 c 256
EndSplineSet
EndChar

StartChar: AE
Encoding: 198 198 1
Width: 1908
GlyphClass: 2
Flags: HW
LayerCount: 2
Fore
SplineSet
1024 1403 m 256
 1072 1404 1111 1366 1112 1318 c 256
 1113 1261 1114 1191 1114 1119 c 256
 1114 826 1113 460 1072 223 c 256
 1068 200 1066 188 1066 178 c 256
 1066 120 1152 93 1251 87 c 256
 1377 79 1476 74 1602 74 c 256
 1644 74 1683 74 1724 75 c 256
 1772 76 1813 38 1814 -10 c 256
 1815 -58 1776 -98 1728 -99 c 256
 1685 -100 1644 -100 1602 -100 c 256
 1472 -100 1368 -95 1241 -87 c 256
 1093 -79 890 -21 890 173 c 256
 890 195 893 213 897 233 c 256
 935 453 940 829 940 1119 c 256
 940 1191 939 1257 938 1314 c 256
 937 1362 976 1402 1024 1403 c 256
1833 1394 m 256
 1844 1348 1814 1300 1768 1289 c 256
 1594 1249 1412 1230 1224 1230 c 256
 1163 1230 740 1232 578 1236 c 257
 570 809 502 270 226 -56 c 256
 196 -92 140 -96 104 -66 c 256
 68 -36 64 20 94 56 c 256
 336 342 404 895 404 1325 c 256
 404 1371 445 1415 496 1412 c 256
 564 1408 1155 1404 1224 1404 c 256
 1402 1404 1570 1421 1728 1459 c 256
 1774 1470 1822 1440 1833 1394 c 256
301 685 m 256
 297 733 333 775 381 779 c 256
 547 793 920 798 1119 798 c 256
 1321 798 1519 792 1670 780 c 256
 1718 776 1754 734 1750 686 c 256
 1746 638 1704 602 1656 606 c 256
 1513 618 1317 624 1119 624 c 256
 924 624 549 617 395 605 c 256
 347 601 305 637 301 685 c 256
EndSplineSet
EndChar

StartChar: B
Encoding: 66 66 8
Width: 1138
GlyphClass: 2
Flags: HW
LayerCount: 2
Fore
SplineSet
155 708 m 256
 152 756 189 797 237 800 c 256
 306 804 462 816 536 816 c 256
 838 816 1066 680 1066 376 c 256
 1066 36 757 -72 501 -72 c 256
 389 -72 275 -56 177 -24 c 256
 131 -10 106 39 120 85 c 256
 134 131 183 156 229 142 c 256
 308 118 407 102 501 102 c 256
 731 102 890 182 890 376 c 256
 890 562 786 644 536 644 c 256
 472 644 314 630 247 626 c 256
 199 623 158 660 155 708 c 256
196 -28 m 256
 148 -24 112 18 116 66 c 256
 131 262 138 507 138 696 c 256
 138 931 128 1089 113 1273 c 256
 109 1321 145 1363 193 1367 c 256
 241 1371 284 1335 288 1287 c 256
 303 1103 312 945 312 706 c 256
 312 513 305 254 290 52 c 256
 286 4 244 -32 196 -28 c 256
118 1248 m 256
 101 1292 124 1345 168 1362 c 256
 280 1406 409 1434 533 1434 c 256
 759 1434 984 1294 984 1028 c 256
 984 640 360 635 246 629 c 256
 198 627 157 661 155 709 c 256
 153 757 190 798 238 800 c 256
 504 814 810 858 810 1046 c 256
 810 1182 699 1258 533 1258 c 256
 437 1258 326 1234 232 1198 c 256
 188 1181 135 1204 118 1248 c 256
EndSplineSet
EndChar

StartChar: C
Encoding: 67 67 9
Width: 1271
GlyphClass: 2
Flags: HW
LayerCount: 2
Fore
SplineSet
1156 1256 m 256
 1136 1212 1084 1192 1040 1212 c 256
 969 1244 893 1258 814 1258 c 256
 487 1258 248 995 248 662 c 256
 248 338 480 102 810 102 c 256
 900 102 990 124 1070 166 c 256
 1112 188 1166 172 1188 130 c 256
 1210 88 1194 34 1152 12 c 256
 1046 -44 928 -72 810 -72 c 256
 388 -72 72 244 72 662 c 256
 72 1081 383 1434 814 1434 c 256
 915 1434 1017 1414 1112 1372 c 256
 1156 1352 1176 1300 1156 1256 c 256
EndSplineSet
EndChar

StartChar: D
Encoding: 68 68 11
Width: 1279
GlyphClass: 2
Flags: HW
LayerCount: 2
Fore
SplineSet
312 1250 m 257
 326 1098 332 980 332 811 c 256
 332 585 320 341 296 126 c 257
 346 110 399 102 452 102 c 256
 783 102 1032 361 1032 701 c 256
 1032 1077 800 1258 406 1258 c 256
 374 1258 344 1256 312 1250 c 257
198 1410 m 256
 266 1426 336 1434 406 1434 c 256
 866 1434 1206 1185 1206 701 c 256
 1206 271 883 -72 452 -72 c 256
 355 -72 258 -55 168 -20 c 256
 129 -5 110 37 114 73 c 256
 142 294 158 567 158 811 c 256
 158 1007 150 1124 130 1316 c 256
 125 1362 161 1402 198 1410 c 256
EndSplineSet
EndChar

StartChar: E
Encoding: 69 69 12
Width: 1098
GlyphClass: 2
Flags: HW
LayerCount: 2
Fore
SplineSet
74 724 m 256
 68 771 103 816 150 822 c 256
 270 836 380 842 500 842 c 256
 626 842 748 834 870 820 c 256
 917 814 952 769 946 722 c 256
 940 675 896 640 849 646 c 256
 735 660 618 666 500 666 c 256
 384 666 282 662 170 648 c 256
 123 642 80 677 74 724 c 256
1023 1378 m 256
 1033 1332 1004 1284 958 1274 c 256
 813 1240 634 1228 472 1228 c 256
 420 1228 367 1231 316 1233 c 257
 326 1141 330 1067 330 960 c 256
 330 744 315 527 288 335 c 256
 286 319 284 309 284 295 c 256
 284 151 440 132 768 132 c 256
 821 132 871 132 920 133 c 256
 968 134 1009 96 1010 48 c 256
 1011 0 972 -40 924 -41 c 256
 873 -42 821 -42 768 -42 c 256
 508 -42 110 -57 110 295 c 256
 110 315 110 337 114 361 c 256
 140 542 154 752 154 960 c 256
 154 1102 149 1182 132 1314 c 256
 128 1350 159 1416 223 1412 c 256
 307 1407 390 1404 472 1404 c 256
 626 1404 795 1416 918 1444 c 256
 964 1454 1013 1424 1023 1378 c 256
EndSplineSet
EndChar

StartChar: Eth
Encoding: 208 208 17
Width: 1341
GlyphClass: 2
Flags: HW
LayerCount: 2
Fore
SplineSet
14 708 m 256
 10 749 43 784 84 788 c 256
 306 806 502 802 660 788 c 256
 700 784 732 748 728 708 c 256
 724 668 687 636 647 640 c 256
 497 652 308 656 94 640 c 256
 53 636 18 667 14 708 c 256
EndSplineSet
Refer: 11 68 N 1 0 0 1 150 0 2
EndChar

StartChar: F
Encoding: 70 70 18
Width: 1092
GlyphClass: 2
Flags: HW
LayerCount: 2
Fore
SplineSet
74 710 m 256
 68 757 103 802 150 808 c 256
 262 822 375 828 489 828 c 256
 611 828 734 820 854 806 c 256
 901 800 936 755 930 708 c 256
 924 661 879 626 832 632 c 256
 718 646 603 654 489 654 c 256
 383 654 276 646 170 634 c 256
 123 628 80 663 74 710 c 256
1017 1358 m 256
 1027 1312 998 1263 952 1253 c 256
 807 1219 628 1208 466 1208 c 256
 414 1208 360 1210 310 1212 c 257
 330 1005 336 817 336 583 c 256
 336 375 324 172 304 -10 c 256
 298 -57 255 -93 208 -87 c 256
 161 -81 124 -37 130 10 c 256
 150 184 160 381 160 583 c 256
 160 852 154 1058 126 1294 c 256
 122 1330 154 1395 218 1391 c 256
 300 1386 383 1384 466 1384 c 256
 620 1384 789 1395 912 1423 c 256
 958 1433 1007 1404 1017 1358 c 256
EndSplineSet
EndChar

StartChar: G
Encoding: 71 71 19
Width: 1349
GlyphClass: 2
Flags: HW
LayerCount: 2
Fore
SplineSet
560 649 m 256
 560 697 600 736 648 736 c 258
 1184 736 l 258
 1232 736 1268 694 1271 655 c 256
 1274 615 1276 575 1276 537 c 256
 1276 209 1136 -72 716 -72 c 256
 362 -72 72 170 72 639 c 256
 72 1054 289 1434 763 1434 c 256
 880 1434 996 1396 1090 1326 c 256
 1128 1298 1136 1242 1108 1204 c 256
 1080 1166 1023 1158 985 1186 c 256
 923 1232 842 1258 763 1258 c 256
 413 1258 248 1002 248 639 c 256
 248 254 452 102 716 102 c 256
 1036 102 1105 274 1099 562 c 257
 648 562 l 258
 600 562 560 601 560 649 c 256
EndSplineSet
EndChar

StartChar: H
Encoding: 72 72 20
Width: 1319
GlyphClass: 2
Flags: HW
LayerCount: 2
Fore
SplineSet
1003 1403 m 256
 1051 1405 1092 1368 1094 1320 c 258
 1153 -17 l 258
 1155 -65 1118 -106 1070 -108 c 256
 1022 -110 981 -73 979 -25 c 258
 920 1312 l 258
 918 1360 955 1401 1003 1403 c 256
1206 650 m 256
 1204 602 1163 565 1115 567 c 256
 851 579 428 588 200 588 c 256
 152 588 113 628 113 676 c 256
 113 724 152 764 200 764 c 256
 432 764 857 753 1123 741 c 256
 1171 739 1208 698 1206 650 c 256
272 1403 m 256
 320 1403 359 1364 359 1316 c 256
 355 872 340 421 296 -9 c 256
 291 -56 246 -92 199 -87 c 256
 152 -82 116 -38 121 9 c 256
 163 431 181 874 185 1316 c 256
 185 1364 224 1403 272 1403 c 256
EndSplineSet
EndChar

StartChar: I
Encoding: 73 73 28
Width: 435
GlyphClass: 2
Flags: HW
LayerCount: 2
Fore
SplineSet
198 -87 m 256
 150 -86 112 -46 113 2 c 258
 148 1363 l 258
 149 1411 189 1449 237 1448 c 256
 285 1447 323 1407 322 1359 c 258
 287 -2 l 258
 286 -50 246 -88 198 -87 c 256
EndSplineSet
EndChar

StartChar: J
Encoding: 74 74 33
Width: 680
GlyphClass: 2
Flags: HW
LayerCount: 2
Fore
SplineSet
86 1317 m 256
 86 1365 125 1404 173 1404 c 258
 550 1404 l 258
 598 1404 638 1365 638 1317 c 256
 638 1269 598 1230 550 1230 c 258
 173 1230 l 258
 125 1230 86 1269 86 1317 c 256
398 1402 m 256
 445 1408 490 1373 496 1326 c 256
 542 982 562 670 562 300 c 256
 562 100 474 -72 233 -72 c 256
 207 -72 179 -71 153 -69 c 256
 106 -65 69 -23 73 25 c 256
 77 73 121 109 168 105 c 256
 189 103 211 102 233 102 c 256
 360 102 388 144 388 300 c 256
 388 662 368 966 324 1304 c 256
 318 1351 351 1396 398 1402 c 256
EndSplineSet
EndChar

StartChar: K
Encoding: 75 75 34
Width: 1217
GlyphClass: 2
Flags: HW
LayerCount: 2
Fore
SplineSet
198 -87 m 256
 150 -86 112 -46 113 2 c 258
 148 1362 l 258
 149 1410 189 1448 237 1447 c 256
 285 1446 323 1406 322 1358 c 258
 287 -2 l 258
 286 -50 246 -88 198 -87 c 256
1038 1432 m 256
 1076 1404 1084 1347 1056 1309 c 256
 864 1051 594 852 338 699 c 257
 544 467 842 243 1104 74 c 256
 1144 48 1156 -7 1130 -47 c 256
 1104 -87 1050 -100 1010 -74 c 256
 709 120 360 384 134 665 c 256
 107 699 109 767 160 796 c 256
 433 951 724 1155 916 1413 c 256
 944 1451 1000 1460 1038 1432 c 256
EndSplineSet
EndChar

StartChar: L
Encoding: 76 76 35
Width: 1166
GlyphClass: 2
Flags: HW
LayerCount: 2
Fore
SplineSet
212 1403 m 256
 260 1407 301 1370 305 1322 c 256
 316 1153 322 990 322 830 c 256
 322 594 310 364 294 130 c 257
 1008 109 l 258
 1056 108 1094 68 1093 20 c 256
 1092 -28 1052 -66 1004 -65 c 258
 198 -42 l 258
 153 -41 109 1 113 52 c 256
 133 315 146 570 146 830 c 256
 146 986 142 1145 131 1310 c 256
 127 1358 164 1399 212 1403 c 256
EndSplineSet
EndChar

StartChar: M
Encoding: 77 77 36
Width: 1599
GlyphClass: 2
Flags: HW
LayerCount: 2
Fore
SplineSet
180 -87 m 256
 133 -82 98 -37 103 10 c 258
 240 1310 l 258
 245 1360 293 1396 343 1386 c 256
 378 1380 406 1349 412 1324 c 256
 474 1098 611 800 709 624 c 256
 741 568 767 540 787 540 c 256
 807 540 830 560 860 612 c 256
 977 805 1108 1155 1144 1333 c 256
 1154 1383 1206 1414 1254 1400 c 256
 1294 1389 1316 1348 1317 1320 c 256
 1335 810 1390 474 1494 32 c 256
 1505 -14 1475 -62 1429 -73 c 256
 1383 -84 1335 -54 1324 -8 c 256
 1250 308 1201 570 1175 902 c 257
 1135 780 1064 621 1002 516 c 256
 950 427 890 342 787 342 c 256
 674 342 612 443 562 533 c 256
 502 638 426 797 376 938 c 257
 277 -10 l 258
 272 -57 227 -92 180 -87 c 256
EndSplineSet
EndChar

StartChar: N
Encoding: 78 78 37
Width: 1307
GlyphClass: 2
Flags: HW
LayerCount: 2
Fore
SplineSet
196 -87 m 256
 148 -85 111 -44 113 4 c 256
 135 448 152 865 158 1317 c 256
 158 1367 203 1407 253 1403 c 256
 278 1401 302 1385 314 1369 c 256
 568 1035 802 676 1008 322 c 257
 1020 1362 l 258
 1020 1410 1060 1448 1108 1448 c 256
 1156 1448 1194 1408 1194 1360 c 258
 1179 3 l 258
 1179 -23 1164 -53 1140 -69 c 256
 1098 -97 1040 -82 1016 -38 c 256
 812 329 581 702 327 1054 c 257
 319 696 305 354 287 -4 c 256
 285 -52 244 -89 196 -87 c 256
EndSplineSet
EndChar

StartChar: O
Encoding: 79 79 39
Width: 1485
GlyphClass: 2
Flags: HW
LayerCount: 2
Fore
SplineSet
713 102 m 256
 1009 102 1238 336 1238 684 c 256
 1238 1002 1057 1258 799 1258 c 256
 489 1258 248 963 248 613 c 256
 248 300 444 102 713 102 c 256
713 -72 m 256
 342 -72 72 218 72 613 c 256
 72 1035 367 1434 799 1434 c 256
 1193 1434 1412 1054 1412 684 c 256
 1412 256 1115 -72 713 -72 c 256
EndSplineSet
EndChar

StartChar: OE
Encoding: 338 338 40
Width: 2327
GlyphClass: 2
Flags: HW
LayerCount: 2
Fore
SplineSet
1182 745 m 256
 1188 792 1234 824 1281 818 c 256
 1385 802 1545 792 1701 792 c 256
 1803 792 1904 796 1991 808 c 256
 2038 814 2082 779 2088 732 c 256
 2094 685 2060 640 2013 634 c 256
 1915 622 1809 616 1701 616 c 256
 1535 616 1371 630 1255 646 c 256
 1208 652 1176 698 1182 745 c 256
1234 125 m 256
 1244 171 1292 202 1338 192 c 256
 1506 154 1680 136 1849 136 c 256
 1955 136 2058 144 2154 158 c 256
 2201 165 2247 131 2254 84 c 256
 2261 37 2227 -9 2180 -16 c 256
 2074 -32 1963 -40 1849 -40 c 256
 1668 -40 1480 -20 1300 20 c 256
 1254 30 1224 79 1234 125 c 256
696 102 m 256
 1091 102 1202 482 1202 1065 c 256
 1202 1150 1200 1239 1196 1325 c 256
 1193 1383 1248 1422 1294 1416 c 256
 1526 1385 1721 1360 1889 1360 c 256
 1975 1360 2054 1366 2128 1384 c 256
 2174 1394 2224 1364 2234 1318 c 256
 2244 1272 2214 1222 2168 1212 c 256
 2076 1192 1985 1184 1889 1184 c 256
 1732 1184 1566 1204 1374 1229 c 257
 1376 1176 1378 1119 1378 1065 c 256
 1378 502 1269 -72 696 -72 c 256
 337 -72 72 250 72 643 c 256
 72 1015 308 1434 699 1434 c 256
 870 1434 1002 1343 1084 1232 c 256
 1112 1194 1102 1138 1064 1110 c 256
 1026 1082 970 1092 942 1130 c 256
 886 1207 806 1258 699 1258 c 256
 454 1258 248 967 248 643 c 256
 248 322 455 102 696 102 c 256
EndSplineSet
EndChar

StartChar: Oslash
Encoding: 216 216 45
Width: 1494
GlyphClass: 2
Flags: HW
LayerCount: 2
Fore
SplineSet
118 -67 m 256
 95 -52 89 -20 103 2 c 256
 456 531 883 977 1325 1378 c 256
 1345 1396 1378 1395 1396 1375 c 256
 1414 1355 1413 1322 1393 1304 c 256
 955 907 534 469 187 -52 c 256
 172 -74 140 -81 118 -67 c 256
EndSplineSet
Refer: 39 79 N 1 0 0 1 0 0 2
EndChar

StartChar: P
Encoding: 80 80 47
Width: 1269
GlyphClass: 2
Flags: HW
LayerCount: 2
Fore
SplineSet
102 1102 m 256
 66 1134 62 1189 94 1225 c 256
 212 1361 442 1434 636 1434 c 256
 955 1434 1196 1176 1196 862 c 256
 1196 522 855 322 560 322 c 256
 481 322 336 330 245 366 c 256
 201 383 178 435 196 479 c 256
 214 523 266 545 310 528 c 256
 351 512 499 496 560 496 c 256
 797 496 1022 660 1022 862 c 256
 1022 1086 855 1258 636 1258 c 256
 482 1258 294 1185 226 1109 c 256
 194 1073 138 1070 102 1102 c 256
353 1326 m 256
 401 1322 438 1281 434 1233 c 258
 345 -6 l 258
 341 -54 300 -91 252 -87 c 256
 204 -83 167 -42 171 6 c 258
 260 1245 l 258
 264 1293 305 1330 353 1326 c 256
EndSplineSet
EndChar

StartChar: Q
Encoding: 81 81 48
Width: 1485
GlyphClass: 2
Flags: HW
LayerCount: 2
Fore
SplineSet
832 510 m 256
 871 538 926 529 954 490 c 256
 1085 310 1200 176 1366 30 c 256
 1402 -2 1406 -57 1374 -93 c 256
 1342 -129 1286 -132 1250 -100 c 256
 1074 54 947 200 812 388 c 256
 784 427 793 482 832 510 c 256
EndSplineSet
Refer: 39 79 N 1 0 0 1 0 0 2
EndChar

StartChar: R
Encoding: 82 82 49
Width: 1270
GlyphClass: 2
Flags: HW
LayerCount: 2
Fore
SplineSet
102 1102 m 256
 66 1134 62 1189 94 1225 c 256
 211 1358 427 1434 622 1434 c 256
 944 1434 1164 1172 1164 862 c 256
 1164 550 878 320 560 320 c 256
 452 320 338 346 228 406 c 256
 186 429 170 483 194 525 c 256
 218 567 270 583 312 560 c 256
 394 514 480 494 560 494 c 256
 800 494 990 668 990 862 c 256
 990 1090 838 1258 622 1258 c 256
 469 1258 295 1188 226 1109 c 256
 194 1073 138 1070 102 1102 c 256
194 527 m 256
 218 568 273 583 314 559 c 258
 1154 76 l 258
 1195 52 1210 -3 1186 -44 c 256
 1162 -85 1107 -100 1066 -76 c 258
 226 407 l 258
 185 431 170 486 194 527 c 256
358 1331 m 256
 406 1328 443 1287 440 1239 c 258
 369 -5 l 258
 366 -53 325 -90 277 -87 c 256
 229 -84 192 -43 195 5 c 258
 266 1249 l 258
 269 1297 310 1334 358 1331 c 256
EndSplineSet
EndChar

StartChar: S
Encoding: 83 83 50
Width: 1182
GlyphClass: 2
Flags: HW
LayerCount: 2
Fore
SplineSet
1037 1217 m 256
 1013 1175 960 1160 918 1184 c 256
 830 1233 726 1258 619 1258 c 256
 407 1258 252 1144 252 996 c 256
 252 872 381 819 608 750 c 256
 806 690 1110 613 1110 343 c 256
 1110 49 822 -72 578 -72 c 256
 408 -72 238 -34 118 32 c 256
 76 56 60 108 84 150 c 256
 108 192 161 208 203 184 c 256
 285 138 436 102 578 102 c 256
 788 102 934 199 934 329 c 256
 934 447 794 510 556 582 c 256
 364 640 78 716 78 996 c 256
 78 1286 361 1434 619 1434 c 256
 754 1434 888 1401 1004 1336 c 256
 1046 1312 1061 1259 1037 1217 c 256
EndSplineSet
EndChar

StartChar: T
Encoding: 84 84 51
Width: 1423
GlyphClass: 2
Flags: HW
LayerCount: 2
Fore
SplineSet
711 -84 m 256
 663 -86 623 -48 621 0 c 256
 615 184 610 367 610 551 c 256
 610 804 617 1051 629 1300 c 256
 631 1348 672 1384 720 1382 c 256
 768 1380 806 1338 804 1290 c 256
 792 1043 786 802 786 551 c 256
 786 369 789 188 795 6 c 256
 797 -42 759 -82 711 -84 c 256
73 1318 m 256
 73 1366 114 1403 162 1403 c 258
 1264 1384 l 258
 1312 1384 1350 1344 1350 1296 c 256
 1350 1248 1310 1210 1262 1210 c 258
 158 1229 l 258
 110 1229 73 1270 73 1318 c 256
EndSplineSet
EndChar

StartChar: U
Encoding: 85 85 60
Width: 1310
GlyphClass: 2
Flags: HW
LayerCount: 2
Fore
SplineSet
292 1420 m 256
 338 1410 370 1362 360 1316 c 256
 318 1126 288 942 288 734 c 256
 288 361 361 102 631 102 c 256
 970 102 1022 634 1022 1095 c 256
 1022 1181 1019 1270 1015 1357 c 256
 1013 1405 1050 1446 1098 1448 c 256
 1146 1450 1188 1413 1190 1365 c 256
 1194 1278 1198 1187 1198 1095 c 256
 1198 702 1181 -72 631 -72 c 256
 183 -72 112 379 112 734 c 256
 112 960 146 1156 188 1352 c 256
 198 1398 246 1430 292 1420 c 256
EndSplineSet
EndChar

StartChar: V
Encoding: 86 86 65
Width: 1368
GlyphClass: 2
Flags: HW
LayerCount: 2
Fore
SplineSet
131 1399 m 256
 176 1415 227 1390 243 1345 c 258
 613 275 l 257
 1129 1354 l 258
 1149 1397 1203 1415 1246 1395 c 256
 1289 1375 1307 1321 1287 1278 c 258
 679 7 l 258
 672 -9 655 -27 635 -35 c 256
 589 -55 533 -32 517 16 c 258
 77 1287 l 258
 61 1332 86 1383 131 1399 c 256
EndSplineSet
EndChar

StartChar: W
Encoding: 87 87 66
Width: 2006
GlyphClass: 2
Flags: HW
LayerCount: 2
Fore
SplineSet
135 1433 m 256
 181 1447 230 1420 244 1374 c 258
 567 303 l 257
 950 1213 l 258
 970 1259 1026 1281 1070 1257 c 256
 1090 1247 1107 1227 1113 1208 c 258
 1415 317 l 257
 1763 1344 l 258
 1779 1389 1829 1415 1874 1399 c 256
 1919 1383 1945 1333 1929 1288 c 258
 1498 16 l 258
 1491 -6 1473 -26 1450 -36 c 256
 1404 -56 1348 -32 1332 16 c 258
 1021 932 l 257
 634 11 l 258
 626 -7 606 -27 584 -36 c 256
 538 -54 483 -28 469 20 c 258
 76 1324 l 258
 62 1370 89 1419 135 1433 c 256
EndSplineSet
EndChar

StartChar: X
Encoding: 88 88 67
Width: 1267
GlyphClass: 2
Flags: HW
LayerCount: 2
Fore
SplineSet
110 -72 m 256
 70 -46 62 10 88 50 c 258
 998 1388 l 258
 1024 1428 1080 1436 1120 1410 c 256
 1160 1384 1168 1328 1142 1288 c 258
 232 -50 l 258
 206 -90 150 -98 110 -72 c 256
152 1348 m 256
 191 1375 246 1367 274 1328 c 258
 1178 46 l 258
 1205 7 1197 -48 1158 -76 c 256
 1119 -104 1063 -93 1036 -54 c 258
 132 1226 l 258
 104 1265 113 1321 152 1348 c 256
EndSplineSet
EndChar

StartChar: Y
Encoding: 89 89 68
Width: 1267
GlyphClass: 2
Flags: HW
LayerCount: 2
Fore
SplineSet
110 1358 m 256
 149 1386 203 1377 231 1338 c 258
 624 786 l 257
 1035 1388 l 258
 1061 1428 1116 1436 1156 1410 c 256
 1196 1384 1205 1328 1179 1288 c 258
 697 584 l 258
 693 578 687 571 681 566 c 256
 643 534 583 541 554 582 c 258
 89 1236 l 258
 61 1275 71 1330 110 1358 c 256
638 -87 m 256
 590 -87 549 -50 549 -2 c 258
 538 632 l 258
 538 680 576 720 624 720 c 256
 672 720 712 682 712 634 c 258
 723 2 l 258
 723 -46 686 -87 638 -87 c 256
EndSplineSet
EndChar

StartChar: Z
Encoding: 90 90 70
Width: 1422
GlyphClass: 2
Flags: HW
LayerCount: 2
Fore
SplineSet
75 1249 m 256
 63 1295 93 1343 139 1355 c 256
 450 1433 918 1444 1188 1380 c 256
 1262 1364 1285 1281 1236 1232 c 256
 902 898 610 517 376 151 c 257
 664 179 952 192 1262 192 c 256
 1310 192 1350 152 1350 104 c 256
 1350 56 1310 16 1262 16 c 256
 893 16 556 -2 216 -40 c 256
 140 -48 97 35 131 92 c 256
 362 472 652 870 992 1230 c 257
 762 1260 407 1241 181 1185 c 256
 135 1173 87 1203 75 1249 c 256
EndSplineSet
EndChar

StartChar: a
Encoding: 97 97 71
Width: 1269
GlyphClass: 2
Flags: HW
LayerCount: 2
Fore
SplineSet
521 102 m 256
 733 102 829 292 862 531 c 258
 926 998 l 258
 932 1045 977 1078 1024 1072 c 256
 1071 1066 1106 1021 1100 974 c 258
 1036 507 l 258
 1001 256 875 -72 521 -72 c 256
 223 -72 72 173 72 419 c 256
 72 705 273 1088 650 1088 c 256
 760 1088 843 1049 893 1015 c 256
 933 989 943 933 917 893 c 256
 891 853 835 843 795 869 c 256
 765 889 716 914 650 914 c 256
 413 914 248 649 248 419 c 256
 248 235 341 102 521 102 c 256
1024 1072 m 256
 1071 1066 1106 1021 1100 974 c 258
 1028 452 l 258
 1021 399 1016 349 1016 293 c 256
 1016 196 1030 132 1113 132 c 256
 1157 132 1197 93 1197 45 c 256
 1197 -3 1157 -42 1109 -42 c 256
 903 -42 842 141 842 293 c 256
 842 359 846 416 854 474 c 258
 926 998 l 258
 932 1045 977 1078 1024 1072 c 256
EndSplineSet
EndChar

StartChar: acute
Encoding: 180 180 74
Width: 522
GlyphClass: 2
Flags: HW
LayerCount: 2
Fore
SplineSet
393 1520 m 256
 414 1503 418 1470 401 1450 c 256
 326 1356 262 1270 206 1148 c 256
 195 1124 164 1112 140 1123 c 256
 116 1133 103 1165 114 1190 c 256
 174 1324 247 1418 322 1512 c 256
 339 1533 373 1536 393 1520 c 256
EndSplineSet
EndChar

StartChar: ae
Encoding: 230 230 76
Width: 1885
GlyphClass: 2
Flags: HW
LayerCount: 2
Fore
SplineSet
529 -72 m 256
 251 -72 72 166 72 419 c 256
 72 700 266 1088 604 1088 c 256
 710 1088 813 1048 891 980 c 256
 927 948 930 892 898 856 c 256
 866 820 812 816 776 848 c 256
 731 888 664 914 604 914 c 256
 418 914 248 654 248 419 c 256
 248 242 365 102 529 102 c 256
 746 102 843 298 880 490 c 256
 904 616 935 835 952 966 c 256
 958 1013 1002 1048 1049 1042 c 256
 1096 1036 1130 991 1124 944 c 256
 1107 811 1078 592 1052 458 c 256
 1013 254 883 -72 529 -72 c 256
1781 784 m 256
 1781 462 1341 372 1153 372 c 256
 1089 372 1032 378 966 386 c 256
 919 392 884 435 890 482 c 256
 896 529 941 564 988 558 c 256
 1050 550 1096 548 1153 548 c 256
 1347 548 1606 659 1606 784 c 256
 1606 848 1537 914 1457 914 c 256
 1237 914 1054 671 1054 419 c 256
 1054 197 1181 102 1372 102 c 256
 1482 102 1604 144 1680 212 c 256
 1716 244 1772 242 1804 206 c 256
 1836 170 1834 114 1798 82 c 256
 1682 -24 1520 -72 1372 -72 c 256
 1103 -72 880 99 880 419 c 256
 880 733 1105 1088 1457 1088 c 256
 1619 1088 1781 964 1781 784 c 256
EndSplineSet
EndChar

StartChar: ampersand
Encoding: 38 38 78
Width: 1374
GlyphClass: 2
Flags: HW
LayerCount: 2
Fore
SplineSet
659 1448 m 256
 840 1448 1040 1327 1040 1095 c 256
 1040 813 800 713 632 644 c 256
 445 568 333 489 333 341 c 256
 333 176 468 102 639 102 c 256
 813 102 988 185 1038 281 c 256
 1060 323 1114 339 1156 317 c 256
 1198 295 1214 241 1192 199 c 256
 1094 15 851 -72 639 -72 c 256
 404 -72 157 69 157 354 c 256
 157 628 394 736 564 806 c 256
 750 883 866 941 866 1095 c 256
 866 1205 774 1274 659 1274 c 256
 541 1274 434 1200 434 1063 c 256
 434 768 909 326 1188 104 c 256
 1225 74 1232 17 1202 -20 c 256
 1172 -57 1117 -64 1080 -34 c 256
 809 180 260 638 260 1063 c 256
 260 1316 469 1448 659 1448 c 256
EndSplineSet
EndChar

StartChar: asciicircum
Encoding: 94 94 80
Width: 718
GlyphClass: 2
Flags: HW
LayerCount: 2
Fore
SplineSet
154 1126 m 256
 132 1140 124 1173 138 1196 c 258
 304 1464 l 258
 320 1490 369 1490 385 1469 c 258
 577 1228 l 258
 593 1208 590 1175 569 1158 c 256
 549 1142 515 1145 499 1166 c 258
 350 1352 l 257
 222 1142 l 258
 208 1120 177 1112 154 1126 c 256
EndSplineSet
EndChar

StartChar: asciitilde
Encoding: 126 126 81
Width: 870
GlyphClass: 2
Flags: HW
LayerCount: 2
Fore
SplineSet
100 1104 m 256
 74 1112 59 1142 67 1167 c 256
 98 1260 167 1340 279 1340 c 256
 364 1340 428 1302 482 1264 c 256
 520 1238 554 1222 591 1222 c 256
 657 1222 700 1274 726 1338 c 256
 736 1364 768 1374 792 1364 c 256
 817 1353 828 1322 818 1298 c 256
 770 1187 687 1122 591 1122 c 256
 531 1122 474 1143 420 1184 c 256
 378 1215 340 1241 284 1241 c 256
 216 1241 179 1187 163 1137 c 256
 155 1111 125 1096 100 1104 c 256
EndSplineSet
EndChar

StartChar: asterisk
Encoding: 42 42 82
Width: 1108
GlyphClass: 2
Flags: HW
LayerCount: 2
Fore
SplineSet
962 622 m 256
 936 591 888 586 857 612 c 256
 747 704 632 783 514 851 c 256
 392 923 264 982 132 1032 c 256
 94 1046 74 1090 88 1128 c 256
 102 1166 146 1186 184 1172 c 256
 324 1120 459 1058 589 982 c 256
 713 910 835 826 953 728 c 256
 984 702 988 652 962 622 c 256
144 622 m 256
 118 652 123 702 154 728 c 256
 272 826 394 910 518 982 c 256
 648 1058 784 1120 924 1172 c 256
 962 1186 1005 1166 1019 1128 c 256
 1033 1090 1014 1046 976 1032 c 256
 844 982 716 923 594 851 c 256
 476 783 360 704 250 612 c 256
 219 586 170 591 144 622 c 256
504 1418 m 256
 544 1426 582 1398 590 1358 c 256
 617 1206 630 1059 630 915 c 256
 630 764 614 617 590 470 c 256
 583 430 544 401 504 408 c 256
 464 415 437 454 444 494 c 256
 468 633 478 773 478 915 c 256
 478 1051 469 1190 444 1332 c 256
 436 1372 464 1410 504 1418 c 256
EndSplineSet
EndChar

StartChar: at
Encoding: 64 64 83
Width: 2213
GlyphClass: 2
Flags: HW
LayerCount: 2
Fore
SplineSet
1694 -278 m 256
 1719 -318 1706 -373 1666 -398 c 256
 1510 -496 1326 -552 1129 -552 c 256
 576 -552 112 -168 112 400 c 256
 112 960 596 1482 1162 1482 c 256
 1668 1482 2100 1086 2100 564 c 256
 2100 337 1988 -62 1674 -62 c 256
 1456 -62 1344 182 1344 362 c 256
 1344 395 1346 432 1350 466 c 256
 1356 513 1401 546 1448 540 c 256
 1495 534 1530 489 1524 442 c 256
 1520 416 1520 387 1518 362 c 256
 1506 210 1584 114 1668 114 c 256
 1804 114 1926 345 1926 564 c 256
 1926 984 1578 1308 1162 1308 c 256
 702 1308 288 866 288 400 c 256
 288 -58 656 -378 1129 -378 c 256
 1292 -378 1444 -330 1574 -250 c 256
 1614 -225 1669 -238 1694 -278 c 256
1394 766 m 257
 1316 814 1232 836 1152 836 c 256
 950 836 756 664 756 372 c 256
 756 212 859 102 1021 102 c 256
 1226 102 1324 289 1350 467 c 258
 1394 766 l 257
1576 798 m 258
 1524 441 l 258
 1494 237 1362 -72 1021 -72 c 256
 761 -72 580 122 580 372 c 256
 580 746 842 1012 1152 1012 c 256
 1284 1012 1419 969 1540 882 c 256
 1566 862 1580 828 1576 798 c 258
EndSplineSet
EndChar

StartChar: b
Encoding: 98 98 85
Width: 1163
GlyphClass: 2
Flags: HW
LayerCount: 2
Fore
SplineSet
245 1448 m 256
 293 1446 331 1406 329 1358 c 258
 287 42 l 258
 285 -6 245 -44 197 -42 c 256
 149 -40 111 0 113 48 c 258
 155 1364 l 258
 157 1412 197 1450 245 1448 c 256
196 645 m 256
 152 665 132 716 152 760 c 256
 246 970 414 1088 618 1088 c 256
 964 1088 1090 764 1090 495 c 256
 1090 185 843 -72 515 -72 c 256
 461 -72 405 -66 352 -52 c 256
 306 -40 278 9 290 55 c 256
 302 101 350 130 396 118 c 256
 434 108 475 102 515 102 c 256
 747 102 916 281 916 495 c 256
 916 734 818 914 618 914 c 256
 488 914 384 850 312 690 c 256
 292 646 240 625 196 645 c 256
EndSplineSet
EndChar

StartChar: backslash
Encoding: 92 92 86
Width: 1105
GlyphClass: 2
Flags: HW
LayerCount: 2
Fore
SplineSet
128 1386 m 256
 166 1414 222 1406 250 1368 c 256
 564 946 813 585 1008 29 c 256
 1024 -16 999 -67 954 -83 c 256
 909 -99 858 -74 842 -29 c 256
 655 505 422 844 110 1264 c 256
 82 1302 90 1358 128 1386 c 256
EndSplineSet
EndChar

StartChar: bar
Encoding: 124 124 87
Width: 417
GlyphClass: 2
Flags: HW
LayerCount: 2
Fore
SplineSet
217 1546 m 256
 265 1546 304 1507 304 1459 c 256
 304 1039 295 366 288 -2 c 256
 287 -50 246 -88 198 -87 c 256
 150 -86 112 -46 113 2 c 256
 120 368 130 1041 130 1459 c 256
 130 1507 169 1546 217 1546 c 256
EndSplineSet
EndChar

StartChar: braceleft
Encoding: 123 123 88
Width: 695
GlyphClass: 2
Flags: HW
LayerCount: 2
Fore
SplineSet
12 752 m 256
 12 800 52 840 100 840 c 256
 334 840 37 1498 495 1498 c 256
 543 1498 583 1459 583 1411 c 256
 583 1363 543 1324 495 1324 c 256
 229 1324 556 664 100 664 c 256
 52 664 12 704 12 752 c 256
582 93 m 256
 582 45 543 6 495 6 c 256
 39 6 326 664 100 664 c 256
 52 664 13 704 13 752 c 256
 13 800 52 840 100 840 c 256
 552 840 219 180 495 180 c 256
 543 180 582 141 582 93 c 256
EndSplineSet
EndChar

StartChar: braceright
Encoding: 125 125 89
Width: 695
GlyphClass: 2
Flags: HW
LayerCount: 2
Fore
SplineSet
112 1411 m 256
 112 1459 152 1498 200 1498 c 256
 656 1498 369 840 595 840 c 256
 643 840 682 800 682 752 c 256
 682 704 643 664 595 664 c 256
 143 664 476 1324 200 1324 c 256
 152 1324 112 1363 112 1411 c 256
682 752 m 256
 682 704 643 664 595 664 c 256
 361 664 658 6 200 6 c 256
 152 6 112 45 112 93 c 256
 112 141 152 180 200 180 c 256
 466 180 139 840 595 840 c 256
 643 840 682 800 682 752 c 256
EndSplineSet
PairPos2: "'kern' Horizontal Kerning in Arabic lookup 2 per glyph data 0" uni0622 dx=300 dy=0 dh=300 dv=0 dx=0 dy=0 dh=0 dv=0
EndChar

StartChar: bracketleft
Encoding: 91 91 90
Width: 715
GlyphClass: 2
Flags: HW
LayerCount: 2
Fore
SplineSet
602 1328 m 256
 606 1280 570 1238 522 1234 c 256
 483 1231 444 1229 404 1229 c 256
 369 1229 334 1228 300 1230 c 257
 308 1143 312 1058 312 972 c 256
 312 826 304 682 296 544 c 256
 288 413 288 390 288 266 c 256
 288 155 354 139 514 132 c 256
 562 130 600 89 598 41 c 256
 596 -7 554 -44 506 -42 c 256
 294 -32 112 24 112 266 c 256
 112 388 113 423 121 554 c 256
 129 692 136 832 136 972 c 256
 136 1085 132 1197 118 1310 c 256
 114 1348 146 1413 210 1408 c 256
 260 1404 309 1404 361 1404 c 256
 413 1404 462 1404 508 1408 c 256
 556 1412 598 1376 602 1328 c 256
EndSplineSet
EndChar

StartChar: bracketright
Encoding: 93 93 91
Width: 726
GlyphClass: 2
Flags: HW
LayerCount: 2
Fore
SplineSet
114 1357 m 256
 121 1404 167 1437 214 1430 c 256
 305 1416 410 1405 512 1403 c 256
 569 1402 606 1345 596 1297 c 256
 561 1138 560 1063 560 875 c 256
 560 784 571 690 586 592 c 256
 601 492 614 388 614 285 c 256
 614 16 395 -42 207 -42 c 256
 159 -42 120 -3 120 45 c 256
 120 93 159 132 207 132 c 256
 377 132 438 156 438 285 c 256
 438 374 427 468 412 566 c 256
 397 666 384 770 384 875 c 256
 384 1023 385 1110 406 1234 c 257
 331 1238 254 1246 186 1256 c 256
 139 1263 107 1310 114 1357 c 256
EndSplineSet
PairPos2: "'kern' Horizontal Kerning in Arabic lookup 2 per glyph data 0" uni0622 dx=300 dy=0 dh=300 dv=0 dx=0 dy=0 dh=0 dv=0
EndChar

StartChar: brokenbar
Encoding: 166 166 92
Width: 419
GlyphClass: 2
Flags: HW
LayerCount: 2
Fore
SplineSet
204 1448 m 256
 252 1448 292 1409 292 1361 c 256
 292 1215 291 1058 288 894 c 256
 287 846 246 807 198 808 c 256
 150 809 112 848 113 896 c 256
 116 1058 116 1217 116 1361 c 256
 116 1409 156 1448 204 1448 c 256
220 584 m 256
 268 583 307 544 306 496 c 256
 302 316 296 142 288 -5 c 256
 285 -53 244 -90 196 -87 c 256
 148 -84 111 -43 114 5 c 256
 122 150 128 318 132 498 c 256
 133 546 172 585 220 584 c 256
EndSplineSet
EndChar

StartChar: c
Encoding: 99 99 93
Width: 1031
GlyphClass: 2
Flags: HW
LayerCount: 2
Fore
SplineSet
921 850 m 256
 890 814 834 810 798 841 c 256
 744 888 685 914 611 914 c 256
 408 914 248 649 248 411 c 256
 248 241 316 102 528 102 c 256
 651 102 740 136 826 188 c 256
 866 212 922 199 946 158 c 256
 970 117 956 62 916 38 c 256
 810 -26 685 -72 528 -72 c 256
 194 -72 72 189 72 411 c 256
 72 689 254 1088 611 1088 c 256
 731 1088 832 1042 912 973 c 256
 948 942 952 886 921 850 c 256
EndSplineSet
EndChar

StartChar: cedilla
Encoding: 184 184 95
Width: 717
GlyphClass: 2
Flags: HW
LayerCount: 2
Fore
SplineSet
259 55 m 256
 289 92 345 98 382 68 c 256
 480 -10 644 -185 644 -361 c 256
 644 -519 501 -588 319 -588 c 256
 249 -588 184 -580 136 -566 c 256
 90 -553 63 -503 76 -457 c 256
 89 -411 138 -383 184 -396 c 256
 213 -404 267 -414 319 -414 c 256
 422 -414 467 -385 467 -342 c 256
 467 -269 342 -124 272 -68 c 256
 235 -38 229 18 259 55 c 256
EndSplineSet
EndChar

StartChar: cent
Encoding: 162 162 96
Width: 1031
GlyphClass: 2
Flags: HW
LayerCount: 2
Fore
SplineSet
547 -452 m 256
 499 -452 460 -413 460 -365 c 258
 460 12 l 258
 460 60 499 98 547 98 c 256
 595 98 634 60 634 12 c 258
 634 -365 l 258
 634 -413 595 -452 547 -452 c 256
547 914 m 256
 499 914 460 953 460 1001 c 258
 460 1316 l 258
 460 1364 499 1404 547 1404 c 256
 595 1404 634 1364 634 1316 c 258
 634 1001 l 258
 634 953 595 914 547 914 c 256
EndSplineSet
Refer: 93 99 N 1 0 0 1 0 0 2
EndChar

StartChar: comma
Encoding: 44 44 98
Width: 478
GlyphClass: 2
Flags: HW
LayerCount: 2
Fore
SplineSet
68 -282 m 256
 27 -258 12 -204 36 -163 c 258
 266 233 l 258
 290 274 345 288 386 264 c 256
 427 240 442 186 418 145 c 258
 188 -251 l 258
 164 -292 109 -306 68 -282 c 256
EndSplineSet
EndChar

StartChar: currency
Encoding: 164 164 100
Width: 1109
GlyphClass: 2
Flags: HW
LayerCount: 2
Fore
SplineSet
1016 -21 m 256
 980 -52 924 -48 893 -12 c 258
 774 124 l 258
 743 160 746 217 782 248 c 256
 818 279 875 276 906 240 c 258
 1025 102 l 258
 1056 66 1052 10 1016 -21 c 256
322 784 m 256
 287 752 230 753 198 788 c 258
 86 910 l 258
 54 945 55 1002 90 1034 c 256
 125 1066 182 1065 214 1030 c 258
 328 908 l 258
 360 873 357 816 322 784 c 256
1017 1036 m 256
 1053 1004 1056 948 1024 912 c 258
 924 798 l 258
 892 762 836 758 800 790 c 256
 764 822 760 878 792 914 c 258
 894 1028 l 258
 926 1064 981 1068 1017 1036 c 256
309 220 m 256
 345 188 348 133 316 97 c 258
 216 -14 l 258
 184 -50 128 -52 92 -20 c 256
 56 12 54 68 86 104 c 258
 186 214 l 258
 218 250 273 252 309 220 c 256
EndSplineSet
Refer: 149 111 N 1 0 0 1 0 0 2
EndChar

StartChar: d
Encoding: 100 100 101
Width: 1197
GlyphClass: 2
Flags: HW
LayerCount: 2
Fore
SplineSet
972 1448 m 256
 1020 1447 1058 1407 1057 1359 c 258
 1038 510 l 257
 1038 206 1052 140 1085 100 c 256
 1115 64 1108 7 1072 -23 c 256
 1036 -53 979 -47 949 -10 c 256
 865 92 864 220 864 512 c 257
 883 1363 l 258
 884 1411 924 1449 972 1448 c 256
894 807 m 256
 859 774 804 777 771 812 c 256
 701 887 631 912 567 912 c 256
 385 912 248 699 248 465 c 256
 248 233 357 102 537 102 c 256
 703 102 815 229 867 385 c 256
 882 430 933 455 978 440 c 256
 1023 425 1049 374 1034 329 c 256
 970 136 807 -72 537 -72 c 256
 237 -72 72 175 72 465 c 256
 72 741 237 1086 567 1086 c 256
 683 1086 801 1035 899 930 c 256
 932 895 929 840 894 807 c 256
EndSplineSet
EndChar

StartChar: degree
Encoding: 176 176 102
Width: 830
GlyphClass: 2
Flags: HW
LayerCount: 2
Fore
SplineSet
614 1398 m 256
 614 1502 522 1603 414 1603 c 256
 318 1603 216 1501 216 1391 c 256
 216 1293 305 1205 400 1205 c 256
 517 1205 614 1298 614 1398 c 256
686 1398 m 256
 686 1252 553 1133 400 1133 c 256
 263 1133 144 1253 144 1391 c 256
 144 1539 274 1675 414 1675 c 256
 566 1675 686 1540 686 1398 c 256
EndSplineSet
EndChar

StartChar: dieresis
Encoding: 168 168 103
Width: 688
GlyphClass: 2
Flags: HW
LayerCount: 2
Fore
SplineSet
584 1210 m 256
 584 1156 539 1123 493 1123 c 256
 440 1123 403 1168 403 1210 c 256
 403 1264 439 1304 485 1304 c 256
 541 1304 584 1262 584 1210 c 256
285 1224 m 256
 285 1166 242 1123 184 1123 c 256
 136 1123 104 1170 104 1214 c 256
 104 1264 144 1304 194 1304 c 256
 239 1304 285 1272 285 1224 c 256
EndSplineSet
EndChar

StartChar: dollar
Encoding: 36 36 105
Width: 1182
GlyphClass: 2
Flags: HW
LayerCount: 2
Fore
SplineSet
575 1668 m 256
 602 1668 624 1646 624 1619 c 258
 624 -207 l 258
 624 -235 602 -258 575 -258 c 256
 548 -258 526 -235 526 -207 c 258
 526 1619 l 258
 526 1646 548 1668 575 1668 c 256
EndSplineSet
Refer: 50 83 N 1 0 0 1 0 0 2
EndChar

StartChar: dotlessi
Encoding: 305 305 106
Width: 415
GlyphClass: 2
Flags: HW
LayerCount: 2
Fore
SplineSet
219 1058 m 256
 267 1056 304 1015 302 967 c 256
 291 736 288 209 288 0 c 256
 288 -48 248 -87 200 -87 c 256
 152 -87 113 -48 113 0 c 256
 113 211 117 736 128 975 c 256
 130 1023 171 1060 219 1058 c 256
EndSplineSet
EndChar

StartChar: e
Encoding: 101 101 107
Width: 1131
GlyphClass: 2
Flags: HW
LayerCount: 2
Fore
SplineSet
703 914 m 256
 480 914 302 688 302 440 c 256
 302 174 426 102 620 102 c 256
 738 102 850 130 922 196 c 256
 958 228 1014 226 1046 190 c 256
 1078 154 1076 98 1040 66 c 256
 920 -42 760 -72 620 -72 c 256
 354 -72 128 82 128 440 c 256
 128 758 354 1088 703 1088 c 256
 853 1088 1026 993 1026 805 c 256
 1026 638 886 529 812 485 c 256
 614 367 387 296 156 280 c 256
 108 276 67 313 63 361 c 256
 59 409 96 450 144 454 c 256
 347 468 548 531 724 635 c 256
 798 679 852 734 852 800 c 256
 852 872 786 914 703 914 c 256
EndSplineSet
EndChar

StartChar: eight
Encoding: 56 56 112
Width: 1079
GlyphClass: 2
Flags: HW
LayerCount: 2
Fore
SplineSet
485 735 m 256
 651 669 894 534 894 295 c 256
 894 83 707 -72 488 -72 c 256
 262 -72 76 89 76 324 c 256
 76 702 594 1048 884 1174 c 256
 928 1193 981 1174 1000 1130 c 256
 1019 1086 1000 1029 954 1014 c 256
 668 907 252 560 252 324 c 256
 252 191 346 102 488 102 c 256
 629 102 718 195 718 295 c 256
 718 398 585 507 421 573 c 256
 275 631 72 794 72 1024 c 256
 72 1254 256 1434 514 1434 c 256
 752 1434 896 1274 978 1060 c 256
 995 1016 971 965 927 948 c 256
 883 931 830 954 814 998 c 256
 744 1182 655 1258 512 1258 c 256
 337 1258 248 1152 248 1024 c 256
 248 904 377 778 485 735 c 256
EndSplineSet
EndChar

StartChar: equal
Encoding: 61 61 114
Width: 1037
GlyphClass: 2
Flags: HW
LayerCount: 2
Fore
SplineSet
98 881 m 256
 101 914 132 940 166 937 c 256
 277 927 466 923 557 923 c 256
 665 923 780 929 872 937 c 256
 905 940 937 914 940 880 c 256
 943 846 916 816 883 813 c 256
 788 805 671 799 557 799 c 256
 463 799 273 803 154 813 c 256
 121 816 95 847 98 881 c 256
98 482 m 256
 105 516 140 538 172 532 c 256
 216 524 395 519 498 519 c 256
 602 519 744 523 872 533 c 256
 906 536 937 510 940 476 c 256
 943 442 916 412 882 409 c 256
 750 399 607 393 498 393 c 256
 389 393 218 396 148 410 c 256
 115 417 92 450 98 482 c 256
EndSplineSet
EndChar

StartChar: eth
Encoding: 240 240 115
Width: 1089
GlyphClass: 2
Flags: HW
LayerCount: 2
Fore
SplineSet
169 935 m 256
 133 967 131 1023 163 1059 c 256
 283 1192 646 1434 816 1490 c 256
 862 1504 912 1479 926 1433 c 256
 940 1387 915 1336 869 1322 c 256
 755 1286 377 1034 293 941 c 256
 261 905 205 903 169 935 c 256
536 -72 m 256
 204 -72 62 174 62 427 c 256
 62 705 274 942 565 942 c 256
 613 942 652 902 652 854 c 256
 652 806 613 766 565 766 c 256
 376 766 238 617 238 427 c 256
 238 234 316 102 536 102 c 256
 732 102 852 222 852 525 c 256
 852 747 722 1148 226 1338 c 256
 182 1355 159 1407 176 1451 c 256
 193 1495 244 1519 288 1502 c 256
 860 1282 1026 807 1026 525 c 256
 1026 168 848 -72 536 -72 c 256
EndSplineSet
EndChar

StartChar: exclam
Encoding: 33 33 116
Width: 583
GlyphClass: 2
Flags: HW
LayerCount: 2
Fore
SplineSet
238 1448 m 256
 285 1454 330 1419 336 1372 c 256
 372 1102 382 887 382 597 c 256
 382 558 383 515 382 472 c 256
 381 424 342 388 294 388 c 256
 246 388 205 428 206 476 c 256
 207 517 208 558 208 597 c 256
 208 885 200 1092 164 1350 c 256
 158 1397 191 1442 238 1448 c 256
420 85 m 256
 420 33 379 -42 298 -42 c 256
 248 -42 162 -10 162 84 c 256
 162 156 221 216 294 216 c 256
 374 216 420 145 420 85 c 256
EndSplineSet
EndChar

StartChar: f
Encoding: 102 102 118
Width: 773
GlyphClass: 2
Flags: HW
LayerCount: 2
Fore
SplineSet
519 1696 m 256
 584 1696 636 1658 677 1612 c 256
 709 1576 706 1521 670 1489 c 256
 644 1466 616 1460 584 1474 c 256
 565 1493 543 1502 530 1502 c 256
 494 1502 458 1403 450 1301 c 256
 420 961 411 346 411 -4 c 256
 411 -52 371 -91 323 -91 c 256
 275 -91 236 -52 236 -4 c 256
 236 350 244 964 276 1316 c 256
 289 1469 343 1696 519 1696 c 256
73 822 m 256
 69 870 106 912 154 916 c 256
 211 920 262 922 312 922 c 256
 418 922 517 914 623 902 c 256
 670 896 706 853 700 806 c 256
 694 759 650 724 603 730 c 256
 504 742 410 746 312 746 c 256
 262 746 215 746 166 742 c 256
 118 738 77 774 73 822 c 256
EndSplineSet
EndChar

StartChar: five
Encoding: 53 53 119
Width: 1113
GlyphClass: 2
Flags: HW
LayerCount: 2
Fore
SplineSet
1028 1356 m 256
 1038 1310 1008 1262 962 1252 c 256
 884 1235 773 1228 637 1228 c 256
 528 1228 416 1233 334 1243 c 257
 302 926 l 257
 370 965 444 984 538 984 c 256
 772 984 1040 842 1040 470 c 256
 1040 128 780 -72 496 -72 c 256
 359 -72 220 -27 106 64 c 256
 69 94 62 149 92 186 c 256
 122 223 177 230 214 200 c 256
 296 135 397 102 496 102 c 256
 700 102 866 230 866 470 c 256
 866 718 712 808 518 808 c 256
 428 808 334 776 258 708 c 256
 244 696 221 687 198 687 c 256
 148 688 107 732 112 782 c 258
 168 1350 l 258
 172 1394 218 1437 272 1426 c 256
 344 1412 496 1404 637 1404 c 256
 767 1404 870 1411 924 1422 c 256
 970 1432 1018 1402 1028 1356 c 256
EndSplineSet
EndChar

StartChar: four
Encoding: 52 52 120
Width: 1268
GlyphClass: 2
Flags: HW
LayerCount: 2
Fore
SplineSet
755 1397 m 256
 799 1379 821 1327 803 1283 c 256
 701 1031 471 637 317 408 c 257
 566 390 877 414 1088 466 c 256
 1134 477 1182 448 1193 402 c 256
 1204 356 1174 307 1128 296 c 256
 848 228 446 204 148 246 c 256
 140 247 124 252 114 258 c 256
 71 284 60 344 90 384 c 256
 234 578 531 1076 641 1349 c 256
 659 1393 711 1415 755 1397 c 256
824 752 m 256
 871 748 906 703 902 656 c 258
 830 -8 l 258
 824 -55 781 -91 734 -87 c 256
 687 -83 650 -39 656 8 c 258
 728 674 l 258
 732 721 777 756 824 752 c 256
EndSplineSet
EndChar

StartChar: g
Encoding: 103 103 121
Width: 1177
GlyphClass: 2
Flags: HW
LayerCount: 2
Fore
SplineSet
849 908 m 256
 824 868 768 854 728 879 c 256
 696 899 639 914 593 914 c 256
 403 914 256 668 256 420 c 256
 256 188 376 102 524 102 c 256
 738 102 844 296 886 495 c 256
 896 541 943 572 989 562 c 256
 1035 552 1066 505 1056 459 c 256
 1012 242 870 -72 524 -72 c 256
 280 -72 82 106 82 420 c 256
 82 700 245 1088 593 1088 c 256
 667 1088 750 1071 820 1029 c 256
 860 1004 874 948 849 908 c 256
970 1058 m 256
 1018 1060 1059 1023 1061 975 c 256
 1063 925 1064 842 1064 764 c 256
 1064 337 1066 6 978 -224 c 256
 900 -428 695 -528 503 -528 c 256
 352 -528 196 -468 92 -341 c 256
 62 -304 68 -248 105 -218 c 256
 142 -188 198 -194 228 -231 c 256
 292 -310 396 -352 503 -352 c 256
 643 -352 768 -284 814 -162 c 256
 882 16 890 337 890 764 c 256
 890 840 889 923 887 967 c 256
 885 1015 922 1056 970 1058 c 256
EndSplineSet
EndChar

StartChar: germandbls
Encoding: 223 223 122
Width: 1124
GlyphClass: 2
Flags: HW
LayerCount: 2
Fore
SplineSet
561 1434 m 256
 797 1434 920 1226 920 1060 c 256
 920 910 875 830 779 754 c 256
 731 716 698 670 698 626 c 256
 698 582 732 558 778 534 c 256
 883 481 1052 383 1052 182 c 256
 1052 -8 825 -74 672 -74 c 256
 598 -74 519 -61 450 -23 c 256
 408 1 393 54 417 96 c 256
 441 138 480 147 524 131 c 256
 563 113 621 100 673 100 c 256
 769 100 875 134 875 196 c 256
 875 274 794 328 698 378 c 256
 618 420 524 489 524 619 c 256
 524 739 597 831 669 890 c 256
 727 937 744 972 744 1060 c 256
 744 1156 675 1258 561 1258 c 256
 475 1258 398 1206 372 1000 c 256
 334 709 312 370 287 -2 c 256
 283 -50 242 -87 194 -83 c 256
 146 -79 109 -38 113 10 c 256
 138 382 162 723 200 1022 c 256
 235 1291 370 1434 561 1434 c 256
EndSplineSet
EndChar

StartChar: grave
Encoding: 96 96 123
Width: 539
GlyphClass: 2
Flags: HW
LayerCount: 2
Fore
SplineSet
150 1522 m 256
 170 1538 204 1534 220 1513 c 256
 284 1431 357 1296 405 1190 c 256
 416 1166 404 1134 380 1123 c 256
 356 1112 325 1124 314 1148 c 256
 268 1248 194 1382 140 1451 c 256
 124 1472 129 1505 150 1522 c 256
EndSplineSet
EndChar

StartChar: greater
Encoding: 62 62 124
Width: 645
GlyphClass: 2
Flags: HW
LayerCount: 2
Fore
SplineSet
128 1100 m 256
 156 1118 196 1106 214 1078 c 256
 284 962 368 861 466 777 c 256
 494 753 489 702 465 682 c 256
 368 602 283 505 214 383 c 256
 198 353 159 343 129 360 c 256
 99 377 89 415 106 445 c 256
 170 557 246 649 332 731 c 257
 248 815 170 908 106 1014 c 256
 88 1042 100 1082 128 1100 c 256
EndSplineSet
EndChar

StartChar: h
Encoding: 104 104 129
Width: 1126
GlyphClass: 2
Flags: HW
LayerCount: 2
Fore
SplineSet
303 1473 m 256
 351 1469 388 1428 384 1380 c 258
 287 -6 l 258
 283 -54 242 -91 194 -87 c 256
 146 -83 109 -42 113 6 c 258
 210 1392 l 258
 214 1440 255 1477 303 1473 c 256
206 328 m 256
 160 341 133 390 146 436 c 256
 234 750 368 1088 654 1088 c 256
 942 1088 1002 824 1002 626 c 256
 1002 554 996 480 988 414 c 256
 980 351 974 287 974 227 c 256
 974 151 984 86 1006 36 c 256
 1026 -8 1006 -60 962 -80 c 256
 918 -100 866 -80 846 -36 c 256
 810 46 800 139 800 227 c 256
 800 297 806 369 814 436 c 256
 822 498 828 564 828 626 c 256
 828 818 786 912 654 912 c 256
 534 912 408 724 314 388 c 256
 301 342 252 315 206 328 c 256
EndSplineSet
EndChar

StartChar: hyphen
Encoding: 45 45 130
Width: 1037
GlyphClass: 2
Flags: HW
LayerCount: 2
Fore
SplineSet
98 431 m 256
 95 465 120 496 154 499 c 256
 410 521 631 523 877 523 c 256
 911 523 940 495 940 461 c 256
 940 427 911 399 877 399 c 256
 633 399 416 397 166 375 c 256
 132 372 101 398 98 431 c 256
EndSplineSet
EndChar

StartChar: k
Encoding: 107 107 137
Width: 1019
GlyphClass: 2
Flags: HW
LayerCount: 2
Fore
SplineSet
934 -44 m 256
 910 -85 855 -100 814 -76 c 256
 581 61 336 281 164 479 c 256
 124 525 148 593 190 615 c 256
 386 714 578 870 706 1026 c 256
 736 1062 794 1069 830 1039 c 256
 866 1009 872 952 842 916 c 256
 719 766 550 622 369 516 c 257
 521 354 724 182 904 76 c 256
 945 52 958 -3 934 -44 c 256
264 1448 m 256
 312 1446 349 1405 347 1357 c 258
 287 0 l 258
 285 -48 244 -85 196 -83 c 256
 148 -81 111 -40 113 8 c 258
 173 1365 l 258
 175 1413 216 1450 264 1448 c 256
EndSplineSet
EndChar

StartChar: l
Encoding: 108 108 138
Width: 419
GlyphClass: 2
Flags: HW
LayerCount: 2
Fore
SplineSet
223 1437 m 256
 271 1435 308 1394 306 1346 c 256
 290 1007 288 394 288 0 c 256
 288 -48 248 -87 200 -87 c 256
 152 -87 113 -48 113 0 c 256
 113 394 116 1007 132 1354 c 256
 134 1402 175 1439 223 1437 c 256
EndSplineSet
EndChar

StartChar: less
Encoding: 60 60 139
Width: 645
GlyphClass: 2
Flags: HW
LayerCount: 2
Fore
SplineSet
518 360 m 256
 490 342 450 352 432 380 c 256
 362 496 276 598 178 682 c 256
 150 706 156 757 180 777 c 256
 277 857 361 955 430 1076 c 256
 447 1105 487 1117 516 1100 c 256
 546 1083 557 1043 540 1014 c 256
 476 902 398 811 312 728 c 257
 396 644 474 552 538 446 c 256
 556 418 546 378 518 360 c 256
EndSplineSet
EndChar

StartChar: logicalnot
Encoding: 172 172 140
Width: 975
GlyphClass: 2
Flags: HW
LayerCount: 2
Fore
SplineSet
62 661 m 256
 62 709 102 748 150 748 c 258
 795 748 l 258
 848 748 882 699 882 661 c 258
 882 388 l 258
 882 340 843 300 795 300 c 256
 747 300 708 340 708 388 c 258
 708 574 l 257
 150 574 l 258
 102 574 62 613 62 661 c 256
EndSplineSet
EndChar

StartChar: m
Encoding: 109 109 141
Width: 1582
GlyphClass: 2
Flags: HW
LayerCount: 2
Fore
SplineSet
200 1074 m 256
 246 1084 294 1052 304 1006 c 256
 322 919 336 806 336 678 c 256
 336 626 333 574 329 518 c 258
 287 1 l 258
 283 -47 241 -83 193 -79 c 256
 145 -75 109 -33 113 15 c 258
 155 532 l 258
 159 582 160 632 160 678 c 256
 160 796 150 899 134 970 c 256
 124 1016 154 1064 200 1074 c 256
236 518 m 256
 189 524 154 569 160 616 c 256
 197 900 361 1088 550 1088 c 256
 879 1088 894 749 894 549 c 256
 894 377 882 163 868 -7 c 256
 864 -54 822 -91 774 -87 c 256
 726 -83 690 -40 694 7 c 256
 708 173 720 385 720 549 c 256
 720 787 693 914 550 914 c 256
 491 914 365 836 334 594 c 256
 328 547 283 512 236 518 c 256
802 435 m 256
 754 438 717 478 720 526 c 256
 734 788 892 1088 1142 1088 c 256
 1400 1088 1464 831 1464 651 c 256
 1464 581 1461 494 1457 406 c 256
 1453 319 1451 233 1451 169 c 256
 1451 113 1456 65 1468 23 c 256
 1480 -23 1452 -72 1406 -84 c 256
 1360 -96 1310 -69 1298 -23 c 256
 1281 39 1275 103 1275 169 c 256
 1275 239 1279 327 1283 414 c 256
 1287 500 1290 585 1290 651 c 256
 1290 823 1236 914 1142 914 c 256
 1050 914 906 750 894 518 c 256
 891 470 850 432 802 435 c 256
EndSplineSet
EndChar

StartChar: mu
Encoding: 181 181 143
Width: 1099
GlyphClass: 2
Flags: HW
LayerCount: 2
Fore
SplineSet
257 -534 m 256
 210 -539 166 -503 161 -456 c 256
 137 -214 112 86 112 367 c 256
 112 607 145 875 192 1039 c 256
 206 1085 254 1113 300 1099 c 256
 346 1085 374 1037 360 991 c 256
 321 853 288 589 288 367 c 256
 288 96 311 -200 335 -438 c 256
 340 -485 304 -529 257 -534 c 256
298 1100 m 256
 344 1088 373 1040 361 994 c 256
 331 878 292 678 292 535 c 256
 292 267 321 102 511 102 c 256
 763 102 797 619 798 1015 c 256
 798 1063 838 1102 886 1102 c 256
 934 1102 973 1063 973 1015 c 256
 972 709 1001 -72 511 -72 c 256
 141 -72 118 299 118 535 c 256
 118 706 159 910 191 1036 c 256
 203 1082 252 1112 298 1100 c 256
890 1102 m 256
 938 1099 975 1058 972 1010 c 256
 964 884 964 710 964 587 c 256
 964 406 968 228 986 57 c 256
 991 10 955 -34 908 -39 c 256
 861 -44 817 -8 812 39 c 256
 794 220 790 404 790 587 c 256
 790 710 790 886 798 1020 c 256
 801 1068 842 1105 890 1102 c 256
EndSplineSet
EndChar

StartChar: multiply
Encoding: 215 215 144
Width: 872
GlyphClass: 2
Flags: HW
LayerCount: 2
Fore
SplineSet
86 960 m 256
 112 1000 166 1014 206 988 c 256
 338 905 488 780 602 666 c 256
 688 580 754 500 790 430 c 256
 811 387 795 334 752 312 c 256
 709 290 655 307 634 350 c 256
 616 388 556 464 478 542 c 256
 372 648 230 767 114 840 c 256
 74 866 60 920 86 960 c 256
138 331 m 256
 101 361 93 417 123 454 c 256
 223 581 326 694 436 804 c 256
 496 864 560 925 624 983 c 256
 660 1015 716 1013 748 977 c 256
 780 941 778 885 742 853 c 256
 678 795 618 740 560 682 c 256
 454 576 357 467 261 346 c 256
 231 309 175 301 138 331 c 256
EndSplineSet
EndChar

StartChar: n
Encoding: 110 110 145
Width: 1126
GlyphClass: 2
Flags: HW
LayerCount: 2
Fore
SplineSet
158 1071 m 256
 194 1101 250 1096 280 1060 c 256
 334 994 340 878 340 746 c 256
 340 522 311 217 288 -9 c 256
 283 -56 238 -92 191 -87 c 256
 144 -82 108 -38 113 9 c 256
 136 235 166 536 166 746 c 256
 166 850 158 933 138 959 c 256
 116 991 124 1043 158 1071 c 256
214 328 m 256
 168 340 140 389 152 435 c 256
 234 739 371 1088 681 1088 c 256
 967 1088 1000 791 1000 609 c 256
 1000 547 996 480 988 414 c 256
 980 350 976 283 976 221 c 256
 976 148 984 86 1006 36 c 256
 1026 -8 1006 -60 962 -80 c 256
 918 -100 866 -80 846 -36 c 256
 810 46 800 136 800 221 c 256
 800 293 806 366 814 436 c 256
 822 497 826 557 826 609 c 256
 826 813 787 912 681 912 c 256
 531 912 410 711 322 389 c 256
 310 343 260 316 214 328 c 256
EndSplineSet
EndChar

StartChar: nine
Encoding: 57 57 146
Width: 1208
GlyphClass: 2
Flags: HW
LayerCount: 2
Fore
SplineSet
556 1400 m 256
 814 1400 1046 1197 1046 795 c 256
 1046 464 876 66 524 -86 c 256
 480 -105 428 -84 409 -40 c 256
 390 4 410 57 454 76 c 256
 718 190 872 514 872 795 c 256
 872 1125 708 1226 556 1226 c 256
 364 1226 248 1071 248 886 c 256
 248 650 393 570 575 570 c 256
 747 570 902 639 988 722 c 256
 1022 756 1079 754 1112 720 c 256
 1145 686 1142 630 1108 596 c 256
 986 479 793 394 575 394 c 256
 331 394 72 540 72 886 c 256
 72 1143 248 1400 556 1400 c 256
EndSplineSet
EndChar

StartChar: numbersign
Encoding: 35 35 148
Width: 1734
GlyphClass: 2
Flags: HW
LayerCount: 2
Fore
SplineSet
73 500 m 256
 75 548 116 585 164 583 c 258
 1514 532 l 258
 1562 530 1599 490 1597 442 c 256
 1595 394 1554 356 1506 358 c 258
 156 409 l 258
 108 411 71 452 73 500 c 256
165 919 m 256
 163 967 201 1007 249 1009 c 258
 1571 1048 l 258
 1619 1050 1659 1012 1661 964 c 256
 1663 916 1625 876 1577 874 c 258
 255 835 l 258
 207 833 167 871 165 919 c 256
1036 -86 m 256
 990 -77 958 -30 967 16 c 258
 1227 1378 l 258
 1236 1424 1284 1456 1330 1447 c 256
 1376 1438 1408 1390 1399 1344 c 258
 1139 -16 l 258
 1130 -62 1082 -95 1036 -86 c 256
363 -84 m 256
 317 -70 290 -21 304 25 c 258
 711 1386 l 258
 725 1432 774 1459 820 1445 c 256
 866 1431 893 1382 879 1336 c 258
 472 -25 l 258
 458 -71 409 -98 363 -84 c 256
EndSplineSet
EndChar

StartChar: o
Encoding: 111 111 149
Width: 1109
GlyphClass: 2
Flags: HW
LayerCount: 2
Fore
SplineSet
567 914 m 256
 370 914 248 724 248 486 c 256
 248 266 376 102 540 102 c 256
 718 102 862 304 862 538 c 256
 862 742 744 914 567 914 c 256
567 1088 m 256
 880 1088 1036 794 1036 538 c 256
 1036 256 862 -72 540 -72 c 256
 244 -72 72 210 72 486 c 256
 72 768 230 1088 567 1088 c 256
EndSplineSet
EndChar

StartChar: one
Encoding: 49 49 155
Width: 715
GlyphClass: 2
Flags: HW
LayerCount: 2
Fore
SplineSet
506 -87 m 256
 458 -87 419 -48 419 0 c 258
 428 1316 l 258
 428 1364 468 1403 516 1403 c 256
 564 1403 602 1364 602 1316 c 258
 593 -0 l 258
 593 -48 554 -87 506 -87 c 256
574 1380 m 256
 609 1348 612 1291 580 1256 c 256
 471 1138 344 1041 199 970 c 256
 156 949 103 966 82 1009 c 256
 61 1052 79 1105 122 1126 c 256
 246 1187 354 1272 450 1376 c 256
 482 1411 539 1412 574 1380 c 256
EndSplineSet
EndChar

StartChar: onehalf
Encoding: 189 189 156
Width: 2060
GlyphClass: 2
Flags: HW
LayerCount: 2
Fore
SplineSet
442 -1 m 256
 418 23 415 64 439 88 c 256
 795 466 1240 1051 1458 1444 c 256
 1475 1474 1514 1484 1543 1468 c 256
 1573 1451 1582 1414 1566 1384 c 256
 1340 976 895 388 531 2 c 256
 507 -23 466 -25 442 -1 c 256
382 458 m 256
 348 460 322 490 324 524 c 258
 386 1472 l 257
 324 1424 258 1376 192 1336 c 256
 162 1318 122 1330 106 1358 c 256
 89 1387 99 1426 128 1443 c 256
 215 1493 304 1562 378 1632 c 256
 386 1640 406 1649 421 1649 c 258
 456 1649 l 258
 491 1649 520 1618 518 1583 c 258
 448 516 l 258
 446 482 416 456 382 458 c 256
1293 307 m 256
 1259 307 1231 336 1231 370 c 256
 1231 574 1371 767 1597 767 c 256
 1799 767 1923 608 1923 424 c 256
 1923 220 1787 59 1620 -86 c 258
 1420 -262 l 257
 1508 -257 1593 -255 1679 -256 c 256
 1753 -257 1830 -261 1904 -265 c 256
 1938 -267 1964 -296 1962 -330 c 256
 1960 -364 1930 -391 1896 -389 c 256
 1798 -384 1698 -381 1604 -381 c 256
 1486 -381 1371 -385 1256 -397 c 256
 1204 -402 1159 -332 1207 -288 c 258
 1494 -28 l 258
 1670 132 1797 274 1797 424 c 256
 1797 558 1711 643 1590 643 c 256
 1446 643 1355 518 1355 370 c 256
 1355 336 1327 307 1293 307 c 256
EndSplineSet
EndChar

StartChar: onequarter
Encoding: 188 188 157
Width: 2006
GlyphClass: 2
Flags: HW
LayerCount: 2
Fore
SplineSet
382 458 m 256
 348 460 322 490 324 524 c 258
 386 1472 l 257
 324 1424 258 1376 192 1336 c 256
 162 1318 122 1330 106 1358 c 256
 89 1387 99 1426 128 1443 c 256
 215 1493 304 1562 378 1632 c 256
 386 1640 406 1649 421 1649 c 258
 456 1649 l 258
 491 1649 520 1618 518 1583 c 258
 448 516 l 258
 446 482 416 456 382 458 c 256
1544 743 m 256
 1576 730 1592 694 1579 662 c 256
 1497 457 1307 138 1183 -50 c 257
 1393 -62 1658 -45 1832 -2 c 256
 1864 6 1898 -16 1906 -48 c 256
 1914 -80 1892 -116 1860 -124 c 256
 1636 -178 1300 -198 1062 -164 c 256
 1056 -164 1044 -160 1038 -156 c 256
 1008 -138 998 -95 1020 -65 c 256
 1136 91 1375 489 1463 708 c 256
 1476 740 1512 756 1544 743 c 256
1609 319 m 256
 1642 316 1668 284 1665 251 c 258
 1604 -374 l 258
 1601 -407 1569 -433 1536 -430 c 256
 1503 -427 1477 -395 1480 -362 c 258
 1541 263 l 258
 1544 296 1576 322 1609 319 c 256
442 -1 m 256
 418 23 415 64 439 88 c 256
 795 466 1240 1052 1458 1444 c 256
 1475 1474 1514 1484 1543 1468 c 256
 1573 1451 1582 1414 1566 1384 c 256
 1340 976 895 388 531 2 c 256
 507 -23 466 -25 442 -1 c 256
EndSplineSet
EndChar

StartChar: ordfeminine
Encoding: 170 170 158
Width: 936
GlyphClass: 2
Flags: HW
LayerCount: 2
Fore
SplineSet
394 932 m 256
 539 932 602 1099 602 1247 c 256
 602 1378 537 1423 437 1423 c 256
 312 1423 216 1308 216 1156 c 256
 216 1019 293 932 394 932 c 256
394 860 m 256
 243 860 144 993 144 1156 c 256
 144 1336 262 1495 437 1495 c 256
 569 1495 674 1416 674 1247 c 256
 674 1095 609 860 394 860 c 256
713 1492 m 256
 731 1484 738 1461 730 1443 c 256
 706 1393 668 1250 668 1134 c 256
 668 1018 703 932 756 932 c 256
 776 932 792 916 792 896 c 256
 792 876 776 860 756 860 c 256
 621 860 596 1030 596 1134 c 256
 596 1264 632 1409 664 1475 c 256
 672 1493 695 1500 713 1492 c 256
EndSplineSet
EndChar

StartChar: oslash
Encoding: 248 248 160
Width: 1144
GlyphClass: 2
Flags: HW
LayerCount: 2
Fore
SplineSet
108 -102 m 256
 85 -87 79 -56 93 -34 c 256
 333 338 705 814 990 1084 c 256
 1009 1102 1042 1101 1060 1081 c 256
 1078 1061 1077 1028 1058 1010 c 256
 778 744 411 276 177 -86 c 256
 162 -109 130 -116 108 -102 c 256
EndSplineSet
Refer: 149 111 N 1 0 0 1 26 0 2
EndChar

StartChar: p
Encoding: 112 112 162
Width: 1187
GlyphClass: 2
Flags: HW
LayerCount: 2
Fore
SplineSet
348 15 m 256
 348 63 388 102 436 102 c 256
 826 102 940 365 940 568 c 256
 940 818 813 914 698 914 c 256
 549 914 334 724 316 288 c 256
 314 240 272 202 224 204 c 256
 176 206 139 246 141 294 c 256
 159 770 405 1088 698 1088 c 256
 933 1088 1114 882 1114 568 c 256
 1114 297 936 -72 436 -72 c 256
 388 -72 348 -33 348 15 c 256
189 -520 m 256
 141 -518 104 -477 106 -429 c 258
 138 258 l 258
 146 388 152 501 152 603 c 256
 152 740 135 866 102 932 c 256
 81 975 98 1029 141 1050 c 256
 184 1071 237 1053 258 1010 c 256
 313 898 328 752 328 603 c 256
 328 494 320 377 312 248 c 258
 280 -437 l 258
 278 -485 237 -522 189 -520 c 256
EndSplineSet
EndChar

StartChar: paragraph
Encoding: 182 182 163
Width: 1319
GlyphClass: 2
Flags: HW
LayerCount: 2
Fore
SplineSet
620 1074 m 256
 650 1074 674 1050 674 1020 c 258
 674 -382 l 258
 674 -412 650 -436 620 -436 c 256
 590 -436 566 -412 566 -382 c 258
 566 1020 l 258
 566 1050 590 1074 620 1074 c 256
923 1014 m 256
 953 1014 974 990 974 960 c 258
 974 -442 l 258
 974 -472 953 -496 923 -496 c 256
 893 -496 872 -472 872 -442 c 258
 872 960 l 258
 872 990 893 1014 923 1014 c 256
1217 1081 m 256
 1181 1050 1124 1053 1093 1089 c 256
 1005 1191 882 1258 715 1258 c 256
 462 1258 248 1057 248 811 c 256
 248 575 486 396 750 396 c 256
 818 396 885 408 949 432 c 256
 993 448 1046 425 1062 381 c 256
 1078 337 1055 284 1011 268 c 256
 927 236 838 220 750 220 c 256
 424 220 72 445 72 811 c 256
 72 1161 372 1434 715 1434 c 256
 934 1434 1107 1339 1225 1205 c 256
 1256 1169 1253 1112 1217 1081 c 256
EndSplineSet
EndChar

StartChar: parenleft
Encoding: 40 40 164
Width: 606
GlyphClass: 2
Flags: HW
LayerCount: 2
Fore
SplineSet
398 1491 m 256
 441 1470 460 1417 439 1374 c 256
 316 1121 288 960 288 682 c 256
 288 415 357 255 485 -8 c 256
 506 -51 487 -104 444 -125 c 256
 401 -146 349 -127 328 -84 c 256
 200 179 112 379 112 682 c 256
 112 974 148 1177 281 1450 c 256
 302 1493 355 1512 398 1491 c 256
EndSplineSet
EndChar

StartChar: parenright
Encoding: 41 41 165
Width: 606
GlyphClass: 2
Flags: HW
LayerCount: 2
Fore
SplineSet
208 -125 m 256
 165 -104 146 -51 167 -8 c 256
 290 245 318 406 318 684 c 256
 318 951 249 1111 121 1374 c 256
 100 1417 119 1470 162 1491 c 256
 205 1512 258 1493 279 1450 c 256
 407 1187 494 987 494 684 c 256
 494 392 458 189 325 -84 c 256
 304 -127 251 -146 208 -125 c 256
EndSplineSet
PairPos2: "'kern' Horizontal Kerning in Arabic lookup 2 per glyph data 0" uni0622 dx=320 dy=0 dh=320 dv=0 dx=0 dy=0 dh=0 dv=0
EndChar

StartChar: period
Encoding: 46 46 167
Width: 478
GlyphClass: 2
Flags: HW
LayerCount: 2
Fore
SplineSet
82 87 m 256
 82 148 136 208 206 208 c 256
 287 208 318 136 318 94 c 256
 318 38 277 -34 201 -34 c 256
 111 -34 82 45 82 87 c 256
EndSplineSet
EndChar

StartChar: plus
Encoding: 43 43 169
Width: 1033
GlyphClass: 2
Flags: HW
LayerCount: 2
Fore
SplineSet
448 1138 m 256
 494 1148 542 1118 552 1072 c 256
 586 920 604 728 604 566 c 256
 604 445 596 341 570 264 c 256
 554 219 503 194 458 210 c 256
 413 226 388 277 404 322 c 256
 417 359 428 455 428 566 c 256
 428 716 412 902 382 1034 c 256
 372 1080 402 1128 448 1138 c 256
74 630 m 256
 68 677 103 722 150 728 c 256
 311 748 463 754 618 754 c 256
 704 754 790 752 877 748 c 256
 925 746 962 705 960 657 c 256
 958 609 917 572 869 574 c 256
 784 578 700 580 618 580 c 256
 469 580 323 572 170 554 c 256
 123 548 80 583 74 630 c 256
EndSplineSet
EndChar

StartChar: q
Encoding: 113 113 171
Width: 1163
GlyphClass: 2
Flags: HW
LayerCount: 2
Fore
SplineSet
834 816 m 256
 797 786 742 793 712 830 c 256
 674 878 616 914 532 914 c 256
 358 914 248 718 248 484 c 256
 248 241 326 102 506 102 c 256
 683 102 786 235 846 429 c 256
 860 475 910 500 956 486 c 256
 1002 472 1028 423 1014 377 c 256
 946 159 797 -74 506 -74 c 256
 180 -74 72 217 72 484 c 256
 72 746 202 1088 532 1088 c 256
 668 1088 778 1028 848 940 c 256
 878 903 871 846 834 816 c 256
970 1064 m 256
 1018 1060 1054 1018 1050 970 c 256
 1028 674 1016 382 1016 87 c 256
 1016 -82 1021 -251 1028 -421 c 256
 1030 -469 992 -510 944 -512 c 256
 896 -514 855 -477 853 -429 c 256
 846 -257 842 -84 842 87 c 256
 842 386 854 686 876 984 c 256
 880 1032 922 1068 970 1064 c 256
EndSplineSet
EndChar

StartChar: question
Encoding: 63 63 172
Width: 1155
GlyphClass: 2
Flags: HW
LayerCount: 2
Fore
SplineSet
337 845 m 256
 295 823 241 841 219 883 c 256
 182 955 162 1027 162 1097 c 256
 162 1315 349 1448 581 1448 c 256
 818 1448 992 1284 992 1058 c 256
 992 884 846 794 740 706 c 256
 648 628 616 592 616 504 c 256
 616 492 618 479 624 464 c 256
 636 428 610 378 564 364 c 256
 518 350 468 374 454 420 c 256
 446 446 442 477 442 504 c 256
 442 650 534 736 640 824 c 256
 756 920 818 977 818 1072 c 256
 818 1184 734 1274 576 1274 c 256
 421 1274 338 1197 338 1097 c 256
 338 1057 348 1015 375 963 c 256
 397 921 379 867 337 845 c 256
662 89 m 256
 662 17 603 -42 530 -42 c 256
 460 -42 398 13 398 89 c 256
 398 163 456 222 530 222 c 256
 605 222 662 159 662 89 c 256
EndSplineSet
EndChar

StartChar: quoteleft
Encoding: 8216 8216 178
Width: 644
GlyphClass: 2
Flags: HW
LayerCount: 2
Fore
SplineSet
335 1378 m 256
 266 1378 216 1332 216 1225 c 256
 216 1081 282 943 376 851 c 256
 390 837 392 814 378 800 c 256
 364 786 340 785 326 799 c 256
 218 903 144 1061 144 1225 c 256
 144 1358 220 1450 335 1450 c 256
 450 1450 500 1351 500 1261 c 256
 500 1172 443 1066 335 1066 c 256
 298 1066 244 1081 218 1129 c 256
 208 1146 215 1168 232 1178 c 256
 249 1188 270 1180 280 1163 c 256
 288 1149 314 1138 335 1138 c 256
 387 1138 428 1194 428 1261 c 256
 428 1329 396 1378 335 1378 c 256
EndSplineSet
EndChar

StartChar: quotesingle
Encoding: 39 39 182
Width: 331
GlyphClass: 2
Flags: HW
LayerCount: 2
Fore
SplineSet
156 874 m 256
 136 876 122 894 124 914 c 256
 131 976 135 1050 135 1126 c 256
 135 1204 131 1286 124 1358 c 256
 122 1378 136 1395 156 1397 c 256
 176 1399 194 1384 196 1364 c 256
 203 1288 207 1206 207 1126 c 256
 207 1048 203 972 196 906 c 256
 194 886 176 872 156 874 c 256
EndSplineSet
EndChar

StartChar: r
Encoding: 114 114 183
Width: 905
GlyphClass: 2
Flags: HW
LayerCount: 2
Fore
SplineSet
831 1008 m 256
 840 962 808 914 762 905 c 256
 384 832 341 491 301 -7 c 256
 297 -55 255 -91 207 -87 c 256
 159 -83 123 -41 127 7 c 256
 165 475 204 976 728 1077 c 256
 774 1086 822 1054 831 1008 c 256
205 -87 m 256
 158 -82 122 -38 127 9 c 256
 141 149 154 347 154 532 c 256
 154 702 140 865 116 946 c 256
 102 992 130 1041 176 1055 c 256
 222 1069 270 1042 284 996 c 256
 318 881 328 712 328 532 c 256
 328 339 317 137 301 -9 c 256
 296 -56 252 -92 205 -87 c 256
EndSplineSet
EndChar

StartChar: s
Encoding: 115 115 185
Width: 980
GlyphClass: 2
Flags: HW
LayerCount: 2
Fore
SplineSet
834 732 m 256
 788 718 739 743 724 789 c 256
 700 863 625 914 507 914 c 256
 389 914 295 835 295 760 c 257
 297 655 399 614 547 577 c 256
 674 545 908 475 908 239 c 256
 908 20 668 -72 488 -72 c 256
 326 -72 164 -14 88 92 c 256
 62 132 72 188 112 214 c 256
 152 240 194 219 232 190 c 256
 274 144 380 102 488 102 c 256
 642 102 732 163 732 237 c 256
 732 326 645 374 505 407 c 256
 378 437 120 500 120 760 c 256
 120 953 317 1090 507 1090 c 256
 681 1090 842 998 892 841 c 256
 906 795 880 746 834 732 c 256
EndSplineSet
EndChar

StartChar: section
Encoding: 167 167 186
Width: 916
GlyphClass: 2
Flags: HW
LayerCount: 2
Fore
SplineSet
556 872 m 256
 556 824 517 784 469 784 c 256
 363 784 247 734 247 670 c 256
 247 594 346 563 452 552 c 256
 595 538 854 450 854 209 c 256
 854 -14 605 -72 457 -72 c 256
 305 -72 184 -16 96 54 c 256
 59 84 52 141 82 178 c 256
 112 215 167 222 204 192 c 256
 270 140 349 102 457 102 c 256
 577 102 678 143 678 221 c 256
 678 312 563 364 434 378 c 256
 298 392 70 451 70 673 c 256
 70 874 307 960 469 960 c 256
 517 960 556 920 556 872 c 256
779 1074 m 256
 733 1064 684 1094 674 1140 c 256
 659 1210 584 1258 472 1258 c 256
 348 1258 246 1182 246 1104 c 256
 246 1009 315 976 478 959 c 256
 618 945 854 885 854 662 c 256
 854 432 582 378 443 378 c 256
 395 378 356 417 356 465 c 256
 356 513 395 552 443 552 c 256
 547 552 678 590 678 664 c 256
 678 740 574 773 460 785 c 256
 312 801 72 844 72 1104 c 256
 72 1313 296 1434 472 1434 c 256
 624 1434 805 1364 846 1178 c 256
 856 1132 825 1084 779 1074 c 256
EndSplineSet
EndChar

StartChar: seven
Encoding: 55 55 188
Width: 1080
GlyphClass: 2
Flags: HW
LayerCount: 2
Fore
SplineSet
73 1260 m 256
 69 1308 106 1348 154 1352 c 258
 908 1401 l 258
 958 1405 1001 1363 1001 1313 c 256
 1001 1299 996 1284 992 1275 c 256
 816 923 702 436 628 -14 c 256
 620 -61 575 -94 528 -86 c 256
 481 -78 448 -33 456 14 c 256
 522 422 621 862 776 1218 c 257
 166 1178 l 258
 118 1174 77 1212 73 1260 c 256
EndSplineSet
EndChar

StartChar: six
Encoding: 54 54 189
Width: 1099
GlyphClass: 2
Flags: HW
LayerCount: 2
Fore
SplineSet
548 102 m 256
 726 102 855 240 852 416 c 256
 848 640 717 724 576 724 c 256
 429 724 274 610 244 560 c 256
 219 520 164 507 124 532 c 256
 84 557 71 612 96 652 c 256
 164 762 357 898 576 898 c 256
 805 898 1020 732 1026 418 c 256
 1031 150 826 -72 548 -72 c 256
 218 -72 72 193 72 475 c 256
 72 904 162 1404 619 1404 c 256
 695 1404 779 1392 869 1365 c 256
 915 1351 942 1302 928 1256 c 256
 914 1210 865 1183 819 1197 c 256
 741 1220 675 1230 619 1230 c 256
 348 1230 248 926 248 475 c 256
 248 243 342 102 548 102 c 256
EndSplineSet
EndChar

StartChar: slash
Encoding: 47 47 190
Width: 965
GlyphClass: 2
Flags: HW
LayerCount: 2
Fore
SplineSet
155 -75 m 256
 115 -51 101 4 125 45 c 256
 393 489 584 921 680 1379 c 256
 690 1425 737 1456 783 1446 c 256
 829 1436 860 1389 850 1343 c 256
 749 861 549 411 275 -45 c 256
 251 -86 195 -99 155 -75 c 256
EndSplineSet
EndChar

StartChar: sterling
Encoding: 163 163 192
Width: 1454
GlyphClass: 2
Flags: HW
LayerCount: 2
Fore
SplineSet
264 700 m 256
 276 746 324 775 370 763 c 256
 432 747 504 740 578 740 c 256
 685 740 794 754 882 771 c 256
 928 780 976 748 985 702 c 256
 994 656 962 608 916 599 c 256
 818 580 699 566 578 566 c 256
 494 566 408 573 328 593 c 256
 282 605 252 654 264 700 c 256
1306 342 m 256
 1356 341 1393 298 1392 253 c 256
 1373 -3 1035 -72 828 -72 c 256
 648 -72 501 -24 387 22 c 257
 343 -6 290 -20 225 -20 c 256
 145 -20 62 19 62 110 c 256
 62 194 151 232 219 232 c 256
 252 232 290 229 330 220 c 257
 391 304 412 474 412 687 c 258
 412 939 l 258
 412 1160 421 1434 622 1434 c 256
 744 1434 814 1352 814 1226 c 256
 814 1148 789 1106 752 1106 c 256
 732 1106 718 1112 710 1120 c 256
 705 1167 680 1190 648 1190 c 256
 598 1190 586 1071 586 939 c 258
 586 687 l 258
 586 508 577 306 505 168 c 257
 595 135 702 102 828 102 c 256
 1051 102 1194 148 1218 271 c 256
 1228 314 1264 343 1306 342 c 256
EndSplineSet
EndChar

StartChar: t
Encoding: 116 116 193
Width: 775
GlyphClass: 2
Flags: HW
LayerCount: 2
Fore
SplineSet
702 809 m 256
 696 762 651 728 604 734 c 256
 536 742 464 746 388 746 c 256
 316 746 241 742 170 734 c 256
 123 728 80 763 74 810 c 256
 68 857 103 900 150 906 c 256
 229 916 308 920 388 920 c 256
 470 920 550 916 626 906 c 256
 673 900 708 856 702 809 c 256
412 1302 m 256
 459 1296 494 1253 488 1206 c 256
 455 922 430 642 430 355 c 256
 430 231 438 102 538 102 c 256
 554 102 574 104 596 108 c 256
 642 117 689 84 698 38 c 256
 707 -8 674 -55 628 -64 c 256
 596 -70 566 -72 538 -72 c 256
 280 -72 256 201 256 355 c 256
 256 652 283 940 316 1226 c 256
 322 1273 365 1308 412 1302 c 256
EndSplineSet
EndChar

StartChar: thorn
Encoding: 254 254 194
Width: 1166
GlyphClass: 2
Flags: HW
LayerCount: 2
Fore
SplineSet
236 1448 m 256
 284 1447 322 1408 321 1360 c 258
 287 -366 l 258
 286 -414 246 -453 198 -452 c 256
 150 -451 112 -412 113 -364 c 258
 147 1362 l 258
 148 1410 188 1449 236 1448 c 256
EndSplineSet
Refer: 149 111 N 1 0 0 1 57 0 2
EndChar

StartChar: three
Encoding: 51 51 195
Width: 1078
GlyphClass: 2
Flags: HW
LayerCount: 2
Fore
SplineSet
206 982 m 256
 160 992 130 1040 140 1086 c 256
 188 1300 366 1434 581 1434 c 256
 777 1434 958 1288 958 1008 c 256
 958 689 591 614 373 584 c 256
 326 578 280 612 274 659 c 256
 268 706 303 752 350 758 c 256
 596 792 782 856 782 1008 c 256
 782 1184 685 1258 574 1258 c 256
 440 1258 340 1182 310 1048 c 256
 300 1002 252 972 206 982 c 256
92 182 m 256
 122 218 180 224 216 194 c 256
 288 135 386 102 484 102 c 256
 679 102 830 229 830 397 c 257
 824 549 713 602 531 602 c 256
 481 602 426 594 376 585 c 256
 329 577 283 610 275 656 c 256
 267 702 299 749 346 757 c 256
 398 766 462 777 532 777 c 256
 751 777 997 696 1006 414 c 257
 1006 136 762 -72 484 -72 c 256
 350 -72 212 -31 104 58 c 256
 68 88 62 146 92 182 c 256
EndSplineSet
EndChar

StartChar: threequarters
Encoding: 190 190 196
Width: 2156
GlyphClass: 2
Flags: HW
LayerCount: 2
Fore
SplineSet
200 1290 m 256
 167 1298 145 1332 153 1365 c 256
 189 1527 339 1621 479 1621 c 256
 622 1621 757 1514 757 1307 c 256
 757 1059 481 989 321 953 c 256
 288 945 254 967 246 1000 c 256
 238 1033 260 1067 293 1075 c 256
 473 1116 633 1178 633 1316 c 256
 633 1439 558 1497 476 1497 c 256
 382 1497 296 1430 275 1337 c 256
 267 1304 233 1282 200 1290 c 256
787 828 m 257
 787 605 602 475 402 475 c 256
 302 475 200 508 120 574 c 256
 94 595 90 636 112 662 c 256
 134 688 174 691 200 670 c 256
 254 625 330 601 402 601 c 256
 548 601 662 679 662 818 c 257
 660 916 580 977 464 977 c 256
 418 977 368 966 322 954 c 256
 290 946 254 966 246 998 c 256
 238 1030 260 1066 292 1074 c 256
 340 1086 398 1103 464 1103 c 256
 625 1103 781 1008 787 828 c 257
592 -1 m 256
 568 23 565 64 589 88 c 256
 945 466 1390 1052 1608 1444 c 256
 1625 1474 1664 1484 1693 1468 c 256
 1723 1451 1732 1414 1716 1384 c 256
 1490 976 1045 388 681 2 c 256
 657 -23 616 -25 592 -1 c 256
1694 743 m 256
 1726 730 1742 694 1729 662 c 256
 1647 457 1457 138 1333 -50 c 257
 1543 -62 1808 -45 1982 -2 c 256
 2014 6 2048 -16 2056 -48 c 256
 2064 -80 2042 -116 2010 -124 c 256
 1786 -178 1450 -198 1212 -164 c 256
 1206 -164 1194 -160 1188 -156 c 256
 1158 -138 1148 -95 1170 -65 c 256
 1286 91 1525 489 1613 708 c 256
 1626 740 1662 756 1694 743 c 256
1759 319 m 256
 1792 316 1818 284 1815 251 c 258
 1754 -374 l 258
 1751 -407 1719 -433 1686 -430 c 256
 1653 -427 1627 -395 1630 -362 c 258
 1691 263 l 258
 1694 296 1726 322 1759 319 c 256
EndSplineSet
EndChar

StartChar: two
Encoding: 50 50 197
Width: 1171
GlyphClass: 2
Flags: HW
LayerCount: 2
Fore
SplineSet
208 816 m 256
 160 816 120 856 120 904 c 256
 120 1174 307 1434 609 1434 c 256
 873 1434 1040 1230 1040 1021 c 256
 1040 757 826 534 596 324 c 258
 400 146 l 257
 476 152 550 154 626 154 c 256
 754 154 885 149 1015 143 c 256
 1063 141 1100 100 1098 52 c 256
 1096 4 1055 -33 1007 -31 c 256
 877 -25 750 -20 626 -20 c 256
 470 -20 320 -26 169 -42 c 256
 145 -44 118 -36 100 -19 c 256
 64 15 64 76 101 110 c 258
 478 454 l 258
 710 666 866 857 866 1021 c 256
 866 1138 775 1258 609 1258 c 256
 425 1258 296 1100 296 904 c 256
 296 856 256 816 208 816 c 256
EndSplineSet
EndChar

StartChar: u
Encoding: 117 117 198
Width: 1103
GlyphClass: 2
Flags: HW
LayerCount: 2
Fore
SplineSet
267 1056 m 256
 313 1046 344 998 334 952 c 256
 311 849 288 621 288 392 c 256
 288 196 334 102 454 102 c 256
 632 102 716 230 768 602 c 256
 774 649 819 682 866 676 c 256
 913 670 946 625 940 578 c 256
 890 212 780 -72 454 -72 c 256
 174 -72 112 192 112 392 c 256
 112 633 135 865 162 990 c 256
 172 1036 221 1066 267 1056 c 256
868 1058 m 256
 916 1055 953 1014 950 966 c 256
 944 858 942 749 942 639 c 256
 942 439 944 282 988 62 c 256
 998 16 966 -30 920 -40 c 256
 874 -50 828 -18 818 28 c 256
 770 264 766 437 766 639 c 256
 766 753 770 866 776 976 c 256
 779 1024 820 1061 868 1058 c 256
EndSplineSet
EndChar

StartChar: underscore
Encoding: 95 95 203
Width: 600
GlyphClass: 2
Flags: HW
LayerCount: 2
Fore
SplineSet
688 45 m 256
 688 -3 648 -42 600 -42 c 258
 0 -42 l 258
 -48 -42 -88 -3 -88 45 c 256
 -88 93 -48 132 0 132 c 258
 600 132 l 258
 648 132 688 93 688 45 c 256
EndSplineSet
EndChar

StartChar: uni00B2
Encoding: 178 178 206
Width: 718
GlyphClass: 2
Flags: HW
LayerCount: 2
Fore
SplineSet
180 1262 m 256
 160 1262 144 1278 144 1298 c 256
 144 1408 220 1513 343 1513 c 256
 451 1513 524 1429 524 1327 c 256
 524 1199 449 1122 363 1040 c 258
 282 962 l 257
 536 976 l 258
 556 978 572 962 574 942 c 256
 576 922 560 906 540 904 c 258
 189 885 l 258
 180 885 170 888 163 894 c 256
 147 908 147 934 162 948 c 258
 313 1094 l 258
 401 1180 452 1229 452 1327 c 256
 452 1393 409 1441 343 1441 c 256
 268 1441 216 1378 216 1298 c 256
 216 1278 200 1262 180 1262 c 256
EndSplineSet
EndChar

StartChar: uni00B3
Encoding: 179 179 207
Width: 664
GlyphClass: 2
Flags: HW
LayerCount: 2
Fore
SplineSet
201 1312 m 256
 182 1316 170 1337 174 1356 c 256
 190 1429 253 1495 343 1495 c 256
 435 1495 504 1415 504 1326 c 256
 504 1197 350 1160 266 1142 c 256
 247 1138 226 1151 222 1170 c 256
 218 1189 232 1208 251 1212 c 256
 348 1232 432 1269 432 1326 c 256
 432 1379 391 1423 343 1423 c 256
 291 1423 254 1385 244 1340 c 256
 240 1321 220 1308 201 1312 c 256
223 1168 m 256
 219 1187 231 1208 250 1212 c 256
 276 1218 309 1225 343 1225 c 256
 430 1225 516 1176 520 1076 c 256
 520 954 418 884 310 884 c 256
 256 884 201 901 158 936 c 256
 143 948 140 972 152 987 c 256
 164 1002 188 1004 203 992 c 256
 231 969 272 956 310 956 c 256
 390 956 448 1003 448 1076 c 256
 446 1124 408 1153 343 1153 c 256
 317 1153 290 1148 266 1142 c 256
 247 1138 227 1149 223 1168 c 256
EndSplineSet
EndChar

StartChar: uni00B9
Encoding: 185 185 208
Width: 526
GlyphClass: 2
Flags: HW
LayerCount: 2
Fore
SplineSet
324 797 m 256
 304 799 288 816 290 836 c 258
 324 1380 l 257
 277 1345 230 1318 174 1296 c 256
 156 1288 134 1298 126 1316 c 256
 118 1334 129 1354 147 1362 c 256
 221 1391 286 1436 342 1486 c 256
 348 1491 358 1495 366 1495 c 256
 387 1495 404 1477 402 1456 c 258
 362 830 l 258
 360 810 344 795 324 797 c 256
EndSplineSet
EndChar

StartChar: uni0237
Encoding: 567 567 209
Width: 404
GlyphClass: 2
Flags: HW
LayerCount: 2
Fore
SplineSet
201 1058 m 256
 249 1058 288 1019 288 971 c 256
 288 664 287 418 280 222 c 256
 264 -213 223 -502 -50 -502 c 256
 -98 -502 -137 -462 -137 -414 c 256
 -137 -366 -98 -326 -50 -326 c 256
 59 -326 92 -176 106 228 c 256
 113 420 114 664 114 971 c 256
 114 1019 153 1058 201 1058 c 256
EndSplineSet
EndChar

StartChar: uni060C
Encoding: 1548 1548 210
Width: 644
GlyphClass: 2
Flags: HW
LayerCount: 2
Fore
SplineSet
335 -21 m 256
 220 -21 144 71 144 204 c 256
 144 368 218 526 326 630 c 256
 340 644 364 643 378 629 c 256
 392 615 390 592 376 578 c 256
 282 486 216 348 216 204 c 256
 216 97 266 51 335 51 c 256
 396 51 428 100 428 168 c 256
 428 235 387 291 335 291 c 256
 314 291 288 280 280 266 c 256
 270 249 249 242 232 252 c 256
 215 262 208 283 218 300 c 256
 244 348 298 363 335 363 c 256
 443 363 500 257 500 168 c 256
 500 78 450 -21 335 -21 c 256
EndSplineSet
EndChar

StartChar: uni061F
Encoding: 1567 1567 213
Width: 1105
GlyphClass: 2
Flags: HW
LayerCount: 2
Fore
SplineSet
774 833 m 256
 733 857 718 912 742 952 c 256
 752 970 768 1024 768 1066 c 256
 768 1166 703 1228 617 1228 c 256
 437 1228 338 1080 338 989 c 256
 338 932 402 873 480 809 c 256
 582 725 680 627 682 473 c 256
 682 423 644 384 596 384 c 256
 544 384 508 421 507 469 c 256
 505 541 469 597 366 677 c 256
 287 739 162 837 162 983 c 256
 162 1171 333 1404 617 1404 c 256
 803 1404 942 1252 942 1066 c 256
 942 991 926 918 894 864 c 256
 870 823 815 809 774 833 c 256
456 89 m 256
 456 159 511 222 587 222 c 256
 661 222 720 163 720 89 c 256
 720 14 657 -42 587 -42 c 256
 515 -42 456 16 456 89 c 256
EndSplineSet
EndChar

StartChar: uni0660
Encoding: 1632 1632 265
Width: 737
GlyphClass: 2
Flags: HW
LayerCount: 2
Fore
SplineSet
225 395 m 256
 225 319 296 245 380 245 c 256
 446 245 512 314 512 404 c 256
 512 483 462 534 392 534 c 256
 294 534 225 465 225 395 c 256
95 395 m 256
 95 553 238 664 392 664 c 256
 538 664 642 545 642 404 c 256
 642 256 534 115 380 115 c 256
 224 115 95 243 95 395 c 256
EndSplineSet
EndChar

StartChar: uni0661
Encoding: 1633 1633 266
Width: 580
GlyphClass: 2
Flags: HW
LayerCount: 2
Fore
SplineSet
152 1254 m 256
 197 1270 247 1245 263 1200 c 256
 409 776 488 494 488 0 c 256
 488 -48 448 -87 400 -87 c 256
 352 -87 313 -48 313 0 c 256
 313 474 241 720 97 1142 c 256
 81 1187 107 1238 152 1254 c 256
EndSplineSet
EndChar

StartChar: uni0662
Encoding: 1634 1634 267
Width: 1014
GlyphClass: 2
Flags: HW
LayerCount: 2
Fore
SplineSet
854 1284 m 256
 902 1284 942 1244 942 1196 c 256
 942 910 859 582 578 582 c 256
 282 582 159 970 98 1134 c 256
 82 1178 106 1230 150 1246 c 256
 194 1262 244 1240 262 1196 c 256
 364 935 442 756 572 756 c 256
 694 756 766 897 766 1196 c 256
 766 1244 806 1284 854 1284 c 256
146 1246 m 256
 190 1264 242 1243 260 1199 c 256
 406 849 539 466 539 0 c 256
 539 -48 499 -87 451 -87 c 256
 403 -87 364 -48 364 0 c 256
 364 432 243 787 100 1131 c 256
 82 1175 102 1228 146 1246 c 256
EndSplineSet
EndChar

StartChar: uni0663
Encoding: 1635 1635 268
Width: 1285
GlyphClass: 2
Flags: HW
LayerCount: 2
Fore
SplineSet
1106 1303 m 256
 1153 1307 1196 1271 1200 1223 c 256
 1206 1157 1209 1098 1209 1040 c 256
 1209 816 1160 580 940 580 c 256
 670 580 623 886 623 1166 c 256
 623 1214 652 1253 700 1253 c 256
 748 1253 788 1214 788 1166 c 256
 788 872 829 756 927 756 c 256
 1004 756 1036 846 1036 1008 c 256
 1036 1066 1032 1135 1026 1209 c 256
 1022 1257 1059 1299 1106 1303 c 256
700 1254 m 256
 748 1254 786 1214 787 1166 c 256
 789 892 785 580 509 580 c 256
 273 580 212 803 98 1131 c 256
 82 1176 106 1227 151 1243 c 256
 196 1259 247 1234 263 1189 c 256
 389 824 428 756 506 756 c 256
 604 756 623 859 623 1166 c 256
 623 1214 652 1254 700 1254 c 256
151 1243 m 256
 196 1259 247 1234 263 1189 c 256
 402 789 497 450 497 0 c 256
 497 -48 457 -87 409 -87 c 256
 361 -87 322 -48 322 0 c 256
 322 424 235 735 97 1131 c 256
 81 1176 106 1227 151 1243 c 256
EndSplineSet
EndChar

StartChar: uni0664
Encoding: 1636 1636 269
Width: 1037
GlyphClass: 2
Flags: HW
LayerCount: 2
Fore
SplineSet
738 1182 m 256
 738 1134 698 1094 650 1094 c 256
 460 1094 272 1018 272 905 c 256
 272 798 416 694 536 664 c 256
 582 652 612 604 600 558 c 256
 588 512 540 482 494 494 c 256
 342 532 96 679 96 905 c 256
 96 1195 466 1270 650 1270 c 256
 698 1270 738 1230 738 1182 c 256
596 611 m 256
 614 567 591 516 547 498 c 256
 397 439 248 324 248 226 c 256
 248 126 370 102 560 102 c 256
 667 102 776 122 842 150 c 256
 886 169 939 148 958 104 c 256
 977 60 956 9 912 -10 c 256
 814 -52 687 -72 537 -72 c 256
 321 -72 72 -29 72 211 c 256
 72 437 319 595 483 660 c 256
 527 678 578 655 596 611 c 256
EndSplineSet
EndChar

StartChar: uni0665
Encoding: 1637 1637 270
Width: 1150
GlyphClass: 2
Flags: HW
LayerCount: 2
Fore
SplineSet
583 -72 m 256
 309 -72 72 68 72 348 c 256
 72 682 391 967 559 1103 c 256
 596 1133 652 1127 682 1090 c 256
 712 1053 707 997 670 967 c 256
 503 831 248 572 248 348 c 256
 248 196 357 102 583 102 c 256
 797 102 902 182 902 332 c 256
 902 618 531 923 262 1115 c 256
 223 1143 213 1197 241 1236 c 256
 269 1275 323 1285 362 1257 c 256
 619 1075 1078 746 1078 332 c 256
 1078 50 837 -72 583 -72 c 256
EndSplineSet
EndChar

StartChar: uni0666
Encoding: 1638 1638 271
Width: 1136
GlyphClass: 2
Flags: HW
LayerCount: 2
Fore
SplineSet
74 1142 m 256
 66 1189 99 1234 146 1242 c 256
 236 1257 324 1264 412 1264 c 256
 670 1264 890 1167 890 856 c 256
 890 416 908 312 1036 36 c 256
 1056 -8 1037 -60 993 -80 c 256
 949 -100 896 -80 876 -36 c 256
 740 256 714 416 714 856 c 256
 714 1047 636 1088 412 1088 c 256
 332 1088 252 1083 174 1070 c 256
 127 1062 82 1095 74 1142 c 256
EndSplineSet
EndChar

StartChar: uni0667
Encoding: 1639 1639 272
Width: 1158
GlyphClass: 2
Flags: HW
LayerCount: 2
Fore
SplineSet
114 1240 m 256
 154 1266 208 1252 234 1212 c 256
 397 954 521 735 593 423 c 257
 659 741 770 971 922 1240 c 256
 946 1282 1000 1297 1042 1273 c 256
 1084 1249 1098 1196 1074 1154 c 256
 861 778 736 495 684 -9 c 256
 680 -47 650 -79 612 -86 c 256
 562 -95 515 -59 510 -9 c 256
 458 492 316 755 86 1120 c 256
 60 1160 74 1214 114 1240 c 256
EndSplineSet
EndChar

StartChar: uni0668
Encoding: 1640 1640 273
Width: 1168
GlyphClass: 2
Flags: HW
LayerCount: 2
Fore
SplineSet
1054 -88 m 256
 1014 -113 959 -100 934 -60 c 256
 768 208 649 429 579 743 c 257
 511 433 400 221 234 -46 c 256
 209 -86 154 -99 114 -74 c 256
 74 -49 61 6 86 46 c 256
 320 422 439 671 491 1175 c 256
 495 1213 524 1245 562 1252 c 256
 612 1261 660 1225 665 1175 c 256
 717 673 848 409 1082 32 c 256
 1107 -8 1094 -63 1054 -88 c 256
EndSplineSet
EndChar

StartChar: uni0669
Encoding: 1641 1641 274
Width: 1022
GlyphClass: 2
Flags: HW
LayerCount: 2
Fore
SplineSet
451 1286 m 256
 738 1286 803 1004 811 774 c 256
 823 437 844 185 920 40 c 256
 942 -2 924 -56 882 -78 c 256
 840 -100 787 -82 765 -40 c 256
 662 159 648 432 636 768 c 256
 628 1006 574 1112 445 1112 c 256
 325 1112 248 977 248 823 c 256
 248 699 323 652 484 652 c 256
 527 652 579 656 592 658 c 256
 639 664 684 629 690 582 c 256
 696 535 661 492 614 486 c 256
 593 484 539 478 484 478 c 256
 289 478 72 565 72 823 c 256
 72 1015 182 1286 451 1286 c 256
EndSplineSet
EndChar

StartChar: uni066B
Encoding: 1643 1643 276
Width: 454
GlyphClass: 2
Flags: HW
LayerCount: 2
Fore
SplineSet
388 584 m 256
 432 565 453 514 434 470 c 258
 52 -418 l 258
 33 -462 -18 -483 -62 -464 c 256
 -106 -445 -127 -392 -108 -348 c 258
 274 538 l 258
 293 582 344 603 388 584 c 256
EndSplineSet
EndChar

StartChar: uni06F4
Encoding: 1780 1780 296
Width: 1118
GlyphClass: 2
Flags: HW
LayerCount: 2
Fore
SplineSet
906 1266 m 256
 919 1220 891 1171 845 1158 c 256
 633 1100 547 936 547 688 c 256
 547 640 507 601 459 601 c 256
 411 601 372 640 372 688 c 256
 372 978 489 1244 799 1328 c 256
 845 1341 893 1312 906 1266 c 256
1025 612 m 256
 1030 565 994 521 947 516 c 256
 903 512 862 510 824 510 c 256
 640 510 506 562 403 632 c 257
 475 434 496 228 496 0 c 256
 496 -48 456 -87 408 -87 c 256
 360 -87 321 -48 321 0 c 256
 321 345 274 622 106 883 c 256
 86 915 88 967 124 997 c 256
 162 1029 221 1021 251 980 c 256
 364 821 507 686 824 686 c 256
 858 686 893 686 929 690 c 256
 976 695 1020 659 1025 612 c 256
EndSplineSet
EndChar

StartChar: uni06F5
Encoding: 1781 1781 297
Width: 1155
GlyphClass: 2
Flags: HW
LayerCount: 2
Fore
SplineSet
293 1218 m 256
 319 1258 374 1268 414 1242 c 256
 599 1118 1082 763 1082 342 c 256
 1082 117 966 -76 772 -76 c 256
 664 -76 572 -4 504 80 c 256
 474 117 480 173 517 203 c 256
 554 233 610 227 640 190 c 256
 686 134 738 98 777 98 c 256
 841 98 908 164 908 342 c 256
 908 635 505 972 318 1096 c 256
 278 1122 267 1178 293 1218 c 256
619 208 m 256
 659 182 672 128 646 88 c 256
 581 -13 482 -74 378 -74 c 256
 204 -74 72 81 72 317 c 256
 72 696 382 966 608 1092 c 256
 650 1116 702 1099 726 1057 c 256
 750 1015 734 962 692 938 c 256
 488 826 248 594 248 317 c 256
 248 145 322 100 378 100 c 256
 414 100 457 119 498 182 c 256
 524 222 579 234 619 208 c 256
EndSplineSet
EndChar

StartChar: uni06F6
Encoding: 1782 1782 298
Width: 976
GlyphClass: 2
Flags: HW
LayerCount: 2
Fore
SplineSet
753 1084 m 256
 725 1046 669 1038 631 1066 c 256
 587 1100 542 1112 501 1112 c 256
 376 1112 248 984 248 839 c 256
 248 714 357 642 528 642 c 256
 622 642 700 665 782 700 c 256
 826 719 877 698 896 654 c 256
 915 610 894 559 850 540 c 256
 758 501 652 468 528 468 c 256
 321 468 72 572 72 839 c 256
 72 1076 268 1286 501 1286 c 256
 580 1286 661 1260 735 1206 c 256
 773 1178 781 1122 753 1084 c 256
894 660 m 256
 916 617 899 564 856 542 c 256
 575 400 402 214 262 -42 c 256
 239 -84 186 -99 144 -76 c 256
 102 -53 87 0 110 42 c 256
 262 320 463 540 776 698 c 256
 819 720 872 703 894 660 c 256
EndSplineSet
EndChar

StartChar: uniE000
Encoding: 57344 57344 304
Width: 509
GlyphClass: 2
Flags: HW
LayerCount: 2
Fore
SplineSet
108 141 m 256
 108 191 152 239 212 239 c 256
 278 239 312 173 312 141 c 256
 312 111 291 30 209 30 c 256
 127 30 108 109 108 141 c 256
EndSplineSet
EndChar

StartChar: uniE001
Encoding: 57345 57345 305
Width: 660
GlyphClass: 2
Flags: HW
LayerCount: 2
Fore
SplineSet
60 57 m 256
 36 89 45 134 76 156 c 256
 156 214 260 254 380 254 c 256
 486 254 620 216 610 90 c 256
 609 44 575 12 536 13 c 256
 501 14 475 36 470 66 c 256
 473 100 436 112 380 112 c 256
 290 112 216 84 160 42 c 256
 127 18 82 27 60 57 c 256
EndSplineSet
EndChar

StartChar: uniE002
Encoding: 57346 57346 306
Width: 696
GlyphClass: 2
Flags: HW
LayerCount: 2
Fore
SplineSet
402 536 m 256
 505 536 620 488 620 371 c 256
 620 225 459 86 341 50 c 256
 303 38 264 61 253 98 c 256
 243 134 262 166 302 186 c 256
 358 207 468 297 468 349 c 256
 468 382 440 395 390 395 c 256
 308 395 156 342 126 324 c 256
 88 306 51 308 28 339 c 256
 6 370 11 414 43 438 c 256
 110 487 266 536 402 536 c 256
EndSplineSet
EndChar

StartChar: uniE003
Encoding: 57347 57347 307
Width: 696
GlyphClass: 2
Flags: HW
LayerCount: 2
Fore
SplineSet
436 66 m 256
 404 88 394 134 416 166 c 256
 426 180 432 200 432 230 c 256
 432 292 388 334 308 334 c 256
 244 334 194 284 194 234 c 256
 194 171 223 141 281 88 c 256
 309 62 312 16 286 -12 c 256
 260 -40 213 -42 185 -16 c 256
 129 35 50 107 50 234 c 256
 50 374 176 478 308 478 c 256
 446 478 574 382 574 230 c 256
 574 175 560 126 534 86 c 256
 512 54 468 44 436 66 c 256
EndSplineSet
EndChar

StartChar: uniE007
Encoding: 57351 57351 311
Width: 1067
GlyphClass: 2
Flags: HW
LayerCount: 2
Fore
SplineSet
104 1380 m 256
 86 1414 100 1458 134 1476 c 258
 728 1792 l 258
 762 1810 806 1798 824 1764 c 256
 842 1730 828 1686 794 1668 c 258
 200 1350 l 258
 166 1332 122 1346 104 1380 c 256
EndSplineSet
EndChar

StartChar: uniE008
Encoding: 57352 57352 312
Width: 250
GlyphClass: 2
Flags: HW
LayerCount: 2
Fore
SplineSet
-88 45 m 256
 -88 93 -48 132 0 132 c 258
 250 132 l 258
 298 132 338 93 338 45 c 256
 338 -3 298 -42 250 -42 c 258
 0 -42 l 258
 -48 -42 -88 -3 -88 45 c 256
EndSplineSet
EndChar

StartChar: uniE009
Encoding: 57353 57353 313
Width: 150
GlyphClass: 2
Flags: HW
LayerCount: 2
Fore
SplineSet
-88 45 m 256
 -88 93 -48 132 0 132 c 258
 150 132 l 258
 198 132 238 93 238 45 c 256
 238 -3 198 -42 150 -42 c 258
 0 -42 l 258
 -48 -42 -88 -3 -88 45 c 256
EndSplineSet
EndChar

StartChar: uniE00C
Encoding: 57356 57356 316
Width: 1069
GlyphClass: 2
Flags: HW
LayerCount: 2
Fore
SplineSet
541 884 m 256
 335 884 234 730 234 508 c 256
 234 286 335 132 541 132 c 256
 747 132 848 286 848 508 c 256
 848 730 747 884 541 884 c 256
541 1058 m 256
 873 1058 1024 782 1024 508 c 256
 1024 234 873 -42 541 -42 c 256
 209 -42 60 234 60 508 c 256
 60 782 209 1058 541 1058 c 256
EndSplineSet
EndChar

StartChar: uniE00D
Encoding: 57357 57357 317
Width: 950
GlyphClass: 2
Flags: HW
LayerCount: 2
Fore
SplineSet
147 -88 m 256
 99 -88 60 -48 60 0 c 258
 60 584 l 258
 60 823 191 1058 482 1058 c 256
 773 1058 904 823 904 584 c 258
 904 0 l 258
 904 -48 865 -88 817 -88 c 256
 769 -88 730 -48 730 0 c 258
 730 584 l 258
 730 769 651 884 482 884 c 256
 313 884 234 769 234 584 c 258
 234 0 l 258
 234 -48 195 -88 147 -88 c 256
EndSplineSet
EndChar

StartChar: uniE00E
Encoding: 57358 57358 318
Width: 850
GlyphClass: 2
Flags: HW
LayerCount: 2
Fore
SplineSet
147 -88 m 256
 99 -88 60 -48 60 0 c 258
 60 598 l 258
 60 830 170 1058 432 1058 c 256
 694 1058 804 830 804 598 c 258
 804 0 l 258
 804 -48 765 -88 717 -88 c 256
 669 -88 630 -48 630 0 c 258
 630 598 l 258
 630 790 558 884 432 884 c 256
 306 884 234 790 234 598 c 258
 234 0 l 258
 234 -48 195 -88 147 -88 c 256
EndSplineSet
EndChar

StartChar: uniE012
Encoding: 57362 57362 321
Width: 0
GlyphClass: 2
Flags: H
LayerCount: 2
Fore
SplineSet
416 1721 m 256
 416 1701 400 1684 380 1684 c 256
 248 1684 116 1610 116 1548 c 256
 116 1510 153 1484 231 1464 c 256
 308 1444 392 1407 392 1315 c 256
 392 1205 222 1130 14 1130 c 256
 -6 1130 -22 1146 -22 1166 c 256
 -22 1186 -6 1202 14 1202 c 256
 224 1202 320 1274 320 1315 c 256
 320 1351 290 1374 213 1394 c 256
 139 1413 44 1448 44 1542 c 256
 44 1687 240 1757 380 1757 c 256
 400 1757 416 1741 416 1721 c 256
EndSplineSet
EndChar

StartChar: uniE014
Encoding: 57364 57364 323
Width: 1693
GlyphClass: 2
Flags: HW
LayerCount: 2
Fore
SplineSet
248 616 m 256
 248 371 514 132 752 132 c 256
 1188 132 1446 366 1446 760 c 256
 1446 1016 1210 1274 831 1274 c 256
 545 1274 248 1027 248 616 c 256
72 616 m 256
 72 1117 443 1448 831 1448 c 256
 1290 1448 1620 1128 1620 760 c 256
 1620 264 1262 -42 752 -42 c 256
 422 -42 72 259 72 616 c 256
EndSplineSet
EndChar

StartChar: uniE015
Encoding: 57365 57365 324
Width: 1693
GlyphClass: 2
Flags: HW
LayerCount: 2
Fore
SplineSet
1058 922 m 256
 1039 900 1004 898 982 917 c 256
 948 948 909 964 859 964 c 256
 713 964 597 822 597 672 c 256
 597 544 660 458 806 458 c 256
 886 458 944 480 1000 514 c 256
 1025 530 1058 521 1074 496 c 256
 1090 471 1081 438 1056 422 c 256
 988 380 908 350 806 350 c 256
 598 350 490 498 490 672 c 256
 490 870 641 1072 859 1072 c 256
 935 1072 1001 1043 1053 998 c 256
 1075 979 1077 944 1058 922 c 256
EndSplineSet
EndChar

StartChar: uniE016
Encoding: 57366 57366 325
Width: 1667
GlyphClass: 2
Flags: HW
LayerCount: 2
Fore
SplineSet
558 856 m 256
 534 874 530 907 548 931 c 256
 606 1009 700 1055 796 1055 c 256
 935 1055 1090 958 1090 798 c 256
 1090 692 1019 608 914 580 c 257
 969 526 1036 481 1104 443 c 256
 1130 429 1138 396 1124 370 c 256
 1110 344 1078 336 1052 350 c 256
 950 407 842 480 764 576 c 256
 758 583 754 595 753 606 c 256
 751 636 775 664 806 664 c 256
 925 664 982 724 982 798 c 256
 982 878 896 948 796 948 c 256
 734 948 672 918 634 868 c 256
 616 844 582 838 558 856 c 256
703 930 m 256
 733 929 755 904 754 874 c 256
 747 712 733 540 717 384 c 256
 714 355 687 333 658 336 c 256
 629 339 607 367 610 396 c 256
 626 550 640 720 647 880 c 256
 648 910 673 931 703 930 c 256
EndSplineSet
EndChar

StartChar: uniE01D
Encoding: 57373 57373 332
Width: 1478
GlyphClass: 2
Flags: HW
LayerCount: 2
Fore
SplineSet
1097 121 m 256
 1179 121 1253 187 1253 253 c 256
 1253 323 1192 379 1109 379 c 256
 1028 379 988 340 988 263 c 256
 988 177 1045 121 1097 121 c 256
1097 -9 m 256
 953 -9 858 125 858 263 c 256
 858 410 966 509 1109 509 c 256
 1250 509 1383 407 1383 253 c 256
 1383 95 1235 -9 1097 -9 c 256
225 1188 m 256
 225 1106 290 1033 357 1033 c 256
 427 1033 482 1092 482 1175 c 256
 482 1257 443 1296 367 1296 c 256
 280 1296 225 1239 225 1188 c 256
95 1188 m 256
 95 1333 230 1426 367 1426 c 256
 515 1426 612 1317 612 1175 c 256
 612 1034 511 903 357 903 c 256
 200 903 95 1050 95 1188 c 256
EndSplineSet
EndChar

StartChar: uniE01E
Encoding: 57374 57374 333
Width: 1857
GlyphClass: 2
Flags: HW
LayerCount: 2
Fore
SplineSet
1423 1134 m 256
 1741 1134 1784 689 1784 399 c 256
 1784 41 1439 -42 1005 -42 c 258
 775 -42 l 258
 727 -42 688 -3 688 45 c 256
 688 93 727 132 775 132 c 258
 1005 132 l 258
 1457 132 1610 215 1610 399 c 256
 1610 739 1539 958 1414 958 c 256
 1300 958 1242 814 1242 672 c 256
 1242 550 1305 502 1440 502 c 256
 1498 502 1551 515 1598 535 c 256
 1642 553 1695 532 1713 488 c 256
 1731 444 1710 391 1666 373 c 256
 1601 347 1524 328 1440 328 c 256
 1235 328 1068 433 1068 665 c 256
 1068 839 1153 1134 1423 1134 c 256
688 56 m 256
 694 103 739 138 786 132 c 256
 1086 96 1288 -30 1288 -234 c 256
 1288 -460 1033 -598 703 -598 c 256
 276 -598 92 -366 92 -62 c 256
 92 98 137 273 201 449 c 256
 217 494 268 517 313 501 c 256
 358 485 382 434 366 389 c 256
 306 225 268 66 268 -62 c 256
 268 -280 354 -422 703 -422 c 256
 1015 -422 1114 -307 1114 -234 c 256
 1114 -168 1048 -76 764 -42 c 256
 717 -36 682 9 688 56 c 256
EndSplineSet
EndChar

StartChar: uniE021
Encoding: 57377 57377 336
Width: 2243
GlyphClass: 2
Flags: HW
LayerCount: 2
Fore
SplineSet
690 -679 m 256
 901 -679 1260 -616 1260 -325 c 256
 1260 -121 1111 -70 936 -38 c 256
 826 -17 730 10 730 90 c 256
 730 230 896 351 1144 407 c 257
 1228 145 1372 -42 1712 -42 c 258
 2243 -42 l 258
 2291 -42 2330 -3 2330 45 c 256
 2330 93 2291 132 2243 132 c 258
 1712 132 l 258
 1436 132 1360 258 1288 532 c 256
 1278 573 1235 603 1190 596 c 256
 898 548 556 397 556 85 c 256
 556 -129 769 -188 902 -210 c 256
 1004 -228 1084 -247 1084 -325 c 256
 1084 -423 918 -504 690 -504 c 256
 390 -504 268 -411 268 -151 c 256
 268 -40 292 92 330 228 c 256
 343 274 316 323 270 336 c 256
 224 349 175 322 162 276 c 256
 122 132 92 -14 92 -151 c 256
 92 -519 336 -679 690 -679 c 256
EndSplineSet
EndChar

StartChar: uniE022
Encoding: 57378 57378 337
Width: 1712
GlyphClass: 2
Flags: HW
LayerCount: 2
Fore
SplineSet
690 -679 m 256
 901 -679 1260 -616 1260 -325 c 256
 1260 -121 1111 -70 936 -38 c 256
 826 -17 730 10 730 90 c 256
 730 230 896 351 1144 407 c 257
 1227 146 1372 -42 1711 -42 c 257
 1712 -42 l 257
 1760 -42 1799 -3 1799 45 c 256
 1799 93 1760 132 1712 132 c 257
 1711 132 l 257
 1436 132 1357 258 1288 532 c 256
 1278 573 1235 603 1190 596 c 256
 898 548 556 397 556 85 c 256
 556 -129 769 -188 902 -210 c 256
 1004 -228 1084 -247 1084 -325 c 256
 1084 -423 918 -504 690 -504 c 256
 390 -504 268 -411 268 -151 c 256
 268 -40 292 92 330 228 c 256
 343 274 316 323 270 336 c 256
 224 349 175 322 162 276 c 256
 122 132 92 -14 92 -151 c 256
 92 -519 336 -679 690 -679 c 256
EndSplineSet
EndChar

StartChar: uniE030
Encoding: 57392 57392 345
Width: 0
GlyphClass: 2
Flags: H
LayerCount: 2
Fore
SplineSet
145 1754 m 256
 165 1758 182 1745 186 1725 c 256
 201 1633 210 1538 210 1441 c 256
 210 1411 209 1380 207 1351 c 257
 251 1411 312 1458 393 1458 c 256
 477 1458 551 1397 551 1309 c 256
 551 1153 370 1121 258 1121 c 256
 222 1121 187 1122 153 1126 c 256
 101 1132 50 1142 -1 1156 c 256
 -20 1161 -32 1181 -27 1200 c 256
 -22 1219 -1 1231 18 1226 c 256
 52 1217 86 1210 121 1204 c 257
 132 1286 138 1365 138 1441 c 256
 138 1534 131 1625 116 1713 c 256
 112 1733 125 1750 145 1754 c 256
201 1195 m 257
 219 1193 239 1193 258 1193 c 256
 376 1193 479 1229 479 1309 c 256
 479 1353 443 1386 393 1386 c 256
 304 1386 239 1299 201 1195 c 257
EndSplineSet
EndChar

StartChar: uniE031
Encoding: 57393 57393 346
Width: 883
GlyphClass: 2
Flags: HW
LayerCount: 2
Fore
SplineSet
686 578 m 256
 660 554 618 554 594 580 c 256
 553 622 511 639 457 639 c 256
 363 639 251 537 251 414 c 256
 251 334 285 266 445 266 c 256
 510 266 630 276 715 286 c 256
 750 290 784 264 788 229 c 256
 792 194 766 160 731 156 c 256
 640 144 520 136 445 136 c 256
 227 136 121 264 121 414 c 256
 121 607 283 769 457 769 c 256
 541 769 625 740 690 670 c 256
 714 644 712 602 686 578 c 256
787 233 m 256
 793 199 769 163 735 157 c 256
 549 121 370 52 194 -56 c 256
 164 -74 122 -64 104 -34 c 256
 86 -4 96 38 126 56 c 256
 314 170 509 247 711 285 c 256
 745 291 781 267 787 233 c 256
EndSplineSet
EndChar

StartChar: uniE032
Encoding: 57394 57394 347
Width: 522
GlyphClass: 2
Flags: HW
LayerCount: 2
Fore
SplineSet
-122 1355 m 256
 -166 1373 -190 1424 -172 1468 c 256
 -107 1637 7 1768 179 1768 c 256
 265 1768 345 1735 425 1687 c 256
 486 1651 535 1626 587 1626 c 256
 639 1626 678 1657 680 1736 c 256
 686 1790 717 1824 765 1824 c 256
 813 1824 853 1784 853 1736 c 256
 853 1568 750 1450 602 1450 c 256
 490 1450 402 1498 333 1538 c 256
 271 1574 221 1594 179 1594 c 256
 103 1594 44 1540 -8 1406 c 256
 -26 1362 -78 1337 -122 1355 c 256
268 1232 m 256
 315 1238 360 1205 366 1158 c 256
 396 938 412 706 412 468 c 256
 412 311 405 153 392 -6 c 256
 388 -53 345 -90 297 -86 c 256
 249 -82 213 -39 217 8 c 256
 230 163 236 317 236 468 c 256
 236 698 222 922 194 1134 c 256
 188 1181 221 1226 268 1232 c 256
EndSplineSet
EndChar

StartChar: uniE033
Encoding: 57395 57395 348
Width: 445
GlyphClass: 2
Flags: HW
LayerCount: 2
Fore
SplineSet
188 1252 m 256
 235 1258 280 1225 286 1178 c 256
 318 938 332 797 332 531 c 256
 332 364 326 162 312 -6 c 256
 308 -53 265 -90 217 -86 c 256
 169 -82 133 -39 137 8 c 256
 151 170 158 368 158 531 c 256
 158 791 146 914 114 1154 c 256
 108 1201 141 1246 188 1252 c 256
EndSplineSet
EndChar

StartChar: uniE034
Encoding: 57396 57396 349
Width: 1252
GlyphClass: 2
Flags: HW
LayerCount: 2
Fore
SplineSet
693 -680 m 256
 413 -680 72 -546 72 -201 c 256
 72 239 598 449 838 526 c 257
 701 593 508 678 432 678 c 256
 362 678 309 639 269 529 c 256
 253 485 202 459 157 475 c 256
 112 491 87 542 103 587 c 256
 169 775 287 852 433 852 c 256
 603 852 974 662 1108 592 c 256
 1145 571 1180 549 1180 507 c 256
 1180 464 1146 427 1101 418 c 256
 965 395 248 202 248 -201 c 256
 248 -394 443 -506 693 -506 c 256
 816 -506 939 -476 1047 -418 c 256
 1089 -396 1144 -413 1166 -455 c 256
 1188 -497 1171 -552 1129 -574 c 256
 995 -644 844 -680 693 -680 c 256
EndSplineSet
EndChar

StartChar: uniE035
Encoding: 57397 57397 350
Width: 900
GlyphClass: 2
Flags: HW
LayerCount: 2
Fore
SplineSet
350 830 m 256
 382 866 438 868 474 836 c 256
 610 714 828 507 828 245 c 256
 828 31 610 -72 397 -72 c 256
 315 -72 224 -60 132 -28 c 256
 87 -13 63 38 78 83 c 256
 93 128 143 153 188 138 c 256
 262 114 333 102 397 102 c 256
 559 102 652 166 652 254 c 256
 652 408 494 586 358 706 c 256
 322 738 318 794 350 830 c 256
EndSplineSet
EndChar

StartChar: uniE036
Encoding: 57398 57398 351
Width: 807
GlyphClass: 2
Flags: HW
LayerCount: 2
Fore
SplineSet
520 568 m 256
 566 580 614 552 626 506 c 256
 669 344 694 200 694 71 c 256
 694 -255 530 -470 178 -542 c 256
 132 -552 84 -521 74 -475 c 256
 64 -429 96 -382 142 -372 c 256
 428 -312 520 -185 520 71 c 256
 520 178 499 308 458 462 c 256
 446 508 474 556 520 568 c 256
EndSplineSet
EndChar

StartChar: uniE037
Encoding: 57399 57399 352
Width: 2260
GlyphClass: 2
Flags: HW
LayerCount: 2
Fore
SplineSet
290 440 m 256
 334 422 355 370 337 326 c 256
 283 195 248 58 248 -58 c 256
 248 -242 348 -386 644 -386 c 256
 922 -386 1032 -236 1032 -23 c 256
 1032 89 1005 221 956 352 c 256
 940 396 964 448 1008 464 c 256
 1052 480 1104 456 1120 412 c 256
 1174 265 1208 117 1208 -23 c 256
 1208 -320 1012 -560 644 -560 c 256
 270 -560 72 -338 72 -58 c 256
 72 90 115 247 175 392 c 256
 193 436 246 458 290 440 c 256
1006 464 m 256
 1050 481 1102 458 1120 414 c 256
 1220 160 1276 108 1364 108 c 256
 1468 108 1522 174 1556 432 c 256
 1562 479 1607 512 1654 506 c 256
 1701 500 1736 455 1730 408 c 256
 1692 124 1596 -68 1362 -68 c 256
 1170 -68 1062 82 956 350 c 256
 939 394 962 447 1006 464 c 256
1655 506 m 256
 1702 500 1736 455 1730 408 c 256
 1722 350 1718 325 1718 275 c 256
 1718 165 1764 104 1864 104 c 256
 1961 104 2012 168 2012 298 c 256
 2012 389 1996 470 1976 544 c 256
 1964 590 1992 640 2038 652 c 256
 2084 664 2132 636 2144 590 c 256
 2166 508 2188 411 2188 298 c 256
 2188 110 2085 -72 1867 -72 c 256
 1660 -72 1544 83 1544 275 c 256
 1544 333 1548 374 1556 432 c 256
 1562 479 1608 512 1655 506 c 256
EndSplineSet
EndChar

StartChar: uniE038
Encoding: 57400 57400 353
Width: 2305
GlyphClass: 2
Flags: HW
LayerCount: 2
Fore
SplineSet
2232 378 m 256
 2232 57 1892 -72 1650 -72 c 256
 1253 -72 1067 98 970 332 c 256
 952 376 974 428 1018 446 c 256
 1062 464 1114 444 1132 400 c 256
 1207 220 1336 102 1650 102 c 256
 1862 102 2058 216 2058 368 c 256
 2058 461 1982 522 1864 522 c 256
 1680 522 1531 376 1407 114 c 256
 1387 70 1335 52 1291 72 c 256
 1247 92 1229 144 1249 188 c 256
 1381 468 1574 698 1873 698 c 256
 2052 698 2232 584 2232 378 c 256
1024 450 m 256
 1070 465 1119 439 1134 393 c 256
 1181 249 1206 114 1206 -7 c 256
 1206 -345 989 -560 589 -560 c 256
 345 -560 72 -430 72 -117 c 256
 72 69 158 267 260 428 c 256
 286 468 342 481 382 455 c 256
 422 429 434 374 408 334 c 256
 316 191 248 17 248 -117 c 256
 248 -298 391 -386 589 -386 c 256
 917 -386 1032 -251 1032 -7 c 256
 1032 90 1011 207 968 339 c 256
 953 385 978 435 1024 450 c 256
EndSplineSet
EndChar

StartChar: uniE039
Encoding: 57401 57401 354
Width: 1511
GlyphClass: 2
Flags: HW
LayerCount: 2
Fore
SplineSet
1438 449 m 256
 1438 73 1050 -72 574 -72 c 256
 442 -72 300 -62 148 -42 c 256
 101 -36 68 9 74 56 c 256
 80 103 125 138 172 132 c 256
 316 112 452 102 574 102 c 256
 1048 102 1264 242 1264 440 c 256
 1264 544 1190 616 1078 616 c 256
 860 616 585 334 458 -100 c 256
 446 -137 409 -162 371 -152 c 256
 333 -142 308 -102 318 -64 c 256
 414 315 721 790 1087 790 c 256
 1281 790 1438 648 1438 449 c 256
366 -150 m 256
 328 -138 308 -98 320 -60 c 256
 401 192 442 551 442 892 c 256
 442 994 438 1099 429 1204 c 256
 425 1251 461 1294 509 1298 c 256
 557 1302 600 1265 604 1218 c 256
 613 1107 616 998 616 892 c 256
 616 535 542 164 456 -104 c 256
 444 -142 404 -162 366 -150 c 256
EndSplineSet
EndChar

StartChar: uniE03A
Encoding: 57402 57402 355
Width: 1275
GlyphClass: 2
Flags: HW
LayerCount: 2
Fore
SplineSet
912 937 m 256
 877 905 821 907 789 942 c 256
 751 983 698 1006 632 1006 c 256
 504 1006 370 891 370 745 c 256
 370 613 473 544 687 544 c 256
 727 544 769 547 812 550 c 256
 836 552 859 553 882 554 c 256
 930 556 972 519 974 471 c 256
 976 423 938 382 890 380 c 256
 869 379 846 378 824 376 c 256
 781 373 735 370 687 370 c 256
 451 370 196 465 196 745 c 256
 196 997 412 1182 632 1182 c 256
 744 1182 845 1137 917 1060 c 256
 949 1025 947 969 912 937 c 256
974 467 m 256
 974 419 934 380 886 380 c 256
 600 380 248 136 248 -172 c 256
 248 -398 441 -512 717 -512 c 256
 847 -512 979 -480 1075 -431 c 256
 1117 -409 1171 -427 1193 -469 c 256
 1215 -511 1197 -565 1155 -587 c 256
 1029 -652 873 -686 717 -686 c 256
 407 -686 72 -540 72 -172 c 256
 72 268 532 554 886 554 c 256
 934 554 974 515 974 467 c 256
EndSplineSet
EndChar

StartChar: uniE03B
Encoding: 57403 57403 356
Width: 668
GlyphClass: 2
Flags: HW
LayerCount: 2
Fore
SplineSet
-88 45 m 256
 -88 93 -48 132 0 132 c 258
 668 132 l 258
 716 132 756 93 756 45 c 256
 756 -3 716 -42 668 -42 c 258
 0 -42 l 258
 -48 -42 -88 -3 -88 45 c 256
EndSplineSet
EndChar

StartChar: uniE03C
Encoding: 57404 57404 357
Width: 1276
GlyphClass: 2
Flags: HW
LayerCount: 2
Fore
SplineSet
1041 1298 m 256
 1089 1302 1130 1265 1134 1217 c 256
 1162 827 1184 498 1184 148 c 256
 1184 -206 1057 -512 619 -512 c 256
 291 -512 72 -308 72 -15 c 256
 72 133 120 288 176 398 c 256
 197 441 251 457 294 436 c 256
 337 415 355 361 334 318 c 256
 290 228 248 93 248 -15 c 256
 248 -206 367 -336 619 -336 c 256
 933 -336 1008 -172 1008 148 c 256
 1008 490 988 815 960 1205 c 256
 956 1253 993 1294 1041 1298 c 256
EndSplineSet
EndChar

StartChar: uniE03D
Encoding: 57405 57405 358
Width: 1177
GlyphClass: 2
Flags: HW
LayerCount: 2
Fore
SplineSet
724 660 m 256
 942 660 1104 488 1104 221 c 256
 1104 29 965 -72 796 -72 c 256
 690 -72 589 -56 511 -36 c 256
 438 -17 386 -6 348 -6 c 256
 288 -6 248 -36 248 -166 c 256
 248 -183 247 -198 248 -214 c 258
 278 -800 l 258
 280 -848 244 -889 196 -891 c 256
 148 -893 106 -856 104 -808 c 258
 74 -224 l 258
 73 -202 72 -183 72 -166 c 256
 72 38 163 168 332 168 c 256
 399 168 468 154 538 138 c 256
 624 119 712 102 796 102 c 256
 884 102 930 137 930 221 c 256
 930 407 835 486 730 486 c 256
 598 486 528 305 508 182 c 256
 500 135 454 102 407 110 c 256
 360 118 327 163 335 210 c 256
 353 319 428 660 724 660 c 256
EndSplineSet
EndChar

StartChar: uniE03E
Encoding: 57406 57406 359
Width: 865
GlyphClass: 2
Flags: HW
LayerCount: 2
Fore
SplineSet
429 -72 m 256
 227 -72 72 46 72 242 c 256
 72 422 192 642 372 796 c 256
 408 827 465 822 496 786 c 256
 527 750 522 695 486 664 c 256
 338 538 248 358 248 252 c 256
 248 168 309 102 429 102 c 256
 553 102 618 167 618 261 c 256
 618 381 493 581 278 767 c 256
 242 798 238 854 269 890 c 256
 300 926 356 930 392 899 c 256
 623 699 792 459 792 257 c 256
 792 47 634 -72 429 -72 c 256
EndSplineSet
EndChar

StartChar: uniE03F
Encoding: 57407 57407 360
Width: 878
GlyphClass: 2
Flags: HW
LayerCount: 2
Fore
SplineSet
444 734 m 256
 763 734 806 306 806 108 c 256
 806 -298 529 -481 176 -547 c 256
 130 -556 83 -523 74 -477 c 256
 65 -431 98 -384 144 -375 c 256
 460 -315 630 -192 630 108 c 256
 630 372 568 558 444 558 c 256
 358 558 287 450 287 278 c 256
 287 160 344 102 452 102 c 256
 488 102 532 108 584 121 c 256
 630 132 679 103 690 57 c 256
 701 11 672 -38 626 -49 c 256
 564 -64 506 -72 452 -72 c 256
 248 -72 121 60 121 260 c 256
 121 484 220 734 444 734 c 256
EndSplineSet
EndChar

StartChar: uniE040
Encoding: 57408 57408 361
Width: 0
GlyphClass: 2
Flags: H
LayerCount: 2
Fore
SplineSet
168 1890 m 256
 170 1870 154 1854 134 1852 c 256
 21 1844 -119 1708 -119 1561 c 256
 -119 1533 -114 1504 -102 1475 c 256
 -94 1457 -104 1436 -122 1428 c 256
 -140 1420 -162 1431 -170 1449 c 256
 -185 1486 -191 1523 -191 1561 c 256
 -191 1748 -25 1912 130 1924 c 256
 150 1926 166 1910 168 1890 c 256
191 1714 m 256
 315 1714 316 1558 316 1488 c 256
 316 1276 175 1204 -33 1192 c 256
 -53 1190 -69 1206 -71 1226 c 256
 -73 1246 -57 1262 -37 1264 c 256
 159 1274 244 1326 244 1488 c 256
 244 1584 234 1642 188 1642 c 256
 136 1642 93 1573 93 1511 c 256
 93 1440 233 1419 355 1419 c 256
 375 1419 391 1403 391 1383 c 256
 391 1363 375 1347 355 1347 c 256
 261 1347 21 1353 21 1509 c 256
 21 1592 75 1714 191 1714 c 256
EndSplineSet
EndChar

StartChar: uniE041
Encoding: 57409 57409 362
Width: 0
GlyphClass: 2
Flags: H
LayerCount: 2
Fore
SplineSet
-19 1329 m 256
 -25 1347 -15 1369 3 1375 c 258
 408 1519 l 258
 426 1525 448 1515 454 1497 c 256
 460 1479 450 1457 432 1451 c 258
 27 1307 l 258
 9 1301 -13 1311 -19 1329 c 256
EndSplineSet
EndChar

StartChar: uniE042
Encoding: 57410 57410 363
Width: 0
GlyphClass: 2
Flags: H
LayerCount: 2
Fore
SplineSet
191 1714 m 256
 315 1714 316 1558 316 1488 c 256
 316 1276 175 1204 -33 1192 c 256
 -53 1190 -69 1206 -71 1226 c 256
 -73 1246 -57 1262 -37 1264 c 256
 159 1274 244 1326 244 1488 c 256
 244 1584 234 1642 188 1642 c 256
 136 1642 93 1573 93 1511 c 256
 93 1440 233 1419 355 1419 c 256
 375 1419 391 1403 391 1383 c 256
 391 1363 375 1347 355 1347 c 256
 261 1347 21 1353 21 1509 c 256
 21 1592 75 1714 191 1714 c 256
EndSplineSet
EndChar

StartChar: uniE043
Encoding: 57411 57411 364
Width: 0
GlyphClass: 2
Flags: H
LayerCount: 2
Fore
SplineSet
404 1593 m 256
 422 1601 443 1592 451 1574 c 256
 473 1526 499 1448 499 1374 c 256
 499 1280 441 1227 364 1227 c 256
 309 1227 264 1262 238 1312 c 257
 210 1260 164 1228 110 1228 c 256
 41 1228 -20 1274 -20 1360 c 256
 -20 1425 11 1492 48 1540 c 256
 60 1556 82 1559 98 1547 c 256
 114 1535 117 1512 105 1496 c 256
 76 1458 52 1401 52 1360 c 256
 52 1318 73 1300 110 1300 c 256
 150 1300 199 1342 203 1444 c 256
 203 1460 216 1476 234 1478 c 256
 254 1480 273 1465 275 1444 c 256
 281 1340 325 1299 366 1299 c 256
 404 1299 427 1318 427 1374 c 256
 427 1430 403 1504 385 1546 c 256
 377 1564 386 1585 404 1593 c 256
EndSplineSet
EndChar

StartChar: uniE044
Encoding: 57412 57412 365
Width: 0
GlyphClass: 2
Flags: H
LayerCount: 2
Fore
SplineSet
176 1553 m 256
 126 1553 73 1505 73 1434 c 256
 73 1384 117 1333 175 1333 c 256
 227 1333 277 1377 277 1452 c 256
 277 1503 237 1553 176 1553 c 256
176 1625 m 256
 281 1625 349 1539 349 1452 c 256
 349 1343 271 1261 175 1261 c 256
 73 1261 1 1346 1 1434 c 256
 1 1541 82 1625 176 1625 c 256
EndSplineSet
EndChar

StartChar: uniE045
Encoding: 57413 57413 366
Width: 0
GlyphClass: 2
Flags: H
LayerCount: 2
Fore
SplineSet
587 1449 m 256
 605 1441 612 1418 604 1400 c 256
 570 1328 513 1252 419 1252 c 256
 378 1252 334 1268 286 1300 c 256
 251 1324 221 1333 194 1333 c 256
 143 1333 94 1299 60 1240 c 256
 50 1223 28 1216 11 1226 c 256
 -6 1236 -12 1259 -2 1276 c 256
 40 1349 109 1405 194 1405 c 256
 239 1405 283 1388 326 1358 c 256
 364 1332 396 1324 419 1324 c 256
 467 1324 506 1366 538 1432 c 256
 546 1450 569 1457 587 1449 c 256
EndSplineSet
EndChar

StartChar: uniE046
Encoding: 57414 57414 367
Width: 0
GlyphClass: 2
Flags: H
LayerCount: 2
Fore
SplineSet
374 1558 m 256
 358 1546 335 1550 323 1566 c 256
 294 1605 262 1618 228 1618 c 256
 160 1618 86 1552 86 1463 c 256
 86 1387 131 1359 221 1359 c 256
 277 1359 341 1372 407 1396 c 256
 427 1402 448 1390 454 1370 c 256
 458 1352 449 1332 431 1326 c 258
 26 1186 l 258
 8 1180 -14 1190 -20 1208 c 256
 -26 1226 -16 1248 2 1254 c 258
 144 1304 l 257
 70 1322 14 1372 14 1463 c 256
 14 1590 116 1690 228 1690 c 256
 284 1690 340 1663 381 1608 c 256
 393 1592 390 1570 374 1558 c 256
EndSplineSet
EndChar

StartChar: uniE047
Encoding: 57415 57415 368
Width: 0
GlyphClass: 2
Flags: H
LayerCount: 2
Fore
SplineSet
207 1004 m 257
 207 1122 121 1382 1 1498 c 256
 -13 1512 -14 1535 -0 1549 c 256
 14 1563 37 1564 51 1550 c 256
 141 1463 207 1322 243 1198 c 257
 279 1320 345 1463 435 1550 c 256
 449 1564 472 1563 486 1549 c 256
 500 1535 499 1512 485 1498 c 256
 365 1382 279 1123 279 1004 c 256
 279 980 262 968 244 968 c 256
 226 968 207 980 207 1004 c 257
EndSplineSet
EndChar

StartChar: uniE048
Encoding: 57416 57416 369
Width: 1726
GlyphClass: 2
Flags: HW
LayerCount: 2
Fore
SplineSet
1464 703 m 256
 1505 727 1560 712 1584 670 c 256
 1626 596 1654 487 1654 383 c 256
 1654 -37 1109 -72 843 -72 c 256
 553 -72 72 -38 72 373 c 256
 72 457 88 557 122 626 c 256
 143 669 197 686 240 664 c 256
 282 643 295 600 278 546 c 256
 266 521 248 430 248 373 c 256
 248 160 511 102 843 102 c 256
 1155 102 1478 171 1478 383 c 256
 1478 455 1452 546 1432 584 c 256
 1412 631 1423 679 1464 703 c 256
EndSplineSet
EndChar

StartChar: uniE049
Encoding: 57417 57417 370
Width: 1439
GlyphClass: 2
Flags: HW
LayerCount: 2
Fore
SplineSet
998 730 m 256
 1333 730 1366 293 1366 91 c 256
 1366 -295 1147 -554 717 -554 c 256
 305 -554 72 -352 72 -40 c 256
 72 124 129 306 226 495 c 256
 248 537 302 555 344 533 c 256
 386 511 404 457 382 415 c 256
 293 242 248 84 248 -40 c 256
 248 -238 361 -378 717 -378 c 256
 1059 -378 1192 -215 1192 91 c 256
 1192 335 1134 556 994 556 c 256
 890 556 810 436 810 266 c 256
 810 146 874 102 996 102 c 256
 1086 102 1148 117 1203 147 c 256
 1245 170 1298 153 1321 111 c 256
 1344 69 1327 16 1285 -7 c 256
 1202 -51 1108 -74 996 -74 c 256
 791 -74 636 35 636 260 c 256
 636 476 758 730 998 730 c 256
EndSplineSet
EndChar

StartChar: uniE04A
Encoding: 57418 57418 371
Width: 0
GlyphClass: 2
Flags: H
LayerCount: 2
Fore
SplineSet
10 1659 m 256
 30 1661 48 1647 50 1627 c 256
 58 1549 62 1479 62 1409 c 256
 62 1335 54 1262 30 1188 c 256
 24 1170 3 1158 -15 1164 c 256
 -33 1170 -44 1192 -38 1210 c 256
 -17 1274 -10 1341 -10 1409 c 256
 -10 1475 -14 1543 -22 1619 c 256
 -24 1639 -10 1657 10 1659 c 256
EndSplineSet
EndChar

StartChar: uniE04B
Encoding: 57419 57419 372
Width: 1719
GlyphClass: 2
Flags: HW
LayerCount: 2
Fore
SplineSet
1280 1120 m 256
 1584 1120 1646 737 1646 406 c 256
 1646 -21 1173 -76 829 -76 c 256
 523 -76 72 -29 72 367 c 256
 72 451 90 527 109 594 c 256
 123 640 172 668 218 654 c 256
 264 640 291 592 277 546 c 256
 260 487 248 427 248 367 c 256
 248 165 489 98 829 98 c 256
 1203 98 1472 169 1472 406 c 256
 1472 773 1394 944 1270 944 c 256
 1154 944 1082 820 1082 664 c 256
 1082 548 1121 480 1259 480 c 256
 1347 480 1447 505 1512 533 c 256
 1556 553 1608 532 1628 488 c 256
 1648 444 1628 393 1584 373 c 256
 1495 333 1377 306 1259 306 c 256
 1010 306 906 466 906 658 c 256
 906 860 1022 1120 1280 1120 c 256
EndSplineSet
EndChar

StartChar: uniE04C
Encoding: 57420 57420 373
Width: 1870
GlyphClass: 2
Flags: HW
LayerCount: 2
Fore
SplineSet
1788 1350 m 256
 1809 1307 1791 1253 1748 1232 c 258
 1122 925 l 257
 1286 751 1476 535 1476 303 c 256
 1476 8 1180 -72 768 -72 c 256
 411 -72 72 -11 72 340 c 256
 72 403 82 473 106 551 c 256
 120 597 169 624 215 610 c 256
 261 596 288 547 274 501 c 256
 255 437 248 383 248 340 c 256
 248 163 389 102 768 102 c 256
 1200 102 1300 186 1300 303 c 256
 1300 468 1104 695 913 890 c 256
 913 890 904 900 900 906 c 256
 874 950 893 1008 938 1030 c 258
 1672 1390 l 258
 1715 1411 1767 1393 1788 1350 c 256
EndSplineSet
EndChar

StartChar: uniE04D
Encoding: 57421 57421 374
Width: 1384
GlyphClass: 2
Flags: HW
LayerCount: 2
Fore
SplineSet
265 486 m 256
 309 469 333 417 316 373 c 256
 272 259 248 116 248 16 c 256
 248 -206 361 -338 697 -338 c 256
 1036 -338 1136 -193 1136 23 c 256
 1136 143 1104 294 1048 424 c 256
 1029 468 1050 521 1094 540 c 256
 1138 559 1189 538 1208 494 c 256
 1272 344 1312 173 1312 23 c 256
 1312 -287 1110 -512 697 -512 c 256
 297 -512 72 -310 72 16 c 256
 72 142 100 299 152 435 c 256
 169 479 221 503 265 486 c 256
EndSplineSet
EndChar

StartChar: uniE04E
Encoding: 57422 57422 375
Width: 1347
GlyphClass: 2
Flags: HW
LayerCount: 2
Fore
SplineSet
1207 588 m 256
 1180 548 1126 539 1086 566 c 256
 1040 598 992 610 944 610 c 256
 800 610 660 479 660 324 c 256
 660 194 757 170 929 167 c 256
 1147 163 1284 88 1284 -116 c 256
 1284 -374 1005 -512 671 -512 c 256
 300 -512 67 -359 67 -13 c 256
 67 78 79 180 102 295 c 256
 112 341 160 374 206 364 c 256
 252 354 284 307 274 261 c 256
 252 154 243 62 243 -13 c 256
 243 -253 350 -338 671 -338 c 256
 985 -338 1110 -219 1110 -119 c 256
 1110 -35 1065 -9 927 -7 c 256
 747 -4 486 34 486 324 c 256
 486 579 702 786 944 786 c 256
 1024 786 1108 762 1184 710 c 256
 1224 683 1234 628 1207 588 c 256
EndSplineSet
EndChar

StartChar: uniE04F
Encoding: 57423 57423 376
Width: 1959
GlyphClass: 2
Flags: HW
LayerCount: 2
Fore
SplineSet
2046 45 m 256
 2046 -3 2007 -42 1959 -42 c 258
 1958 -42 l 257
 1732 -42 1574 44 1518 265 c 257
 1364 31 1083 -72 711 -72 c 256
 336 -72 72 96 72 414 c 256
 72 487 86 565 112 649 c 256
 126 695 176 720 222 706 c 256
 268 692 294 643 280 597 c 256
 258 527 248 465 248 414 c 256
 248 226 378 102 711 102 c 256
 1173 102 1416 261 1480 573 c 256
 1488 613 1524 643 1564 643 c 256
 1614 643 1657 600 1653 550 c 256
 1651 520 1650 492 1650 465 c 256
 1650 201 1729 132 1958 132 c 257
 1959 132 l 258
 2007 132 2046 93 2046 45 c 256
EndSplineSet
EndChar

StartChar: uniE050
Encoding: 57424 57424 377
Width: 852
GlyphClass: 2
Flags: HW
LayerCount: 2
Fore
SplineSet
418 1134 m 256
 736 1134 780 689 780 399 c 256
 780 41 434 -42 0 -42 c 256
 -48 -42 -87 -3 -87 45 c 256
 -87 93 -48 132 0 132 c 256
 452 132 604 215 604 399 c 256
 604 739 532 958 412 958 c 256
 305 958 238 821 238 665 c 256
 238 549 305 502 435 502 c 256
 493 502 547 515 594 535 c 256
 638 553 690 532 708 488 c 256
 726 444 704 391 660 373 c 256
 595 347 519 328 435 328 c 256
 230 328 62 433 62 665 c 256
 62 839 148 1134 418 1134 c 256
EndSplineSet
EndChar

StartChar: uniE051
Encoding: 57425 57425 378
Width: 945
GlyphClass: 2
Flags: HW
LayerCount: 2
Fore
SplineSet
483 896 m 256
 709 896 840 703 840 499 c 256
 840 99 348 -42 0 -42 c 256
 -48 -42 -87 -3 -87 45 c 256
 -87 93 -48 132 0 132 c 256
 346 132 664 281 664 499 c 256
 664 637 591 720 483 720 c 256
 368 720 280 629 280 504 c 256
 280 281 578 132 944 132 c 257
 945 132 l 258
 993 132 1032 93 1032 45 c 256
 1032 -3 993 -42 945 -42 c 258
 944 -42 l 257
 574 -42 106 104 106 504 c 256
 106 715 263 896 483 896 c 256
EndSplineSet
EndChar

StartChar: uniE052
Encoding: 57426 57426 379
Width: 645
GlyphClass: 2
Flags: HW
LayerCount: 2
Fore
SplineSet
912 1790 m 256
 948 1778 974 1742 964 1687 c 256
 928 1573 850 1474 708 1474 c 256
 636 1474 578 1502 518 1538 c 256
 462 1572 414 1592 366 1592 c 256
 302 1592 238 1540 210 1445 c 256
 194 1401 142 1378 98 1394 c 256
 54 1410 33 1460 46 1506 c 256
 86 1656 212 1766 346 1766 c 256
 414 1766 480 1738 548 1700 c 256
 605 1668 655 1648 698 1648 c 256
 748 1648 776 1676 806 1734 c 256
 826 1784 874 1802 912 1790 c 256
388 1252 m 256
 435 1258 480 1225 486 1178 c 256
 518 938 532 797 532 531 c 256
 532 364 526 162 512 -6 c 256
 508 -53 465 -90 417 -86 c 256
 369 -82 333 -39 337 8 c 256
 351 170 358 368 358 531 c 256
 358 791 346 914 314 1154 c 256
 308 1201 341 1246 388 1252 c 256
EndSplineSet
EndChar

StartChar: uniE053
Encoding: 57427 57427 380
Width: 1383
GlyphClass: 2
Flags: HW
LayerCount: 2
Fore
SplineSet
944 958 m 256
 836 958 768 822 768 676 c 256
 768 554 832 502 966 502 c 256
 1024 502 1077 515 1124 535 c 256
 1168 553 1221 532 1239 488 c 256
 1257 444 1236 391 1192 373 c 256
 1127 347 1050 328 966 328 c 256
 761 328 594 433 594 665 c 256
 594 839 679 1134 949 1134 c 256
 1267 1134 1310 689 1310 398 c 256
 1310 254 1248 140 1148 70 c 256
 1025 -17 860 -42 698 -42 c 258
 697 -42 l 257
 458 -42 300 -25 201 80 c 256
 123 164 112 274 112 398 c 256
 112 658 115 934 125 1214 c 256
 127 1262 168 1300 216 1298 c 256
 264 1296 301 1256 299 1208 c 256
 289 932 288 658 288 398 c 256
 288 301 298 239 336 200 c 256
 386 150 489 132 697 132 c 257
 698 132 l 258
 844 132 971 159 1046 212 c 256
 1102 252 1136 304 1136 398 c 256
 1136 739 1074 958 944 958 c 256
EndSplineSet
EndChar

StartChar: uniE054
Encoding: 57428 57428 381
Width: 1921
GlyphClass: 2
Flags: HW
LayerCount: 2
Fore
SplineSet
1788 1350 m 256
 1809 1307 1791 1253 1748 1232 c 258
 1014 872 l 258
 971 851 919 869 898 912 c 256
 877 955 895 1009 938 1030 c 258
 1672 1390 l 258
 1715 1411 1767 1393 1788 1350 c 256
768 -72 m 256
 411 -72 72 -11 72 340 c 256
 72 403 83 473 106 551 c 256
 120 597 170 624 216 610 c 256
 261 596 288 547 274 501 c 256
 255 437 248 383 248 340 c 256
 248 163 389 102 768 102 c 256
 1200 102 1300 186 1300 303 c 256
 1300 415 1239 509 1167 605 c 256
 1093 707 1001 801 913 890 c 256
 877 926 882 986 920 1018 c 256
 954 1046 1006 1044 1038 1012 c 256
 1114 936 1184 861 1251 778 c 256
 1337 674 1408 570 1458 440 c 256
 1569 143 1609 132 1920 132 c 257
 1921 132 l 258
 1969 132 2009 93 2009 45 c 256
 2009 -3 1969 -42 1921 -42 c 258
 1920 -42 l 257
 1682 -42 1538 -29 1414 156 c 257
 1336 -20 1116 -72 768 -72 c 256
EndSplineSet
EndChar

StartChar: uniE055
Encoding: 57429 57429 382
Width: 532
GlyphClass: 2
Flags: HW
LayerCount: 2
Fore
SplineSet
266 750 m 256
 312 764 362 738 376 692 c 256
 416 566 440 453 440 349 c 256
 440 245 418 146 346 70 c 256
 268 -11 150 -42 0 -42 c 256
 -48 -42 -87 -3 -87 45 c 256
 -87 93 -48 132 0 132 c 256
 129 132 190 161 220 192 c 256
 248 220 264 267 264 349 c 256
 264 423 244 524 208 640 c 256
 194 686 220 736 266 750 c 256
EndSplineSet
EndChar

StartChar: uniE056
Encoding: 57430 57430 383
Width: 811
GlyphClass: 2
Flags: HW
LayerCount: 2
Fore
SplineSet
-88 45 m 256
 -88 93 -48 132 0 132 c 256
 30 132 58 134 82 136 c 256
 292 155 336 225 308 524 c 256
 304 574 344 619 394 619 c 256
 440 619 478 585 482 541 c 256
 517 196 516 132 810 132 c 257
 811 132 l 258
 859 132 899 93 899 45 c 256
 899 -3 859 -42 811 -42 c 258
 810 -42 l 257
 600 -42 484 10 410 151 c 257
 341 10 208 -42 0 -42 c 256
 -48 -42 -88 -3 -88 45 c 256
EndSplineSet
EndChar

StartChar: uniE057
Encoding: 57431 57431 384
Width: 1382
GlyphClass: 2
Flags: HW
LayerCount: 2
Fore
SplineSet
1470 45 m 256
 1470 -3 1430 -42 1382 -42 c 258
 1144 -42 l 257
 1240 -88 1288 -158 1288 -234 c 256
 1288 -460 1033 -598 703 -598 c 256
 276 -598 92 -366 92 -62 c 256
 92 98 137 273 201 449 c 256
 217 494 268 517 313 501 c 256
 358 485 382 434 366 389 c 256
 306 225 268 66 268 -62 c 256
 268 -280 354 -422 703 -422 c 256
 1015 -422 1114 -298 1114 -234 c 256
 1114 -176 1048 -76 764 -42 c 256
 724 -37 692 -3 688 38 c 256
 684 88 725 132 775 132 c 258
 1382 132 l 258
 1430 132 1470 93 1470 45 c 256
EndSplineSet
EndChar

StartChar: uniE058
Encoding: 57432 57432 385
Width: 1586
GlyphClass: 2
Flags: HW
LayerCount: 2
Fore
SplineSet
216 1298 m 256
 264 1296 301 1256 299 1208 c 256
 289 932 288 658 288 398 c 256
 288 300 297 238 334 199 c 256
 382 149 479 132 657 132 c 257
 658 132 l 258
 786 132 892 147 953 190 c 256
 994 218 1016 257 1016 312 c 256
 1016 467 820 695 629 890 c 256
 594 926 598 986 636 1018 c 256
 643 1024 654 1030 654 1030 c 257
 1388 1390 l 258
 1431 1411 1483 1393 1504 1350 c 256
 1525 1307 1507 1253 1464 1232 c 258
 838 925 l 257
 1000 753 1192 537 1192 312 c 256
 1192 200 1139 105 1052 47 c 256
 950 -21 814 -42 658 -42 c 258
 657 -42 l 257
 456 -42 298 -24 201 80 c 256
 123 163 112 275 112 398 c 256
 112 658 115 934 125 1214 c 256
 127 1262 168 1300 216 1298 c 256
EndSplineSet
EndChar

StartChar: uniE059
Encoding: 57433 57433 386
Width: 2206
GlyphClass: 2
Flags: HW
LayerCount: 2
Fore
SplineSet
313 501 m 256
 358 485 381 434 365 389 c 256
 305 225 268 66 268 -62 c 256
 268 -280 354 -422 703 -422 c 256
 1015 -422 1114 -298 1114 -234 c 256
 1114 -176 1048 -76 764 -42 c 256
 717 -36 682 9 688 56 c 256
 694 103 739 138 786 132 c 256
 1086 96 1288 -30 1288 -234 c 256
 1288 -460 1033 -598 703 -598 c 256
 276 -598 92 -366 92 -62 c 256
 92 98 137 273 201 449 c 256
 217 494 268 517 313 501 c 256
688 45 m 256
 688 93 727 132 775 132 c 258
 1152 132 l 258
 1558 132 1636 211 1636 312 c 256
 1636 467 1440 695 1249 890 c 256
 1214 926 1218 986 1256 1018 c 256
 1263 1024 1274 1030 1274 1030 c 257
 2008 1390 l 258
 2051 1411 2103 1393 2124 1350 c 256
 2145 1307 2127 1253 2084 1232 c 258
 1458 925 l 257
 1620 753 1812 537 1812 312 c 256
 1812 35 1538 -42 1152 -42 c 258
 775 -42 l 258
 727 -42 688 -3 688 45 c 256
EndSplineSet
EndChar

StartChar: uniE05A
Encoding: 57434 57434 387
Width: 1645
GlyphClass: 2
Flags: HW
LayerCount: 2
Fore
SplineSet
216 1298 m 256
 264 1296 301 1256 299 1208 c 256
 289 932 288 658 288 398 c 256
 288 300 297 238 334 199 c 256
 382 149 479 132 657 132 c 257
 658 132 l 258
 786 132 892 147 953 190 c 256
 994 218 1016 257 1016 312 c 256
 1016 467 820 695 629 890 c 256
 594 926 598 986 636 1018 c 256
 643 1024 654 1030 654 1030 c 257
 1388 1390 l 258
 1431 1411 1483 1393 1504 1350 c 256
 1525 1307 1507 1253 1464 1232 c 258
 838 925 l 257
 1000 753 1192 537 1192 312 c 256
 1192 200 1139 105 1052 47 c 256
 950 -21 814 -42 658 -42 c 258
 657 -42 l 257
 456 -42 298 -24 201 80 c 256
 123 163 112 275 112 398 c 256
 112 658 115 934 125 1214 c 256
 127 1262 168 1300 216 1298 c 256
631 1013 m 256
 665 1047 720 1046 754 1012 c 256
 924 840 1088 667 1168 462 c 256
 1290 149 1342 132 1644 132 c 257
 1645 132 l 258
 1693 132 1733 93 1733 45 c 256
 1733 -3 1693 -42 1645 -42 c 258
 1644 -42 l 257
 1298 -42 1146 18 1004 396 c 256
 945 553 798 718 630 890 c 256
 596 924 597 979 631 1013 c 256
EndSplineSet
EndChar

StartChar: uniE05B
Encoding: 57435 57435 388
Width: 2265
GlyphClass: 2
Flags: HW
LayerCount: 2
Fore
SplineSet
1251 1013 m 256
 1285 1047 1340 1046 1374 1012 c 256
 1544 840 1711 663 1788 458 c 256
 1912 129 1947 132 2264 132 c 257
 2265 132 l 258
 2313 132 2353 93 2353 45 c 256
 2353 -3 2313 -42 2265 -42 c 258
 2264 -42 l 257
 1918 -42 1766 18 1624 396 c 256
 1565 553 1418 718 1250 890 c 256
 1216 924 1217 979 1251 1013 c 256
313 501 m 256
 358 485 381 434 365 389 c 256
 305 225 268 66 268 -62 c 256
 268 -280 354 -422 703 -422 c 256
 1015 -422 1114 -298 1114 -234 c 256
 1114 -176 1048 -76 764 -42 c 256
 717 -36 682 9 688 56 c 256
 694 103 739 138 786 132 c 256
 1086 96 1288 -30 1288 -234 c 256
 1288 -460 1033 -598 703 -598 c 256
 276 -598 92 -366 92 -62 c 256
 92 98 137 273 201 449 c 256
 217 494 268 517 313 501 c 256
688 45 m 256
 688 93 727 132 775 132 c 258
 1102 132 l 258
 1514 132 1636 220 1636 312 c 256
 1636 467 1440 695 1249 890 c 256
 1214 926 1218 986 1256 1018 c 256
 1263 1024 1274 1030 1274 1030 c 257
 2008 1390 l 258
 2051 1411 2103 1393 2124 1350 c 256
 2145 1307 2127 1253 2084 1232 c 258
 1458 925 l 257
 1620 753 1812 537 1812 312 c 256
 1812 26 1482 -42 1102 -42 c 258
 775 -42 l 258
 727 -42 688 -3 688 45 c 256
EndSplineSet
EndChar

StartChar: uniE05C
Encoding: 57436 57436 389
Width: 2443
GlyphClass: 2
Flags: HW
LayerCount: 2
Fore
SplineSet
690 -654 m 256
 336 -654 92 -494 92 -126 c 256
 92 11 122 156 162 300 c 256
 175 346 224 375 270 362 c 256
 316 349 343 300 330 254 c 256
 292 118 268 -15 268 -126 c 256
 268 -386 390 -478 690 -478 c 256
 918 -478 1084 -398 1084 -300 c 256
 1084 -222 1004 -203 902 -185 c 256
 769 -163 556 -104 556 110 c 256
 556 422 898 573 1190 621 c 256
 1235 628 1278 598 1288 557 c 256
 1368 251 1431 112 1542 112 c 256
 1662 112 1694 266 1726 500 c 256
 1732 547 1778 580 1825 574 c 256
 1872 568 1903 524 1899 476 c 256
 1875 269 1817 -62 1542 -62 c 256
 1298 -62 1209 194 1142 432 c 257
 894 376 730 256 730 114 c 256
 730 34 826 8 936 -13 c 256
 1111 -45 1260 -96 1260 -300 c 256
 1260 -591 901 -654 690 -654 c 256
1827 574 m 256
 1874 567 1903 524 1899 476 c 256
 1895 440 1891 387 1891 340 c 256
 1891 196 1944 114 2044 114 c 256
 2159 114 2196 178 2196 286 c 256
 2196 388 2170 486 2138 594 c 256
 2124 640 2152 689 2198 703 c 256
 2244 717 2292 690 2306 644 c 256
 2338 534 2370 418 2370 286 c 256
 2370 96 2268 -60 2046 -60 c 256
 1800 -60 1716 172 1716 368 c 256
 1716 412 1719 458 1726 502 c 256
 1733 549 1780 581 1827 574 c 256
EndSplineSet
EndChar

StartChar: uniE05D
Encoding: 57437 57437 390
Width: 2538
GlyphClass: 2
Flags: HW
LayerCount: 2
Fore
SplineSet
690 -654 m 256
 336 -654 92 -494 92 -126 c 256
 92 11 122 156 162 300 c 256
 175 346 224 375 270 362 c 256
 316 349 343 300 330 254 c 256
 292 118 268 -15 268 -126 c 256
 268 -386 390 -479 690 -479 c 256
 918 -479 1084 -398 1084 -300 c 256
 1084 -222 1004 -203 902 -185 c 256
 769 -163 556 -104 556 110 c 256
 556 422 898 573 1190 621 c 256
 1235 628 1278 598 1288 557 c 256
 1355 301 1540 112 1832 112 c 256
 2109 112 2290 227 2290 414 c 256
 2290 528 2215 602 2098 602 c 256
 1876 602 1624 221 1532 -28 c 256
 1516 -72 1465 -96 1420 -80 c 256
 1375 -64 1352 -12 1368 32 c 256
 1460 279 1720 778 2098 778 c 256
 2305 778 2466 624 2466 414 c 256
 2466 77 2137 -62 1832 -62 c 256
 1484 -62 1246 155 1146 433 c 257
 898 377 730 256 730 114 c 256
 730 34 826 8 936 -13 c 256
 1111 -45 1260 -96 1260 -300 c 256
 1260 -591 901 -654 690 -654 c 256
EndSplineSet
EndChar

StartChar: uniE05E
Encoding: 57438 57438 391
Width: 2690
GlyphClass: 2
Flags: HW
LayerCount: 2
Fore
SplineSet
2290 414 m 256
 2290 528 2215 602 2098 602 c 256
 1874 602 1626 217 1578 89 c 256
 1562 45 1510 22 1465 38 c 256
 1420 54 1397 106 1413 150 c 256
 1465 288 1722 778 2098 778 c 256
 2305 778 2466 624 2466 414 c 256
 2466 77 2137 -62 1832 -62 c 256
 1484 -62 1246 155 1146 433 c 257
 894 375 730 256 730 114 c 256
 730 34 826 8 936 -13 c 256
 1111 -45 1260 -96 1260 -300 c 256
 1260 -591 901 -654 690 -654 c 256
 336 -654 92 -494 92 -126 c 256
 92 11 122 156 162 300 c 256
 175 346 224 375 270 362 c 256
 316 349 343 300 330 254 c 256
 292 118 268 -15 268 -126 c 256
 268 -386 390 -479 690 -479 c 256
 918 -479 1084 -398 1084 -300 c 256
 1084 -222 1004 -203 902 -185 c 256
 769 -163 556 -104 556 110 c 256
 556 422 898 573 1190 621 c 256
 1235 628 1278 598 1288 557 c 256
 1355 301 1540 112 1832 112 c 256
 2109 112 2290 227 2290 414 c 256
2310 338 m 256
 2354 354 2406 332 2422 287 c 256
 2463 176 2509 132 2689 132 c 257
 2690 132 l 258
 2738 132 2778 93 2778 45 c 256
 2778 -3 2738 -42 2690 -42 c 258
 2689 -42 l 257
 2460 -42 2323 51 2258 226 c 256
 2242 271 2266 322 2310 338 c 256
EndSplineSet
EndChar

StartChar: uniE05F
Encoding: 57439 57439 392
Width: 531
GlyphClass: 2
Flags: HW
LayerCount: 2
Fore
SplineSet
216 1298 m 256
 264 1296 302 1256 300 1208 c 256
 292 998 288 789 288 587 c 256
 288 184 312 132 530 132 c 257
 531 132 l 258
 579 132 618 93 618 45 c 256
 618 -3 579 -42 531 -42 c 258
 530 -42 l 257
 181 -42 112 142 112 587 c 256
 112 791 118 1002 126 1214 c 256
 128 1262 168 1300 216 1298 c 256
EndSplineSet
EndChar

StartChar: uniE060
Encoding: 57440 57440 393
Width: 1332
GlyphClass: 2
Flags: HW
LayerCount: 2
Fore
SplineSet
693 -680 m 256
 413 -680 72 -546 72 -201 c 256
 72 239 598 449 838 526 c 257
 701 593 508 678 432 678 c 256
 362 678 309 639 269 529 c 256
 253 485 202 459 157 475 c 256
 112 491 87 542 103 587 c 256
 169 775 287 852 433 852 c 256
 603 852 974 662 1108 592 c 256
 1145 571 1180 549 1180 507 c 256
 1180 464 1146 427 1101 418 c 256
 965 395 248 202 248 -201 c 256
 248 -394 443 -506 693 -506 c 256
 816 -506 939 -476 1047 -418 c 256
 1089 -396 1144 -413 1166 -455 c 256
 1188 -497 1171 -552 1129 -574 c 256
 995 -644 844 -680 693 -680 c 256
1420 45 m 256
 1420 -3 1380 -42 1332 -42 c 258
 1331 -42 l 257
 1041 -42 805 134 805 458 c 256
 805 506 844 545 892 545 c 256
 940 545 980 506 980 458 c 256
 980 238 1112 132 1331 132 c 257
 1332 132 l 258
 1380 132 1420 93 1420 45 c 256
EndSplineSet
EndChar

StartChar: uniE061
Encoding: 57441 57441 394
Width: 1332
GlyphClass: 2
Flags: HW
LayerCount: 2
Fore
SplineSet
128 448 m 256
 82 460 54 508 66 554 c 256
 116 746 263 854 415 854 c 256
 560 854 710 761 858 677 c 256
 968 615 1078 554 1169 524 c 256
 1217 508 1242 453 1222 407 c 256
 1210 379 1184 359 1158 355 c 256
 1052 336 944 277 818 205 c 256
 616 91 354 -42 0 -42 c 256
 -48 -42 -87 -3 -87 45 c 256
 -87 93 -48 132 0 132 c 256
 308 132 536 245 730 357 c 256
 794 393 854 427 919 449 c 257
 871 469 822 497 772 525 c 256
 620 611 482 680 415 680 c 256
 351 680 266 634 234 510 c 256
 222 464 174 436 128 448 c 256
EndSplineSet
EndChar

StartChar: uniE062
Encoding: 57442 57442 395
Width: 1351
GlyphClass: 2
Flags: HW
LayerCount: 2
Fore
SplineSet
953 464 m 256
 1001 464 1040 425 1040 377 c 256
 1040 229 1150 132 1350 132 c 257
 1351 132 l 258
 1399 132 1439 93 1439 45 c 256
 1439 -3 1399 -42 1351 -42 c 258
 1350 -42 l 257
 1089 -42 866 109 866 377 c 256
 866 425 905 464 953 464 c 256
128 448 m 256
 82 460 54 508 66 554 c 256
 116 746 263 854 415 854 c 256
 560 854 710 761 858 677 c 256
 968 615 1078 554 1169 524 c 256
 1217 508 1242 453 1222 407 c 256
 1210 379 1184 359 1158 355 c 256
 1052 336 944 277 818 205 c 256
 616 91 354 -42 0 -42 c 256
 -48 -42 -87 -3 -87 45 c 256
 -87 93 -48 132 0 132 c 256
 308 132 536 245 730 357 c 256
 794 393 854 427 919 449 c 257
 871 469 822 497 772 525 c 256
 620 611 482 680 415 680 c 256
 351 680 266 634 234 510 c 256
 222 464 174 436 128 448 c 256
EndSplineSet
EndChar

StartChar: uniE063
Encoding: 57443 57443 396
Width: 1120
GlyphClass: 2
Flags: HW
LayerCount: 2
Fore
SplineSet
1208 45 m 256
 1208 -3 1168 -42 1120 -42 c 258
 1119 -42 l 257
 815 -41 721 213 658 392 c 256
 610 532 574 606 506 742 c 256
 485 785 503 839 546 860 c 256
 589 881 643 863 664 820 c 256
 732 684 774 596 824 448 c 256
 891 257 944 132 1119 132 c 257
 1120 132 l 258
 1168 132 1208 93 1208 45 c 256
718 482 m 256
 763 498 812 475 828 430 c 256
 844 388 856 343 856 297 c 256
 856 21 607 -72 389 -72 c 256
 302 -72 228 -62 142 -31 c 256
 97 -15 76 38 92 82 c 256
 108 126 156 146 204 132 c 256
 268 110 322 102 389 102 c 256
 581 102 680 165 680 297 c 256
 680 323 674 346 666 370 c 256
 650 415 673 466 718 482 c 256
EndSplineSet
EndChar

StartChar: uniE064
Encoding: 57444 57444 397
Width: 917
GlyphClass: 2
Flags: HW
LayerCount: 2
Fore
SplineSet
1004 45 m 256
 1004 -3 965 -42 917 -42 c 258
 916 -42 l 257
 774 -42 665 -5 589 74 c 256
 493 174 463 310 427 464 c 256
 416 510 446 558 492 569 c 256
 538 580 586 550 597 504 c 256
 635 348 667 244 715 194 c 256
 750 157 801 132 916 132 c 257
 917 132 l 258
 965 132 1004 93 1004 45 c 256
490 568 m 256
 536 580 584 552 596 506 c 256
 639 344 664 200 664 71 c 256
 664 -210 492 -422 192 -538 c 256
 148 -555 95 -532 78 -488 c 256
 61 -444 84 -393 128 -376 c 256
 382 -278 490 -128 490 71 c 256
 490 178 469 308 428 462 c 256
 416 508 444 556 490 568 c 256
EndSplineSet
EndChar

StartChar: uniE065
Encoding: 57445 57445 398
Width: 2402
GlyphClass: 2
Flags: HW
LayerCount: 2
Fore
SplineSet
290 440 m 256
 334 422 355 370 337 326 c 256
 283 195 248 58 248 -58 c 256
 248 -242 348 -386 644 -386 c 256
 922 -386 1032 -236 1032 -23 c 256
 1032 89 1005 221 956 352 c 256
 940 396 964 448 1008 464 c 256
 1052 480 1104 456 1120 412 c 256
 1174 265 1208 117 1208 -23 c 256
 1208 -320 1012 -560 644 -560 c 256
 270 -560 72 -338 72 -58 c 256
 72 90 115 247 175 392 c 256
 193 436 246 458 290 440 c 256
1008 464 m 256
 1052 480 1104 456 1120 412 c 256
 1206 182 1277 108 1376 108 c 256
 1483 108 1546 162 1576 430 c 256
 1582 477 1625 512 1672 506 c 256
 1719 500 1755 457 1749 410 c 256
 1713 90 1590 -68 1382 -68 c 256
 1175 -68 1048 108 956 352 c 256
 940 396 964 448 1008 464 c 256
1674 506 m 256
 1721 500 1754 455 1748 408 c 256
 1740 352 1738 315 1738 265 c 256
 1738 155 1788 104 1864 104 c 256
 1944 104 1986 174 1986 309 c 256
 1986 368 1979 433 1967 497 c 256
 1958 543 1991 590 2037 599 c 256
 2083 608 2130 575 2139 529 c 256
 2153 457 2162 382 2162 309 c 256
 2162 136 2082 -72 1866 -72 c 256
 1684 -72 1562 72 1562 265 c 256
 1562 323 1568 372 1576 432 c 256
 1582 479 1627 512 1674 506 c 256
2038 599 m 256
 2085 607 2131 575 2139 528 c 256
 2192 214 2218 132 2401 132 c 257
 2402 132 l 258
 2450 132 2490 93 2490 45 c 256
 2490 -3 2450 -42 2402 -42 c 258
 2401 -42 l 257
 2079 -42 2017 203 1967 498 c 256
 1959 545 1991 591 2038 599 c 256
EndSplineSet
EndChar

StartChar: uniE066
Encoding: 57446 57446 399
Width: 1545
GlyphClass: 2
Flags: HW
LayerCount: 2
Fore
SplineSet
1290 700 m 256
 1334 717 1385 694 1402 650 c 256
 1436 560 1472 426 1472 295 c 256
 1472 146 1397 -60 1171 -60 c 256
 926 -60 820 175 820 387 c 256
 820 425 822 463 828 501 c 256
 835 548 881 581 928 574 c 256
 975 567 1009 522 1002 475 c 256
 998 445 994 415 994 387 c 256
 994 203 1062 114 1162 114 c 256
 1254 114 1298 184 1298 295 c 256
 1298 394 1268 516 1240 588 c 256
 1223 632 1246 683 1290 700 c 256
924 575 m 256
 971 571 1006 528 1002 480 c 256
 982 278 902 -62 583 -62 c 256
 386 -62 286 109 286 275 c 256
 286 361 291 407 304 495 c 256
 311 542 357 575 404 568 c 256
 451 561 485 516 478 469 c 256
 465 381 461 345 461 275 c 256
 461 175 514 112 598 112 c 256
 742 112 805 256 828 496 c 256
 832 544 877 579 924 575 c 256
399 569 m 256
 446 565 482 522 478 474 c 256
 454 204 331 -42 0 -42 c 256
 -48 -42 -87 -3 -87 45 c 256
 -87 93 -48 132 0 132 c 256
 211 132 284 254 304 490 c 256
 308 538 352 573 399 569 c 256
EndSplineSet
EndChar

StartChar: uniE067
Encoding: 57447 57447 400
Width: 1767
GlyphClass: 2
Flags: HW
LayerCount: 2
Fore
SplineSet
1854 45 m 256
 1854 -3 1815 -42 1767 -42 c 258
 1766 -42 l 257
 1476 -42 1391 143 1347 560 c 256
 1342 607 1377 651 1424 656 c 256
 1471 661 1517 625 1522 578 c 256
 1564 183 1594 132 1766 132 c 257
 1767 132 l 258
 1815 132 1854 93 1854 45 c 256
1429 656 m 256
 1477 659 1518 622 1521 574 c 256
 1524 524 1526 473 1526 419 c 256
 1526 223 1463 -58 1189 -58 c 256
 919 -58 852 205 852 399 c 256
 852 431 854 464 856 496 c 256
 860 544 901 581 949 577 c 256
 997 573 1034 532 1030 484 c 256
 1028 456 1028 429 1028 399 c 256
 1028 213 1075 118 1189 118 c 256
 1306 118 1352 224 1352 419 c 256
 1352 468 1350 516 1347 564 c 256
 1344 612 1381 653 1429 656 c 256
955 576 m 256
 1002 570 1036 525 1030 478 c 256
 1000 269 932 -62 612 -62 c 256
 376 -62 312 144 312 344 c 256
 312 387 314 456 318 500 c 256
 322 548 364 584 412 580 c 256
 460 576 496 534 492 486 c 256
 489 450 486 379 486 344 c 256
 486 185 516 114 622 114 c 256
 768 114 824 271 856 502 c 256
 862 549 908 582 955 576 c 256
413 580 m 256
 460 576 496 533 492 485 c 256
 464 161 338 -42 0 -42 c 256
 -48 -42 -87 -3 -87 45 c 256
 -87 93 -48 132 0 132 c 256
 234 132 292 215 318 501 c 256
 322 549 366 584 413 580 c 256
EndSplineSet
EndChar

StartChar: uniE068
Encoding: 57448 57448 401
Width: 2424
GlyphClass: 2
Flags: HW
LayerCount: 2
Fore
SplineSet
2232 408 m 256
 2232 87 1892 -42 1650 -42 c 256
 1261 -42 1070 92 970 332 c 256
 952 376 974 428 1018 446 c 256
 1062 464 1114 444 1132 400 c 256
 1204 226 1337 132 1650 132 c 256
 1862 132 2058 253 2058 400 c 256
 2058 490 1986 552 1870 552 c 256
 1688 552 1531 406 1407 144 c 256
 1387 100 1335 82 1291 102 c 256
 1247 122 1229 174 1249 218 c 256
 1381 498 1574 728 1873 728 c 256
 2052 728 2232 614 2232 408 c 256
1024 450 m 256
 1070 465 1119 439 1134 393 c 256
 1181 249 1206 114 1206 -7 c 256
 1206 -345 989 -560 589 -560 c 256
 345 -560 72 -430 72 -117 c 256
 72 69 158 267 260 428 c 256
 286 468 342 481 382 455 c 256
 422 429 434 374 408 334 c 256
 316 191 248 17 248 -117 c 256
 248 -298 391 -386 589 -386 c 256
 917 -386 1032 -251 1032 -7 c 256
 1032 90 1011 207 968 339 c 256
 953 385 978 435 1024 450 c 256
2042 302 m 256
 2084 325 2137 309 2160 267 c 256
 2206 181 2264 132 2423 132 c 257
 2424 132 l 258
 2472 132 2512 93 2512 45 c 256
 2512 -3 2472 -42 2424 -42 c 258
 2423 -42 l 257
 2214 -42 2080 46 2006 184 c 256
 1983 226 2000 279 2042 302 c 256
EndSplineSet
EndChar

StartChar: uniE069
Encoding: 57449 57449 402
Width: 1546
GlyphClass: 2
Flags: HW
LayerCount: 2
Fore
SplineSet
1299 434 m 256
 1299 548 1223 622 1106 622 c 256
 885 622 641 278 501 -78 c 256
 487 -114 445 -134 409 -120 c 256
 373 -106 353 -65 367 -28 c 256
 470 250 727 798 1106 798 c 256
 1313 798 1474 644 1474 434 c 256
 1474 88 1081 -42 809 -42 c 256
 411 -42 266 105 266 485 c 256
 266 533 305 572 353 572 c 256
 401 572 441 533 441 485 c 256
 441 187 489 132 809 132 c 256
 1063 132 1299 256 1299 434 c 256
353 572 m 256
 401 572 440 533 440 485 c 256
 440 114 308 -42 0 -42 c 256
 -48 -42 -87 -3 -87 45 c 256
 -87 93 -48 132 0 132 c 256
 216 132 266 175 266 485 c 256
 266 533 305 572 353 572 c 256
EndSplineSet
EndChar

StartChar: uniE06A
Encoding: 57450 57450 403
Width: 1671
GlyphClass: 2
Flags: HW
LayerCount: 2
Fore
SplineSet
1466 434 m 256
 1466 84 1048 -42 780 -42 c 256
 398 -42 265 143 265 485 c 256
 265 533 304 572 352 572 c 256
 400 572 440 533 440 485 c 256
 440 203 482 132 780 132 c 256
 1038 132 1292 260 1292 434 c 256
 1292 544 1211 622 1103 622 c 256
 941 622 744 414 580 82 c 256
 559 39 505 21 462 42 c 256
 419 63 401 117 422 160 c 256
 586 492 809 798 1103 798 c 256
 1290 798 1466 648 1466 434 c 256
358 572 m 256
 406 568 443 526 439 478 c 256
 415 162 318 -42 0 -42 c 256
 -48 -42 -87 -3 -87 45 c 256
 -87 93 -48 132 0 132 c 256
 202 132 241 194 265 492 c 256
 269 540 310 576 358 572 c 256
1290 339 m 256
 1334 355 1387 333 1403 288 c 256
 1444 177 1490 132 1670 132 c 257
 1671 132 l 258
 1719 132 1759 93 1759 45 c 256
 1759 -3 1719 -42 1671 -42 c 258
 1670 -42 l 257
 1441 -42 1304 51 1239 226 c 256
 1223 271 1246 323 1290 339 c 256
EndSplineSet
EndChar

StartChar: uniE06B
Encoding: 57451 57451 404
Width: 1656
GlyphClass: 2
Flags: HW
LayerCount: 2
Fore
SplineSet
1266 449 m 256
 1266 551 1193 626 1090 626 c 256
 864 626 638 311 530 27 c 256
 514 -17 462 -40 418 -24 c 256
 374 -8 350 45 366 89 c 256
 474 377 722 800 1090 800 c 256
 1289 800 1442 645 1442 449 c 256
 1442 -75 598 -42 160 -42 c 256
 112 -42 72 -3 72 45 c 256
 72 93 112 132 160 132 c 256
 694 132 1266 165 1266 449 c 256
416 -24 m 256
 372 -7 348 46 366 90 c 256
 428 248 454 470 454 716 c 256
 454 871 445 1036 429 1202 c 256
 425 1249 460 1294 508 1298 c 256
 556 1302 600 1267 604 1220 c 256
 620 1050 630 879 630 716 c 256
 630 458 606 218 530 26 c 256
 512 -18 460 -41 416 -24 c 256
1256 346 m 256
 1300 365 1351 344 1370 300 c 256
 1419 185 1516 132 1655 132 c 257
 1656 132 l 258
 1704 132 1744 93 1744 45 c 256
 1744 -3 1704 -42 1656 -42 c 258
 1655 -42 l 257
 1467 -42 1291 41 1210 232 c 256
 1191 276 1212 327 1256 346 c 256
EndSplineSet
EndChar

StartChar: uniE06C
Encoding: 57452 57452 405
Width: 1250
GlyphClass: 2
Flags: HW
LayerCount: 2
Fore
SplineSet
238 1298 m 256
 285 1304 328 1268 334 1221 c 256
 350 1087 358 947 358 747 c 256
 358 460 285 115 164 -100 c 256
 144 -134 100 -146 66 -126 c 256
 32 -106 18 -63 38 -29 c 256
 140 152 184 478 184 747 c 256
 184 943 176 1073 162 1201 c 256
 156 1248 191 1292 238 1298 c 256
1002 466 m 256
 1002 560 928 632 816 632 c 256
 546 632 296 211 166 -93 c 256
 150 -129 108 -146 72 -130 c 256
 36 -114 22 -73 36 -36 c 256
 126 185 386 806 816 806 c 256
 1006 806 1178 670 1178 466 c 256
 1178 -30 376 -40 10 -40 c 256
 -30 -40 -87 -3 -87 45 c 256
 -87 93 -48 132 0 132 c 256
 480 132 1002 202 1002 466 c 256
EndSplineSet
EndChar

StartChar: uniE06D
Encoding: 57453 57453 406
Width: 1338
GlyphClass: 2
Flags: HW
LayerCount: 2
Fore
SplineSet
318 1298 m 256
 365 1302 409 1268 413 1220 c 256
 429 1050 440 879 440 716 c 256
 440 458 416 218 340 26 c 256
 323 -18 270 -41 226 -24 c 256
 182 -7 160 46 177 90 c 256
 239 248 264 470 264 716 c 256
 264 871 255 1036 239 1202 c 256
 235 1250 271 1294 318 1298 c 256
1244 444 m 256
 1244 -27 530 -42 0 -42 c 256
 -48 -42 -87 -3 -87 45 c 256
 -87 93 -48 132 0 132 c 256
 615 132 1070 185 1070 448 c 256
 1070 533 1016 624 882 624 c 256
 656 624 437 276 340 26 c 256
 323 -18 270 -41 226 -24 c 256
 182 -7 159 46 176 90 c 256
 270 329 502 798 872 798 c 256
 1124 798 1244 608 1244 444 c 256
1002 285 m 256
 1046 305 1098 287 1118 243 c 256
 1158 157 1203 132 1337 132 c 257
 1338 132 l 258
 1386 132 1426 93 1426 45 c 256
 1426 -3 1386 -42 1338 -42 c 258
 1337 -42 l 257
 1170 -42 1033 13 960 169 c 256
 940 213 958 265 1002 285 c 256
EndSplineSet
EndChar

StartChar: uniE06E
Encoding: 57454 57454 407
Width: 1092
GlyphClass: 2
Flags: HW
LayerCount: 2
Fore
SplineSet
1180 45 m 256
 1180 -3 1140 -42 1092 -42 c 258
 1091 -42 l 257
 692 -41 307 307 118 584 c 256
 92 624 100 680 140 706 c 256
 180 732 236 724 262 684 c 256
 434 431 792 133 1091 132 c 257
 1092 132 l 258
 1140 132 1180 93 1180 45 c 256
128 572 m 256
 94 606 94 662 128 696 c 256
 222 790 405 864 575 864 c 256
 729 864 938 788 938 586 c 256
 938 409 800 314 634 222 c 256
 442 115 248 -53 248 -285 c 256
 248 -467 410 -558 674 -558 c 256
 744 -558 818 -551 890 -537 c 256
 936 -529 983 -561 991 -608 c 256
 999 -655 966 -701 920 -709 c 256
 838 -723 756 -732 674 -732 c 256
 390 -732 72 -621 72 -285 c 256
 72 53 344 261 548 375 c 256
 720 471 764 517 764 582 c 256
 764 650 675 688 575 688 c 256
 453 688 318 630 252 572 c 256
 214 543 162 538 128 572 c 256
EndSplineSet
EndChar

StartChar: uniE06F
Encoding: 57455 57455 408
Width: 1020
GlyphClass: 2
Flags: HW
LayerCount: 2
Fore
SplineSet
798 655 m 256
 766 620 710 618 674 650 c 256
 636 685 581 704 525 704 c 256
 393 704 264 582 264 437 c 256
 264 314 357 236 510 236 c 256
 568 236 627 242 686 252 c 256
 741 260 796 268 856 270 c 256
 904 272 946 234 948 186 c 256
 950 138 912 98 864 96 c 256
 815 94 764 88 712 80 c 256
 649 70 580 62 510 62 c 256
 295 62 90 194 90 437 c 256
 90 680 293 880 525 880 c 256
 621 880 718 845 792 778 c 256
 828 746 830 690 798 655 c 256
948 183 m 256
 948 135 908 96 860 96 c 256
 751 96 676 73 576 43 c 256
 445 3 281 -42 0 -42 c 256
 -48 -42 -87 -3 -87 45 c 256
 -87 93 -48 132 0 132 c 256
 263 132 397 173 526 211 c 256
 626 241 725 270 860 270 c 256
 908 270 948 231 948 183 c 256
EndSplineSet
EndChar

StartChar: uniE070
Encoding: 57456 57456 409
Width: 1040
GlyphClass: 2
Flags: HW
LayerCount: 2
Fore
SplineSet
521 805 m 256
 689 805 930 711 930 483 c 256
 930 107 294 -42 0 -42 c 256
 -48 -42 -87 -3 -87 45 c 256
 -87 93 -48 132 0 132 c 256
 311 132 754 320 754 488 c 256
 754 574 651 629 534 629 c 256
 449 629 336 590 262 540 c 257
 416 357 698 132 1039 132 c 257
 1040 132 l 258
 1088 132 1128 93 1128 45 c 256
 1128 -3 1088 -42 1040 -42 c 258
 1039 -42 l 257
 569 -42 219 290 63 508 c 256
 38 544 44 593 74 622 c 256
 182 724 367 805 521 805 c 256
EndSplineSet
EndChar

StartChar: uniE071
Encoding: 57457 57457 410
Width: 1829
GlyphClass: 2
Flags: HW
LayerCount: 2
Fore
SplineSet
1399 870 m 256
 1629 870 1752 694 1752 484 c 256
 1752 21 1248 -72 840 -72 c 256
 493 -72 72 -48 72 336 c 256
 72 416 91 506 129 608 c 256
 145 652 197 675 242 659 c 256
 287 643 310 590 294 546 c 256
 261 458 248 388 248 336 c 256
 248 148 445 102 840 102 c 256
 1266 102 1576 203 1576 484 c 256
 1576 624 1509 694 1403 694 c 256
 1305 694 1222 622 1222 472 c 256
 1222 244 1459 132 1828 132 c 257
 1829 132 l 258
 1877 132 1916 93 1916 45 c 256
 1916 -3 1877 -42 1829 -42 c 258
 1828 -42 l 257
 1458 -42 1048 75 1048 472 c 256
 1048 692 1191 870 1399 870 c 256
EndSplineSet
EndChar

StartChar: uniE072
Encoding: 57458 57458 411
Width: 1461
GlyphClass: 2
Flags: HW
LayerCount: 2
Fore
SplineSet
972 582 m 256
 868 582 796 460 796 316 c 256
 796 169 863 132 1008 132 c 258
 1461 132 l 258
 1509 132 1548 93 1548 45 c 256
 1548 -3 1509 -42 1461 -42 c 258
 1018 -44 l 258
 789 -44 620 59 620 316 c 256
 620 502 735 758 977 758 c 256
 1307 758 1348 356 1348 121 c 256
 1348 -302 1088 -550 704 -550 c 256
 293 -550 72 -330 72 -17 c 256
 72 123 113 275 181 430 c 256
 201 474 252 494 296 474 c 256
 340 454 361 402 341 358 c 256
 279 219 248 89 248 -17 c 256
 248 -228 361 -374 704 -374 c 256
 1000 -374 1174 -218 1174 121 c 256
 1174 390 1108 582 972 582 c 256
EndSplineSet
EndChar

StartChar: uniE073
Encoding: 57459 57459 412
Width: 1772
GlyphClass: 2
Flags: HW
LayerCount: 2
Fore
SplineSet
1860 45 m 256
 1860 -3 1820 -42 1772 -42 c 258
 1771 -42 l 257
 1518 -42 1303 114 1303 431 c 256
 1303 479 1342 518 1390 518 c 256
 1438 518 1478 479 1478 431 c 256
 1478 213 1595 132 1771 132 c 257
 1772 132 l 258
 1820 132 1860 93 1860 45 c 256
1335 1298 m 256
 1382 1304 1426 1269 1432 1222 c 256
 1461 1000 1478 672 1478 431 c 256
 1478 52 1089 -72 786 -72 c 256
 498 -72 72 -36 72 363 c 256
 72 447 97 532 132 610 c 256
 152 654 203 674 247 654 c 256
 291 634 311 582 291 538 c 256
 264 478 248 413 248 363 c 256
 248 152 464 104 786 104 c 256
 1075 104 1302 214 1302 431 c 256
 1302 664 1287 992 1260 1200 c 256
 1254 1247 1288 1292 1335 1298 c 256
EndSplineSet
EndChar

StartChar: uniE074
Encoding: 57460 57460 413
Width: 1054
GlyphClass: 2
Flags: HW
LayerCount: 2
Fore
SplineSet
-88 45 m 256
 -88 93 -48 132 0 132 c 256
 406 132 484 211 484 312 c 256
 484 467 288 695 97 890 c 256
 62 926 66 986 104 1018 c 256
 111 1024 122 1030 122 1030 c 257
 856 1390 l 258
 899 1411 951 1393 972 1350 c 256
 993 1307 975 1253 932 1232 c 258
 306 925 l 257
 468 753 660 537 660 312 c 256
 660 35 386 -42 0 -42 c 256
 -48 -42 -88 -3 -88 45 c 256
EndSplineSet
EndChar

StartChar: uniE075
Encoding: 57461 57461 414
Width: 1113
GlyphClass: 2
Flags: HW
LayerCount: 2
Fore
SplineSet
82 912 m 256
 61 955 79 1009 122 1030 c 258
 856 1390 l 258
 899 1411 951 1393 972 1350 c 256
 993 1307 975 1253 932 1232 c 258
 198 872 l 258
 155 851 103 869 82 912 c 256
-88 45 m 256
 -88 93 -48 132 0 132 c 256
 392 132 484 192 484 312 c 256
 484 466 285 700 97 890 c 256
 62 926 66 986 104 1018 c 256
 138 1047 191 1044 222 1012 c 256
 392 840 563 659 636 457 c 256
 748 147 794 132 1112 132 c 257
 1113 132 l 258
 1161 132 1201 93 1201 45 c 256
 1201 -3 1161 -42 1113 -42 c 258
 1112 -42 l 257
 871 -42 721 -30 594 160 c 257
 518 5 320 -42 0 -42 c 256
 -48 -42 -88 -3 -88 45 c 256
EndSplineSet
EndChar

StartChar: uniE076
Encoding: 57462 57462 415
Width: 1450
GlyphClass: 2
Flags: HW
LayerCount: 2
Fore
SplineSet
1086 459 m 256
 1134 462 1176 426 1179 378 c 256
 1193 150 1245 132 1449 132 c 257
 1450 132 l 258
 1498 132 1538 93 1538 45 c 256
 1538 -3 1498 -42 1450 -42 c 258
 1449 -42 l 257
 1196 -42 1025 51 1005 366 c 256
 1002 414 1038 456 1086 459 c 256
1041 1298 m 256
 1089 1302 1130 1265 1134 1217 c 256
 1162 827 1184 498 1184 148 c 256
 1184 -209 1045 -512 609 -512 c 256
 279 -512 72 -305 72 -15 c 256
 72 133 120 288 176 398 c 256
 197 441 251 457 294 436 c 256
 337 415 355 361 334 318 c 256
 290 228 248 93 248 -15 c 256
 248 -209 359 -336 609 -336 c 256
 925 -336 1008 -169 1008 148 c 256
 1008 490 988 815 960 1205 c 256
 956 1253 993 1294 1041 1298 c 256
EndSplineSet
EndChar

StartChar: uniE077
Encoding: 57463 57463 416
Width: 494
GlyphClass: 2
Flags: HW
LayerCount: 2
Fore
SplineSet
234 1298 m 256
 281 1304 326 1269 332 1222 c 256
 370 932 382 762 382 444 c 256
 382 314 366 202 310 110 c 256
 246 8 137 -42 0 -42 c 256
 -48 -42 -87 -3 -87 45 c 256
 -87 93 -48 132 0 132 c 256
 96 132 135 159 162 202 c 256
 190 246 206 328 206 444 c 256
 206 758 196 912 158 1200 c 256
 152 1247 187 1292 234 1298 c 256
EndSplineSet
EndChar

StartChar: uniE078
Encoding: 57464 57464 417
Width: 674
GlyphClass: 2
Flags: HW
LayerCount: 2
Fore
SplineSet
762 45 m 256
 762 -3 722 -42 674 -42 c 258
 673 -42 l 257
 441 -42 250 91 250 369 c 256
 250 417 289 456 337 456 c 256
 385 456 425 417 425 369 c 256
 425 193 510 132 673 132 c 257
 674 132 l 258
 722 132 762 93 762 45 c 256
284 1298 m 256
 331 1302 376 1268 380 1220 c 256
 407 931 424 683 424 369 c 256
 424 96 254 -42 0 -42 c 256
 -48 -42 -87 -3 -87 45 c 256
 -87 93 -48 132 0 132 c 256
 184 132 250 188 250 369 c 256
 250 675 233 915 206 1202 c 256
 202 1250 237 1294 284 1298 c 256
EndSplineSet
EndChar

StartChar: uniE079
Encoding: 57465 57465 418
Width: 1365
GlyphClass: 2
Flags: HW
LayerCount: 2
Fore
SplineSet
988 406 m 256
 1034 416 1083 386 1093 340 c 256
 1125 200 1178 132 1364 132 c 257
 1365 132 l 258
 1413 132 1453 93 1453 45 c 256
 1453 -3 1413 -42 1365 -42 c 258
 1364 -42 l 257
 1101 -42 968 104 923 302 c 256
 913 348 942 396 988 406 c 256
EndSplineSet
EndChar

StartChar: uniE07A
Encoding: 57466 57466 419
Width: 996
GlyphClass: 2
Flags: HW
LayerCount: 2
Fore
SplineSet
567 530 m 256
 471 530 432 484 376 310 c 256
 326 155 255 -42 0 -42 c 256
 -48 -42 -87 -3 -87 45 c 256
 -87 93 -48 132 0 132 c 256
 133 132 158 198 210 364 c 256
 276 577 373 706 573 706 c 256
 772 706 924 511 924 278 c 256
 924 36 748 -72 576 -72 c 256
 466 -72 354 -35 268 32 c 256
 230 61 223 116 252 154 c 256
 281 192 336 199 374 170 c 256
 428 129 506 102 576 102 c 256
 672 102 748 146 748 278 c 256
 748 445 644 530 567 530 c 256
EndSplineSet
EndChar

StartChar: uniE07B
Encoding: 57467 57467 420
Width: 1199
GlyphClass: 2
Flags: HW
LayerCount: 2
Fore
SplineSet
1286 45 m 256
 1286 -3 1247 -42 1199 -42 c 258
 1198 -42 l 257
 922 -42 837 118 792 256 c 256
 766 332 720 419 600 537 c 256
 566 570 568 627 602 661 c 256
 636 695 692 693 726 659 c 256
 850 532 918 428 958 314 c 256
 1002 190 1024 132 1198 132 c 257
 1199 132 l 258
 1247 132 1286 93 1286 45 c 256
569 -72 m 256
 379 -72 263 43 263 216 c 256
 263 353 315 499 442 656 c 256
 471 694 530 696 566 665 c 256
 602 634 605 578 574 542 c 256
 458 409 423 301 423 228 c 256
 423 148 479 102 581 102 c 256
 711 102 771 154 771 236 c 256
 771 310 727 416 603 534 c 256
 569 567 567 624 600 658 c 256
 633 692 689 695 723 662 c 256
 867 526 946 372 946 226 c 256
 946 42 793 -72 569 -72 c 256
564 666 m 256
 600 636 606 579 575 543 c 256
 533 493 479 418 449 356 c 256
 378 208 252 -42 0 -42 c 256
 -48 -42 -87 -3 -87 45 c 256
 -87 93 -48 132 0 132 c 256
 120 132 215 270 298 432 c 256
 340 514 393 597 441 655 c 256
 471 691 528 696 564 666 c 256
EndSplineSet
EndChar

StartChar: uniE07C
Encoding: 57468 57468 421
Width: 1504
GlyphClass: 2
Flags: HW
LayerCount: 2
Fore
SplineSet
1144 433 m 256
 1190 447 1239 420 1253 374 c 256
 1285 270 1308 208 1338 178 c 256
 1362 153 1400 132 1503 132 c 257
 1504 132 l 258
 1552 132 1592 93 1592 45 c 256
 1592 -3 1552 -42 1504 -42 c 258
 1503 -42 l 257
 1379 -42 1281 -16 1212 56 c 256
 1142 128 1115 222 1085 324 c 256
 1071 370 1098 419 1144 433 c 256
EndSplineSet
EndChar

StartChar: uniE07D
Encoding: 57469 57469 422
Width: 1081
GlyphClass: 2
Flags: HW
LayerCount: 2
Fore
SplineSet
690 216 m 256
 696 169 662 124 615 118 c 256
 585 114 553 110 518 110 c 256
 318 110 92 201 92 414 c 256
 92 591 229 706 395 784 c 256
 511 838 576 898 592 952 c 256
 606 998 654 1026 700 1012 c 256
 746 998 774 950 760 904 c 256
 721 768 597 684 469 624 c 256
 321 554 268 485 268 414 c 256
 268 356 340 284 518 284 c 256
 541 284 563 286 591 290 c 256
 638 296 684 263 690 216 c 256
666 1040 m 256
 713 1044 757 1009 761 961 c 258
 811 414 l 258
 834 155 895 132 1080 132 c 257
 1081 132 l 258
 1129 132 1169 93 1169 45 c 256
 1169 -3 1129 -42 1081 -42 c 258
 1080 -42 l 257
 827 -42 667 71 637 398 c 258
 587 945 l 258
 583 993 619 1036 666 1040 c 256
EndSplineSet
EndChar

StartChar: uniE07E
Encoding: 57470 57470 423
Width: 1283
GlyphClass: 2
Flags: HW
LayerCount: 2
Fore
SplineSet
55 430 m 256
 55 645 220 844 436 844 c 256
 660 844 750 618 750 440 c 256
 750 67 356 -42 0 -42 c 256
 -48 -42 -87 -3 -87 45 c 256
 -87 93 -48 132 0 132 c 256
 368 132 611 218 611 450 c 256
 611 576 522 668 436 668 c 256
 334 668 230 563 230 430 c 256
 230 261 515 132 800 132 c 256
 951 132 1031 192 1031 282 c 256
 1031 428 879 537 631 622 c 256
 485 672 309 739 158 821 c 256
 116 844 99 898 122 940 c 256
 145 982 198 998 240 975 c 256
 375 903 547 839 691 786 c 256
 929 700 1190 562 1190 286 c 256
 1190 80 1009 -42 800 -42 c 256
 515 -42 55 88 55 430 c 256
EndSplineSet
EndChar

StartChar: uniE07F
Encoding: 57471 57471 424
Width: 930
GlyphClass: 2
Flags: HW
LayerCount: 2
Fore
SplineSet
534 824 m 256
 702 824 792 686 792 546 c 256
 792 260 500 -42 0 -42 c 256
 -48 -42 -87 -3 -87 45 c 256
 -87 93 -48 132 0 132 c 256
 435 132 623 366 623 533 c 256
 623 603 591 653 518 653 c 256
 364 653 268 437 268 136 c 256
 268 -130 425 -384 544 -384 c 256
 611 -384 636 -326 636 -232 c 256
 636 -148 610 -53 584 7 c 256
 582 15 576 32 576 46 c 256
 576 93 613 132 663 132 c 258
 930 132 l 258
 978 132 1018 93 1018 45 c 256
 1018 -3 978 -42 930 -42 c 258
 780 -42 l 257
 798 -99 810 -166 810 -232 c 256
 810 -378 744 -560 554 -560 c 256
 258 -560 92 -153 92 136 c 256
 92 437 204 824 534 824 c 256
EndSplineSet
EndChar

StartChar: uniE080
Encoding: 57472 57472 425
Width: 931
GlyphClass: 2
Flags: HW
LayerCount: 2
Fore
SplineSet
460 744 m 256
 717 744 818 444 818 134 c 256
 818 -238 583 -463 205 -546 c 256
 159 -557 111 -529 99 -483 c 256
 87 -437 116 -386 162 -376 c 256
 493 -309 644 -140 644 134 c 256
 644 448 558 568 462 568 c 256
 376 568 298 490 298 298 c 256
 298 237 310 198 334 172 c 256
 361 144 405 132 470 132 c 258
 931 132 l 258
 979 132 1018 93 1018 45 c 256
 1018 -3 979 -42 931 -42 c 258
 470 -42 l 258
 365 -42 273 -23 206 43 c 256
 142 107 122 194 122 287 c 256
 122 513 230 744 460 744 c 256
EndSplineSet
EndChar

StartChar: uniE081
Encoding: 57473 57473 426
Width: 1231
GlyphClass: 2
Flags: HW
LayerCount: 2
Fore
SplineSet
1015 1290 m 256
 1062 1294 1106 1259 1110 1211 c 256
 1129 999 1138 839 1138 520 c 256
 1138 130 997 -42 593 -42 c 256
 439 -42 308 -32 168 -12 c 256
 121 -6 87 40 94 87 c 256
 101 134 146 166 193 160 c 256
 325 140 445 132 593 132 c 256
 919 132 964 190 964 520 c 256
 964 837 955 985 936 1195 c 256
 932 1243 968 1286 1015 1290 c 256
354 1230 m 256
 399 1246 450 1223 466 1178 c 256
 548 949 584 743 584 393 c 256
 584 345 544 306 496 306 c 256
 448 306 409 345 409 393 c 256
 409 731 376 911 302 1118 c 256
 286 1163 309 1214 354 1230 c 256
EndSplineSet
EndChar

StartChar: uniE082
Encoding: 57474 57474 427
Width: 1282
GlyphClass: 2
Flags: HW
LayerCount: 2
Fore
SplineSet
914 1252 m 256
 961 1258 1006 1223 1012 1176 c 256
 1042 925 1056 756 1056 514 c 256
 1056 68 778 -42 446 -42 c 256
 359 -42 267 -35 172 -26 c 256
 125 -22 89 22 93 70 c 256
 97 118 141 152 188 148 c 256
 281 139 369 132 446 132 c 256
 740 132 880 180 880 514 c 256
 880 750 868 907 838 1156 c 256
 832 1203 867 1246 914 1252 c 256
394 356 m 256
 348 366 315 412 325 458 c 256
 336 512 340 567 340 627 c 256
 340 819 292 967 238 1088 c 256
 218 1132 237 1184 281 1204 c 256
 325 1224 377 1204 397 1160 c 256
 459 1025 516 849 516 627 c 256
 516 557 510 494 497 426 c 256
 487 380 440 346 394 356 c 256
968 602 m 256
 1016 602 1056 562 1056 514 c 256
 1056 205 1126 132 1281 132 c 257
 1282 132 l 258
 1330 132 1370 93 1370 45 c 256
 1370 -3 1330 -42 1282 -42 c 258
 1281 -42 l 257
 993 -41 880 180 880 514 c 256
 880 562 920 602 968 602 c 256
EndSplineSet
EndChar

StartChar: uniE083
Encoding: 57475 57475 428
Width: 1610
GlyphClass: 2
Flags: HW
LayerCount: 2
Fore
SplineSet
1353 1223 m 256
 1400 1229 1444 1193 1450 1146 c 256
 1477 905 1498 709 1498 441 c 256
 1498 41 1194 -72 823 -72 c 256
 491 -72 72 -26 72 382 c 256
 72 454 86 534 110 622 c 256
 123 668 172 697 218 684 c 256
 264 671 291 622 278 576 c 256
 256 498 248 434 248 382 c 256
 248 156 461 102 823 102 c 256
 1174 102 1322 179 1322 441 c 256
 1322 699 1303 885 1276 1126 c 256
 1270 1173 1306 1217 1353 1223 c 256
EndSplineSet
EndChar

StartChar: uniE084
Encoding: 57476 57476 429
Width: 2681
GlyphClass: 2
Flags: HW
LayerCount: 2
Fore
SplineSet
690 -654 m 256
 336 -654 92 -494 92 -126 c 256
 92 11 122 156 162 300 c 256
 175 346 224 375 270 362 c 256
 316 349 343 300 330 254 c 256
 292 118 268 -15 268 -126 c 256
 268 -386 390 -478 690 -478 c 256
 918 -478 1084 -398 1084 -300 c 256
 1084 -222 1004 -203 902 -185 c 256
 769 -163 556 -104 556 110 c 256
 556 422 898 573 1190 621 c 256
 1235 628 1278 598 1288 557 c 256
 1368 251 1432 112 1546 112 c 256
 1676 112 1738 267 1770 501 c 256
 1776 548 1823 582 1870 576 c 256
 1917 570 1950 524 1944 477 c 256
 1914 271 1848 -62 1542 -62 c 256
 1298 -62 1209 194 1142 432 c 257
 894 376 730 256 730 114 c 256
 730 34 826 8 936 -13 c 256
 1111 -45 1260 -96 1260 -300 c 256
 1260 -591 901 -654 690 -654 c 256
1862 576 m 256
 1910 572 1948 532 1944 484 c 256
 1942 456 1942 428 1942 398 c 256
 1942 214 1990 116 2110 116 c 256
 2224 116 2270 215 2270 411 c 256
 2270 459 2266 512 2261 560 c 256
 2257 607 2293 651 2340 655 c 256
 2387 659 2432 623 2436 576 c 256
 2441 524 2444 469 2444 411 c 256
 2444 221 2393 -58 2115 -58 c 256
 1836 -58 1766 202 1766 398 c 256
 1766 430 1768 462 1770 494 c 256
 1774 542 1814 580 1862 576 c 256
2338 654 m 256
 2385 660 2428 625 2434 578 c 256
 2484 147 2517 132 2680 132 c 257
 2681 132 l 258
 2729 132 2769 92 2769 44 c 256
 2769 -4 2729 -44 2681 -44 c 258
 2680 -44 l 257
 2390 -44 2311 136 2262 558 c 256
 2256 605 2291 648 2338 654 c 256
EndSplineSet
EndChar

StartChar: uniE085
Encoding: 57477 57477 430
Width: 435
GlyphClass: 2
Flags: HW
LayerCount: 2
Fore
SplineSet
304 682 m 256
 272 704 262 748 284 780 c 256
 294 794 300 813 300 845 c 256
 300 907 256 950 176 950 c 256
 112 950 62 899 62 849 c 256
 62 786 91 757 149 704 c 256
 177 678 180 631 154 603 c 256
 128 575 81 572 53 598 c 256
 -3 649 -82 722 -82 849 c 256
 -82 989 44 1092 176 1092 c 256
 314 1092 442 997 442 845 c 256
 442 790 428 742 402 702 c 256
 380 670 336 660 304 682 c 256
-336 -469 m 256
 -342 -422 -309 -376 -262 -370 c 256
 40 -328 198 -175 198 181 c 256
 198 236 193 294 183 349 c 256
 175 395 207 442 254 450 c 256
 301 458 347 425 355 379 c 256
 367 313 372 246 372 181 c 256
 372 -253 138 -492 -238 -544 c 256
 -285 -550 -330 -516 -336 -469 c 256
EndSplineSet
EndChar

StartChar: uniE086
Encoding: 57478 57478 431
Width: 593
GlyphClass: 2
Flags: HW
LayerCount: 2
Fore
SplineSet
152 468 m 256
 198 482 247 454 261 408 c 256
 292 301 304 241 304 137 c 256
 304 -209 134 -452 -229 -542 c 256
 -275 -554 -323 -524 -335 -478 c 256
 -347 -432 -317 -384 -271 -372 c 256
 21 -300 130 -143 130 137 c 256
 130 231 124 253 93 360 c 256
 79 406 106 454 152 468 c 256
222 682 m 256
 190 704 180 748 202 780 c 256
 212 794 219 813 219 845 c 256
 219 907 175 950 95 950 c 256
 31 950 -20 899 -20 849 c 256
 -20 786 10 757 68 704 c 256
 96 678 99 631 73 603 c 256
 47 575 0 572 -28 598 c 256
 -84 649 -162 722 -162 849 c 256
 -162 989 -37 1092 95 1092 c 256
 233 1092 361 997 361 845 c 256
 361 790 348 742 322 702 c 256
 300 670 254 660 222 682 c 256
680 45 m 256
 680 -3 641 -42 593 -42 c 258
 592 -42 l 257
 257 -42 155 170 94 358 c 256
 80 404 104 454 150 468 c 256
 196 482 246 456 260 410 c 256
 316 235 356 132 592 132 c 257
 593 132 l 258
 641 132 680 93 680 45 c 256
EndSplineSet
EndChar

StartChar: uniE087
Encoding: 57479 57479 432
Width: 1465
GlyphClass: 2
Flags: HW
LayerCount: 2
Fore
SplineSet
815 102 m 256
 937 102 1002 132 1002 224 c 256
 1002 348 843 555 678 621 c 256
 634 639 611 691 629 735 c 256
 647 779 699 801 743 783 c 256
 947 700 1176 454 1176 210 c 256
 1176 4 995 -72 815 -72 c 256
 564 -72 462 88 462 264 c 256
 462 332 472 405 492 482 c 257
 280 452 248 372 248 156 c 256
 248 -205 255 -376 277 -692 c 256
 281 -740 244 -781 196 -785 c 256
 148 -789 107 -752 103 -704 c 256
 81 -388 72 -207 72 156 c 256
 72 446 184 666 594 678 c 256
 651 678 696 649 696 590 c 256
 696 580 694 558 686 534 c 257
 654 440 636 351 636 264 c 256
 636 164 680 102 815 102 c 256
630 737 m 256
 649 781 701 802 745 782 c 256
 983 678 1087 501 1163 365 c 256
 1248 214 1299 132 1464 132 c 257
 1465 132 l 258
 1513 132 1553 93 1553 45 c 256
 1553 -3 1513 -42 1465 -42 c 258
 1464 -42 l 257
 1198 -42 1094 132 1011 279 c 256
 935 413 861 540 675 622 c 256
 631 642 611 693 630 737 c 256
EndSplineSet
EndChar

StartChar: uniFB00
Encoding: 64256 64256 433
Width: 1386
GlyphClass: 3
Flags: HW
LayerCount: 2
Fore
SplineSet
73 824 m 256
 69 872 106 913 154 917 c 256
 318 929 481 936 643 936 c 256
 841 936 1039 924 1236 902 c 256
 1283 896 1319 853 1313 806 c 256
 1307 759 1263 724 1216 730 c 256
 1026 752 835 760 643 760 c 256
 485 760 326 755 166 743 c 256
 118 739 77 776 73 824 c 256
1284 1489 m 256
 1256 1465 1216 1460 1184 1478 c 256
 1162 1480 1144 1466 1132 1444 c 256
 1085 1276 1050 906 1044 652 c 256
 1028 436 988 94 945 -82 c 256
 902 -87 863 -55 858 -12 c 256
 853 166 853 475 869 659 c 256
 875 906 895 1315 997 1528 c 256
 1018 1611 1062 1696 1132 1696 c 256
 1197 1696 1249 1658 1290 1612 c 256
 1322 1576 1320 1521 1284 1489 c 256
670 1489 m 256
 642 1465 602 1460 570 1478 c 256
 548 1480 532 1466 520 1444 c 256
 473 1276 436 906 430 652 c 256
 414 436 375 94 332 -82 c 256
 289 -87 249 -55 244 -12 c 256
 239 166 240 475 256 659 c 256
 262 906 282 1315 384 1528 c 256
 405 1611 449 1696 519 1696 c 256
 584 1696 636 1658 677 1612 c 256
 709 1576 706 1521 670 1489 c 256
EndSplineSet
Ligature2: "'rlig' Required Ligatures in Latin lookup 8 subtable" f f
EndChar

StartChar: uniFB05
Encoding: 64261 64261 434
Width: 1325
GlyphClass: 3
Flags: HW
LayerCount: 2
Fore
SplineSet
1252 809 m 256
 1246 762 1201 728 1154 734 c 256
 999 754 825 760 651 760 c 256
 485 760 320 754 166 743 c 256
 118 739 77 776 73 824 c 256
 69 872 106 913 154 917 c 256
 310 928 481 936 651 936 c 256
 831 936 1011 926 1176 906 c 256
 1223 900 1258 856 1252 809 c 256
962 1302 m 256
 1009 1296 1044 1253 1038 1206 c 256
 1005 922 980 642 980 355 c 256
 980 211 988 102 1088 102 c 256
 1104 102 1124 104 1146 108 c 256
 1192 117 1239 84 1248 38 c 256
 1257 -8 1224 -55 1178 -64 c 256
 1146 -70 1116 -72 1088 -72 c 256
 830 -72 806 201 806 355 c 256
 806 652 833 940 866 1226 c 256
 872 1273 915 1308 962 1302 c 256
670 1489 m 256
 651 1471 630 1466 612 1470 c 256
 577 1488 554 1502 530 1502 c 256
 492 1502 458 1404 450 1301 c 256
 424 961 411 346 411 -4 c 256
 411 -52 371 -91 323 -91 c 256
 275 -91 236 -52 236 -4 c 256
 236 350 244 964 276 1316 c 256
 289 1469 343 1696 519 1696 c 256
 584 1696 636 1658 677 1612 c 256
 709 1576 704 1521 670 1489 c 256
EndSplineSet
Ligature2: "'rlig' Required Ligatures in Latin lookup 8 subtable" f t
EndChar

StartChar: uniFD3E
Encoding: 64830 64830 492
Width: 866
GlyphClass: 2
Flags: HW
LayerCount: 2
Fore
SplineSet
606 1446 m 256
 649 1425 667 1373 646 1330 c 256
 536 1106 486 919 486 681 c 256
 486 461 538 201 646 -17 c 256
 667 -60 650 -113 607 -134 c 256
 564 -155 511 -138 490 -95 c 256
 370 151 310 435 310 681 c 256
 310 947 372 1166 490 1406 c 256
 511 1449 563 1467 606 1446 c 256
804 774 m 256
 804 698 708 654 633 632 c 257
 675 610 722 576 722 524 c 256
 722 383 575 380 554 380 c 256
 490 380 450 408 421 446 c 257
 387 387 323 342 237 342 c 256
 166 342 102 401 102 476 c 256
 102 553 141 606 192 644 c 257
 126 677 62 732 62 819 c 256
 62 941 188 966 234 966 c 256
 330 966 388 915 422 857 c 257
 472 913 544 950 629 950 c 256
 735 950 804 867 804 774 c 256
EndSplineSet
EndChar

StartChar: uniFD3F
Encoding: 64831 64831 493
Width: 861
GlyphClass: 2
Flags: HW
LayerCount: 2
Fore
SplineSet
252 1446 m 256
 295 1467 347 1449 368 1406 c 256
 486 1166 548 947 548 681 c 256
 548 416 488 150 368 -94 c 256
 347 -137 295 -155 252 -134 c 256
 209 -113 191 -61 212 -18 c 256
 320 202 372 442 372 681 c 256
 372 919 322 1106 212 1330 c 256
 191 1373 209 1425 252 1446 c 256
142 526 m 256
 142 580 186 613 230 634 c 257
 152 659 62 701 62 781 c 256
 62 889 153 962 247 962 c 256
 339 962 404 918 450 858 c 257
 488 910 547 950 630 950 c 256
 698 950 799 902 799 792 c 256
 799 709 740 663 678 635 c 257
 723 601 755 555 755 493 c 256
 755 377 641 344 593 344 c 256
 527 344 476 378 445 420 c 257
 414 382 366 354 305 354 c 256
 229 354 142 418 142 526 c 256
EndSplineSet
EndChar

StartChar: v
Encoding: 118 118 589
Width: 1084
GlyphClass: 2
Flags: HW
LayerCount: 2
Fore
SplineSet
123 1050 m 256
 167 1070 220 1052 240 1008 c 256
 340 795 459 533 530 273 c 257
 654 495 766 741 840 996 c 256
 854 1042 902 1069 948 1055 c 256
 994 1041 1022 992 1008 946 c 256
 908 602 748 277 576 -1 c 256
 565 -19 547 -34 526 -40 c 256
 478 -54 426 -22 416 28 c 256
 356 334 206 667 80 934 c 256
 60 978 79 1030 123 1050 c 256
EndSplineSet
EndChar

StartChar: w
Encoding: 119 119 590
Width: 1501
GlyphClass: 2
Flags: HW
LayerCount: 2
Fore
SplineSet
345 1030 m 256
 387 1006 402 953 378 911 c 256
 330 826 248 568 248 374 c 256
 248 199 301 102 418 102 c 256
 570 102 677 367 697 681 c 256
 701 731 736 772 786 768 c 256
 832 764 866 725 866 682 c 256
 868 340 892 102 1038 102 c 256
 1172 102 1254 265 1254 513 c 256
 1254 662 1218 821 1172 912 c 256
 1151 955 1169 1009 1212 1030 c 256
 1255 1051 1309 1033 1330 990 c 256
 1392 865 1428 688 1428 513 c 256
 1428 267 1350 -72 1038 -72 c 256
 866 -72 788 98 752 255 c 257
 693 103 580 -72 406 -72 c 256
 140 -72 72 189 72 374 c 256
 72 610 158 876 226 997 c 256
 250 1039 303 1054 345 1030 c 256
EndSplineSet
EndChar

StartChar: x
Encoding: 120 120 591
Width: 1137
GlyphClass: 2
Flags: HW
LayerCount: 2
Fore
SplineSet
104 -68 m 256
 68 -38 62 20 92 56 c 258
 887 1026 l 258
 917 1062 974 1069 1010 1039 c 256
 1046 1009 1053 952 1023 916 c 258
 228 -56 l 258
 198 -92 140 -98 104 -68 c 256
196 1036 m 256
 239 1057 293 1039 314 996 c 256
 470 681 786 314 1038 62 c 256
 1072 28 1072 -28 1038 -62 c 256
 1004 -96 950 -96 916 -62 c 256
 656 198 328 571 156 918 c 256
 135 961 153 1015 196 1036 c 256
EndSplineSet
EndChar

StartChar: y
Encoding: 121 121 592
Width: 1127
GlyphClass: 2
Flags: HW
LayerCount: 2
Fore
SplineSet
236 1058 m 256
 283 1053 318 1009 313 962 c 256
 299 840 292 711 292 589 c 256
 292 296 334 102 526 102 c 256
 686 102 779 206 832 388 c 256
 846 434 894 462 940 448 c 256
 986 434 1014 386 1000 340 c 256
 937 126 792 -72 526 -72 c 256
 146 -72 118 330 118 589 c 256
 118 719 125 850 139 980 c 256
 144 1027 189 1063 236 1058 c 256
918 1051 m 256
 966 1053 1007 1015 1009 967 c 256
 1013 864 1014 698 1014 546 c 256
 1014 114 1026 -522 462 -522 c 256
 298 -522 166 -458 88 -344 c 256
 62 -304 70 -248 110 -222 c 256
 150 -196 206 -204 232 -244 c 256
 274 -304 342 -346 462 -346 c 256
 822 -346 840 50 840 546 c 256
 840 696 838 864 834 960 c 256
 832 1008 870 1049 918 1051 c 256
EndSplineSet
EndChar

StartChar: z
Encoding: 122 122 596
Width: 1054
GlyphClass: 2
Flags: HW
LayerCount: 2
Fore
SplineSet
74 868 m 256
 66 915 99 960 146 968 c 256
 234 982 378 1002 538 1002 c 256
 704 1002 824 963 894 919 c 256
 944 888 947 815 903 778 c 256
 760 658 482 338 331 100 c 257
 505 111 734 116 894 116 c 256
 942 116 982 77 982 29 c 256
 982 -19 942 -58 894 -58 c 256
 688 -58 362 -69 174 -85 c 256
 100 -91 58 -14 88 42 c 256
 212 278 485 612 675 799 c 257
 613 813 530 824 435 821 c 256
 330 818 234 806 174 796 c 256
 127 788 82 821 74 868 c 256
EndSplineSet
EndChar

StartChar: zero
Encoding: 48 48 597
Width: 1141
GlyphClass: 2
Flags: HW
LayerCount: 2
Fore
SplineSet
248 486 m 256
 248 253 328 102 510 102 c 256
 798 102 894 460 894 843 c 256
 894 1075 766 1258 580 1258 c 256
 343 1258 248 838 248 486 c 256
72 486 m 256
 72 792 129 1434 580 1434 c 256
 904 1434 1068 1123 1068 843 c 256
 1068 484 988 -72 510 -72 c 256
 180 -72 72 229 72 486 c 256
EndSplineSet
EndChar
